SplineFontDB: 3.0
FontName: greciliae
FullName: greciliae
FamilyName: greciliae
Weight: Medium
Copyright: Greciliae font\nCopyright (C) 2007 Matthew Spencer with Reserved Font Name "Caeciliae",\nCopyright (C) 2007-2025 The Gregorio Project (see CONTRIBUTORS.md)\nwith Reserved Font Name "Greciliae".\n\nThis Font Software is licensed under the SIL Open Font License, Version 1.1.\nThis license is also available with a FAQ at:\nhttp://scripts.sil.org/OFL
UComments: "2007-4-12: Created." 
Version: 1.2
ItalicAngle: 0
UnderlinePosition: -204
UnderlineWidth: 102
Ascent: 800
Descent: 200
LayerCount: 2
Layer: 0 0 "Back"  1
Layer: 1 0 "Fore"  0
XUID: [1021 341 828717519 15204965]
FSType: 0
OS2Version: 0
OS2_WeightWidthSlopeOnly: 0
OS2_UseTypoMetrics: 1
CreationTime: 1176402534
ModificationTime: 1572105938
OS2TypoAscent: 0
OS2TypoAOffset: 1
OS2TypoDescent: 0
OS2TypoDOffset: 1
OS2TypoLinegap: 90
OS2WinAscent: 0
OS2WinAOffset: 1
OS2WinDescent: 0
OS2WinDOffset: 1
HheadAscent: 0
HheadAOffset: 1
HheadDescent: 0
HheadDOffset: 1
OS2Vendor: 'PfEd'
MarkAttachClasses: 1
DEI: 91125
Encoding: Custom
UnicodeInterp: none
NameList: Adobe Glyph List
DisplaySize: -96
AntiAlias: 1
FitToEm: 0
WidthSeparation: 150
WinInfo: 161 23 6
BeginPrivate: 0
EndPrivate
Grid
-1000 67.5576 m 0
 2000 67.5576 l 0
93.3101 1300 m 0
 93.3101 -700 l 0
-1000 159 m 0
 2000 159 l 0
-1000 194 m 0
 2000 194 l 0
18 1300 m 0
 18 -700 l 0
-1000 200 m 0
 2000 200 l 0
-1000 302.758 m 0
 2000 302.758 l 0
-1000 -57 m 0
 2000 -57 l 0
-1000 -173 m 0
 2000 -173 l 0
-1000 -166 m 0
 2000 -166 l 0
17.75 1300 m 0
 17.75 -700 l 0
EndSplineSet
TeXData: 1 0 0 346030 173015 115343 0 1048576 115343 783286 444596 497025 792723 393216 433062 380633 303038 157286 324010 404750 52429 2506097 1059062 262144
BeginChars: 284 284

StartChar: Accentus
Encoding: 0 -1 0
Width: 6
Flags: W
HStem: -56.1992 151.199
VStem: 1.19922 132
LayerCount: 2
Fore
SplineSet
94.7998 95 m 4
 102.8 95 111.199 92.6006 120 87.8008 c 4
 128.8 83 133.199 75.8008 133.199 66.2002 c 4
 133.199 56.6006 130 49.4004 123.6 44.6006 c 6
 6 -55 l 5
 3.59961 -55.7998 2 -56.1992 1.19922 -56.1992 c 260
 0.399414 -56.1992 0 -54.5996 0 -51.3994 c 5
 73.1992 79.4004 l 6
 78.7998 89.8008 86 95 94.7998 95 c 4
EndSplineSet
Validated: 1
EndChar

StartChar: AccentusReversus
Encoding: 1 -1 1
Width: 6
Flags: W
HStem: -56.1992 151.199
VStem: -127 133.199
LayerCount: 2
Fore
SplineSet
-88.6006 95 m 0
 -79.8008 95 -72.6006 89.8008 -67 79.4004 c 2
 6.19922 -51.3994 l 1
 6.19922 -54.5996 5.7998 -56.1992 5 -56.1992 c 256
 4.19922 -56.1992 2.59961 -55.7998 0.199219 -55 c 1
 -117.4 44.6006 l 2
 -123.801 49.4004 -127 56.6006 -127 66.2002 c 0
 -127 75.8008 -122.601 83 -113.801 87.8008 c 0
 -105 92.6006 -96.6006 95 -88.6006 95 c 0
EndSplineSet
Validated: 1
EndChar

StartChar: AscendensOriscus
Encoding: 2 -1 2
Width: 166
VWidth: 2537
Flags: W
HStem: -37.1504 176.8<74.1705 160.786>
VStem: -0.200195 166.4<-3.28925 139.081>
LayerCount: 2
Fore
SplineSet
127.2 139.65 m 4
 156.411 139.65 166.2 164.545 166.2 190.35 c 5
 166.2 13.5498 l 6
 166.2 -12.9697 158.4 -37.1504 127.2 -37.1504 c 4
 106.136 -37.1504 61.2451 -3.34961 38.7998 -3.34961 c 4
 9.08496 -3.34961 -0.200195 -29.9844 -0.200195 -55.3496 c 5
 -0.200195 121.45 l 6
 -0.200195 160.06 15.4004 172.15 38.7998 172.15 c 4
 61.2793 172.15 106.118 139.65 127.2 139.65 c 4
EndSplineSet
Validated: 1
EndChar

StartChar: AscendensOriscus#Cavum
Encoding: 3 -1 3
Width: 166
VWidth: 2537
Flags: W
HStem: -11.04 157.08
VStem: 20.5576 124.883<20.3702 115.738>
LayerCount: 2
Fore
SplineSet
105.722 120.649 m 4
 125.398 113.913 136.892 116.433 145.441 119.649 c 5
 145.441 27.0098 l 6
 145.44 7.10742 142.067 -17.0947 119.022 -11.04 c 4
 103.485 -6.95801 76.5156 10.0166 60.2783 15.3281 c 4
 40.1895 21.8984 29.1074 21.0879 20.5576 16.3018 c 5
 20.5576 107.989 l 6
 20.5576 136.966 29.6621 150.865 46.9775 146.04 c 4
 63.46 141.447 90.5117 125.856 105.722 120.649 c 4
EndSplineSet
EndChar

StartChar: AscendensOriscusFlatBottom
Encoding: 4 -1 4
Width: 166
VWidth: 2537
Flags: HW
HStem: -37.1504 176.801<74.1703 160.786>
VStem: -0.199997 166.4<-3.28925 139.081>
LayerCount: 2
Fore
SplineSet
-0.200195 -24.3486 m 5
 -0.200195 121.45 l 2
 -0.200195 160.06 15.3994 172.15 38.7998 172.15 c 0
 61.2783 172.15 106.118 139.65 127.2 139.65 c 0
 156.411 139.65 166.2 164.545 166.2 190.35 c 1
 166.2 13.5508 l 2
 166.2 -25.0586 150.6 -37.1494 127.2 -37.1494 c 0
 104.721 -37.1494 59.8818 -4.64941 38.7998 -4.64941 c 0
 9.58887 -4.64941 6 -15.4131 -0.200195 -24.3486 c 5
EndSplineSet
EndChar

StartChar: AscendensOriscusFlattened
Encoding: 5 -1 5
Width: 166
VWidth: 2537
Flags: HW
HStem: -4.65002 176.801<5.21408 91.8295>
VStem: -0.200195 166.4<-4.08041 138.29>
LayerCount: 2
Fore
SplineSet
166.2 153.35 m 5
 166.2 13.5508 l 2
 166.2 -25.0596 150.6 -37.1494 127.2 -37.1494 c 0
 104.721 -37.1494 59.8818 -4.64941 38.7998 -4.64941 c 0
 9.58887 -4.64941 6 -15.4131 -0.200195 -24.3486 c 1
 -0.200195 115.45 l 6
 -0.200195 154.06 15.4004 166.15 38.7998 166.15 c 4
 61.2793 166.15 106.118 133.65 127.2 133.65 c 4
 156.411 133.65 160 144.414 166.2 153.35 c 5
EndSplineSet
EndChar

StartChar: AscendensOriscusFlattened#Cavum
Encoding: 6 -1 6
Width: 166
VWidth: 2537
Flags: W
HStem: -11.04 157.08
VStem: 20.5576 124.883<20.3702 115.738>
LayerCount: 2
Fore
SplineSet
105.722 113.649 m 0
 125.398 106.913 136.892 110.433 145.441 113.649 c 1
 145.441 27.0098 l 2
 145.44 7.10742 142.067 -17.0947 119.022 -11.04 c 0
 103.485 -6.95801 76.5156 10.0166 60.2783 15.3281 c 0
 40.1895 21.8984 29.1074 21.0879 20.5576 16.3018 c 1
 20.5576 107.989 l 2
 20.5576 136.966 29.6621 144.865 46.9775 140.04 c 0
 63.46 135.447 90.5117 118.856 105.722 113.649 c 0
EndSplineSet
EndChar

StartChar: AscendensOriscusFlatTop
Encoding: 7 -1 7
Width: 166
VWidth: 2537
Flags: HW
HStem: -37.1504 176.801<74.1703 160.786>
VStem: -0.199997 166.4<-3.28925 139.081>
LayerCount: 2
Fore
SplineSet
127.2 133.65 m 4
 156.411 133.65 160 144.414 166.2 153.35 c 5
 166.2 13.5498 l 2
 166.2 -12.9697 158.4 -37.1504 127.2 -37.1504 c 0
 106.136 -37.1504 61.2451 -3.34961 38.7998 -3.34961 c 0
 9.08496 -3.34961 -0.200195 -29.9844 -0.200195 -55.3496 c 1
 -0.200195 115.45 l 6
 -0.200195 154.06 15.3994 166.15 38.7998 166.15 c 4
 61.2783 166.15 106.118 133.65 127.2 133.65 c 4
EndSplineSet
EndChar

StartChar: AscendensOriscusFlatTop#Cavum
Encoding: 8 -1 8
Width: 166
VWidth: 2537
Flags: HW
HStem: -11.04 157.08
VStem: 20.5576 124.883<20.3702 115.738>
LayerCount: 2
Fore
SplineSet
105.722 113.649 m 0
 125.398 106.913 136.892 110.433 145.441 113.649 c 1
 145.441 27.0098 l 2
 145.44 7.10742 142.067 -17.0947 119.022 -11.04 c 0
 103.485 -6.95801 76.5156 10.0166 60.2783 15.3281 c 0
 40.1895 21.8984 29.1074 21.0879 20.5576 16.3018 c 1
 20.5576 107.989 l 2
 20.5576 136.966 29.6621 144.865 46.9775 140.04 c 0
 63.46 135.447 90.5117 118.856 105.722 113.649 c 0
EndSplineSet
EndChar

StartChar: AscendensOriscusLineBL
Encoding: 9 -1 9
Width: 166
VWidth: 2537
Flags: W
HStem: -3.34961 175.5<18.4364 92.8347>
VStem: 0 166.2<-3.28925 139.081> 0 18<-74 -5.00787>
LayerCount: 2
Fore
SplineSet
18 -74 m 1xa0
 0 -74 l 1xa0
 0.000976562 121.45 l 2
 0.000976562 160.06 15.4004 172.15 38.7998 172.15 c 0
 61.2793 172.15 106.118 139.65 127.2 139.65 c 0
 156.411 139.65 166.2 164.545 166.2 190.35 c 1
 166.2 13.5498 l 2xc0
 166.2 -12.9697 158.4 -37.1504 127.2 -37.1504 c 0
 106.136 -37.1504 61.2451 -3.34961 38.7998 -3.34961 c 0
 30.2747 -3.34961 23.4312 -5.54191 18.0061 -9.26756 c 1
 18 -74 l 1xa0
EndSplineSet
EndChar

StartChar: AscendensOriscusLineBLBR
Encoding: 10 -1 10
Width: 166
VWidth: 2537
Flags: HW
HStem: -3.34961 175.5<18.3506 92.8347>
VStem: 0 18.2002<-377.849 -4.93091> 148 18<-53 -32.6729>
LayerCount: 2
Fore
SplineSet
0 -62 m 1
 0 121 l 2
 0 159.61 15.4004 172.15 38.7998 172.15 c 0
 61.2793 172.15 106.118 139.65 127.2 139.65 c 0
 156.411 139.65 166 164.195 166 190 c 1
 166 -53 l 5
 148 -53 l 5
 148 -53 148 -52.8076 148 -32.6729 c 1
 142.692 -35.7363 135.586 -37.1504 127.2 -37.1504 c 0
 106.136 -37.1504 61.2451 -3.34961 38.7998 -3.34961 c 0
 30.2247 -3.34961 23.2744 -5.56738 17.834 -9.34668 c 1
 17.8938 -62 l 1
 0 -62 l 1
EndSplineSet
EndChar

StartChar: AscendensOriscusLineBLFlatTop
Encoding: 11 -1 11
Width: 166
VWidth: 2537
Flags: HW
HStem: -37.1504 176.8<18.5863 91.8248>
VStem: -0.00488281 17.9951<-74 -32.1039>
LayerCount: 2
Fore
SplineSet
-0.200195 115 m 6
 -0.200195 154 15.3994 166.15 38.7998 166.15 c 4
 61.2783 166.15 106.118 133.65 127.2 133.65 c 4
 156.411 133.65 160 144.414 166.2 153.35 c 5
 166.2 13.5498 l 2
 166.2 -12.9697 158.4 -37.1504 127.2 -37.1504 c 0
 106.136 -37.1504 61.2451 -3.34961 38.7998 -3.34961 c 0
 30.2715 -3.34961 23.4261 -5.54354 18 -9.27172 c 1
 18 -74 l 1
 -0.200195 -74 l 1
 -0.200195 115 l 6
EndSplineSet
EndChar

StartChar: AscendensOriscusLineBLTR
Encoding: 12 -1 12
Width: 166
VWidth: 2537
Flags: W
HStem: -3.34961 175.5<18.4397 92.8347>
VStem: 0 18<-74 -5.00652> 148.027 17.973<141.255 159>
LayerCount: 2
Fore
SplineSet
0 121.45 m 2
 0 160.06 15.4004 172.15 38.7998 172.15 c 0
 61.2793 172.15 106.118 139.65 127.2 139.65 c 0
 135.712 139.65 142.575 141.764 148.027 145.398 c 1
 148 159 l 1
 166 159 l 1
 166 13.5498 l 6
 166 -12.9697 158.4 -37.1504 127.2 -37.1504 c 0
 106.136 -37.1504 61.2451 -3.34961 38.7998 -3.34961 c 0
 30.2783 -3.34961 23.4369 -5.54007 18.0129 -9.26288 c 1
 18 -74 l 1
 0 -74 l 1
 0 121.45 l 2
EndSplineSet
EndChar

StartChar: AscendensOriscusLineBR
Encoding: 13 -1 13
Width: 166
VWidth: 2537
Flags: W
HStem: -37.1504 176.8<74.1752 147.734>
VStem: -0.200195 166.2<-3.34961 139.081> 148 18<-53 -32.1>
LayerCount: 2
Fore
SplineSet
147.987 -32.1 m 1xa0
 142.617 -35.3146 135.797 -37.1504 127.2 -37.1504 c 0
 106.136 -37.1504 61.2451 -3.34961 38.7998 -3.34961 c 0
 9.08496 -3.34961 -0.200195 -29.9844 -0.200195 -55.3496 c 1
 -0.200195 121.45 l 2xc0
 -0.200195 160.06 15.4004 172.15 38.7998 172.15 c 0
 61.2793 172.15 106.118 139.65 127.2 139.65 c 0
 156.411 139.65 166 164.545 166 190.35 c 1
 166 -53 l 1
 148 -53 l 1
 147.987 -32.1 l 1xa0
EndSplineSet
EndChar

StartChar: AscendensOriscusLineBRFlatBottom
Encoding: 14 -1 14
Width: 166
VWidth: 2537
Flags: HW
HStem: -3.34961 175.5<73.1653 147.574>
VStem: 0 18<-74 -32.0938> 148 18<-53 -5.01182>
LayerCount: 2
Fore
SplineSet
166.2 -53 m 1
 148 -53 l 1
 147.971 -32.4381 l 1
 142.142 -35.7653 135.117 -37.1494 127.2 -37.1494 c 0
 104.721 -37.1494 59.8818 -4.64941 38.7998 -4.64941 c 0
 9.58887 -4.64941 6 -15.4131 -0.200195 -24.3486 c 5
 -0.200195 121.45 l 2
 -0.200195 160.06 15.3994 172.15 38.7998 172.15 c 0
 61.2783 172.15 106.118 139.65 127.2 139.65 c 0
 156.411 139.65 166.2 164.545 166.2 190.35 c 2
 166.2 -53 l 1
EndSplineSet
EndChar

StartChar: AscendensOriscusLineTL
Encoding: 15 -1 15
Width: 166
VWidth: 2537
Flags: W
HStem: -3.34961 175.5<7.38633 92.8347>
VStem: -0 166.2<-3.28925 139.65>
LayerCount: 2
Fore
SplineSet
-0 159 m 1
 8.73101 159.009 l 1
 15.5875 168.551 26.0328 172.15 38.7998 172.15 c 0
 61.2793 172.15 106.118 139.65 127.2 139.65 c 0
 156.411 139.65 166.2 164.545 166.2 190.35 c 1
 166.2 13.5498 l 2
 166.2 -12.9697 158.4 -37.1504 127.2 -37.1504 c 0
 106.136 -37.1504 61.2451 -3.34961 38.7998 -3.34961 c 0
 9.08496 -3.34961 -0 -29.9844 -0 -55.3496 c 1
 -0 159 l 1
EndSplineSet
EndChar

StartChar: AscendensOriscusLineTLBR
Encoding: 16 -1 16
Width: 166
VWidth: 2537
Flags: W
HStem: -3.34961 175.5<7.39664 92.8347>
VStem: 148 18<-53 -32.1>
LayerCount: 2
Fore
SplineSet
-0 159 m 5
 8.75293 159 l 1
 15.581 168.549 26.0288 172.15 38.7998 172.15 c 0
 61.2793 172.15 106.118 139.65 127.2 139.65 c 0
 156.411 139.65 166 164.545 166 190.35 c 1
 166 -53 l 1
 148 -53 l 1
 147.987 -32.1 l 1
 142.617 -35.3146 135.797 -37.1504 127.2 -37.1504 c 0
 106.136 -37.1504 61.2451 -3.34961 38.7998 -3.34961 c 0
 9.08496 -3.34961 -0 -29.9834 -0 -55.3486 c 1
 -0 159 l 5
EndSplineSet
EndChar

StartChar: AscendensOriscusLineTLFlatTop
Encoding: 17 -1 17
Width: 166
VWidth: 2537
Flags: HW
HStem: -37.1504 176.8<11.3309 91.8296>
VStem: 0 166.2<-3.28925 139.081> 0 17.9727<141.255 159>
LayerCount: 2
Fore
SplineSet
-0.200195 159 m 5
 14.4145 159 l 1
 20.859 164.102 29.1687 166.15 38.7998 166.15 c 0
 61.2783 166.15 106.118 133.65 127.2 133.65 c 0
 156.411 133.65 160 144.414 166.2 153.35 c 1
 166.2 13.5498 l 2
 166.2 -12.9697 158.4 -37.1504 127.2 -37.1504 c 0
 106.136 -37.1504 61.2451 -3.34961 38.7998 -3.34961 c 0
 9.08496 -3.34961 -0.200195 -29.9844 -0.200195 -55.3496 c 6
 -0.200195 159 l 5
EndSplineSet
EndChar

StartChar: AscendensOriscusLineTLTR
Encoding: 18 -1 18
Width: 166
VWidth: 2537
Flags: W
HStem: -37.1504 176.8<74.1705 154.644>
VStem: -0 166<-3.28925 139.65> 147.977 18.0231<141.245 159>
LayerCount: 2
Fore
SplineSet
166 13.5498 m 6xc0
 166 -12.9697 158.4 -37.1504 127.2 -37.1504 c 0
 106.136 -37.1504 61.2451 -3.34961 38.7998 -3.34961 c 0
 9.08496 -3.34961 -0 -29.9844 -0 -55.3496 c 1
 -0 159 l 1xc0
 8.73101 159.009 l 1
 15.5875 168.551 26.0328 172.15 38.7998 172.15 c 0
 61.2793 172.15 106.118 139.65 127.2 139.65 c 0
 135.686 139.65 142.533 141.751 147.977 145.365 c 5
 148 159 l 5
 166 159 l 5xa0
 166 13.5498 l 6xc0
EndSplineSet
EndChar

StartChar: AscendensOriscusLineTR
Encoding: 19 -1 19
Width: 166
VWidth: 2537
Flags: W
HStem: -37.1494 176.799<74.1345 154.636>
VStem: -0.200195 166.201<-3.28828 139.081> 148.027 17.973<141.255 159>
LayerCount: 2
Fore
SplineSet
148 159 m 1xa0
 166 159 l 1xa0
 166.001 13.5508 l 2
 166.001 -12.9688 158.201 -37.1494 127.001 -37.1494 c 0
 105.937 -37.1494 61.2451 -3.34961 38.7998 -3.34961 c 0
 9.08496 -3.34961 -0.200195 -29.9844 -0.200195 -55.3496 c 1
 -0.200195 121.45 l 2xc0
 -0.200195 160.06 15.4004 172.15 38.7998 172.15 c 0
 61.2793 172.15 106.118 139.65 127.2 139.65 c 0
 135.712 139.65 142.575 141.764 148.027 145.398 c 1
 148 159 l 1xa0
EndSplineSet
EndChar

StartChar: AscendensOriscusLineTRFlatBottom
Encoding: 20 -1 20
Width: 166
VWidth: 2537
Flags: HW
HStem: -37.1504 176.8<74.1705 154.644>
VStem: -0 166<-3.28925 139.65> 147.977 18.0227<141.245 159>
LayerCount: 2
Fore
SplineSet
166.2 13.5508 m 2
 166.2 -25.0586 150.6 -37.1494 127.2 -37.1494 c 0
 104.721 -37.1494 59.8818 -4.64941 38.7998 -4.64941 c 0
 9.58887 -4.64941 6 -15.4131 -0.200195 -24.3486 c 5
 -0.200195 121.45 l 2
 -0.200195 160.06 15.3994 172.15 38.7998 172.15 c 0
 61.2783 172.15 106.118 139.65 127.2 139.65 c 0
 135.686 139.65 142.533 141.751 147.977 145.365 c 1
 147.977 159 l 1
 166 159 l 1
 166.2 13.5508 l 2
EndSplineSet
EndChar

StartChar: AscendensPunctumInclinatum
Encoding: 21 -1 21
Width: 185
VWidth: 2612
Flags: HW
HStem: -59.373 255.694
VStem: -0.0930023 185.306
LayerCount: 2
Fore
SplineSet
185.213 60.3877 m 1
 80.7881 -59.373 l 1
 -0.0927734 75.1113 l 1
 105.192 196.321 l 1
 185.213 60.3877 l 1
EndSplineSet
EndChar

StartChar: AscendensPunctumInclinatum#Cavum
Encoding: 22 -1 22
Width: 185
VWidth: 2612
Flags: HW
HStem: -21.0186 178.986
VStem: 27.7031 129.714
LayerCount: 2
Fore
SplineSet
157.417 62.8135 m 1
 84.3193 -21.0186 l 1
 27.7031 73.1201 l 1
 101.402 157.967 l 1
 157.417 62.8135 l 1
EndSplineSet
EndChar

StartChar: AuctumMora
Encoding: 23 -1 23
Width: 71
VWidth: 2679
Flags: W
HStem: 47.75 71.5<2.80207 68.1979>
VStem: -0.25 71.5<50.7717 116.228>
LayerCount: 2
Fore
SplineSet
35.5 47.75 m 4
 17.4814 47.75 -0.25 62.8789 -0.25 83.5 c 4
 -0.25 104.155 17.4727 119.25 35.5 119.25 c 4
 53.5186 119.25 71.25 104.121 71.25 83.5 c 4
 71.25 62.8447 53.5273 47.75 35.5 47.75 c 4
EndSplineSet
Validated: 1
EndChar

StartChar: auctusa1
Encoding: 24 -1 24
Width: 166
VWidth: 2421
Flags: W
HStem: -52.8008 189.801<18.3153 130.792>
VStem: 0 166<-22.0945 137> 0 18<138.285 140.5>
LayerCount: 2
Fore
SplineSet
166 3.7002 m 5xc0
 139.165 -52.2061 47.1416 -52.8027 36.1143 -52.8027 c 2
 35.1006 -52.8008 l 2
 11.7002 -52.8008 0 -41.5332 0 -19 c 2xc0
 0 156 l 1
 14.5 155.75 4.5 156 18 156 c 1
 18 147.5 17.75 150.25 18 140.5 c 1xa0
 24.6963 138.133 33.3294 137 42.9004 137 c 0
 70.9697 137 152.649 146.594 166 200 c 5
 166 3.7002 l 5xc0
EndSplineSet
Validated: 1
EndChar

StartChar: auctusa1#Cavum
Encoding: 25 -1 25
Width: 166
VWidth: 2421
Flags: HW
HStem: -40 189.801<1.44824 130.792>
VStem: 0 166<-8.83884 149.801>
LayerCount: 2
Fore
SplineSet
147.74 14.501 m 1
 126.81 -29.1064 55.0303 -31.1172 46.4287 -31.1172 c 2
 45.6387 -31.1152 l 2
 25.3857 -31.0654 18.2598 -25.3262 18.2598 -4.75098 c 2
 18.2598 119.125 l 1
 26.668 116.661 33.8223 115.93 50.7227 115.93 c 1
 49.5205 116.077 98.8545 114.941 147.74 145.615 c 1
 147.74 14.501 l 1
166 200 m 1
166 200 m 1
EndSplineSet
EndChar

StartChar: auctusa1_op
Encoding: 26 -1 26
Width: 166
VWidth: 2421
Flags: HW
HStem: -52.8008 189.801<18.3153 131.141>
VStem: 0 18<138.285 140.5> 147.812 18.189<162.918 301.849>
LayerCount: 2
Fore
SplineSet
166 3.7002 m 1
 139.165 -52.2061 47.1416 -52.8027 36.1143 -52.8027 c 2
 35.1006 -52.8008 l 2
 11.7002 -52.8008 0 -41.5332 0 -19 c 2
 0 156 l 5
 14.5 155.75 4.5 156 18 156 c 5
 18 147.5 17.75 150.25 18 140.5 c 5
 24.6963 138.133 33.3294 137 42.9004 137 c 0
 64.608 137 118.379 142.738 147.812 170.041 c 1
 147.801 256 l 2
 147.801 301.24 149.101 302.8 154.301 302.8 c 1
 162.101 301.067 166.001 294.133 166.001 282 c 2
 166 3.7002 l 1
EndSplineSet
EndChar

StartChar: auctusa2
Encoding: 27 -1 27
Width: 166
VWidth: 2421
Flags: W
HStem: -42.8008 189.801<18.2237 131.074>
VStem: 0 166.4<-11.6396 147> 0 18<-61 -40.0765>
LayerCount: 2
Fore
SplineSet
166.4 14.3994 m 1xc0
 139.565 -41.5068 47.1416 -42.8027 36.1143 -42.8027 c 2
 35.1006 -42.8008 l 2
 28.4574 -42.8008 22.7572 -41.8927 18 -40.0765 c 1
 18 -54.5 18 -46 18 -61 c 1
 0 -61 l 2
 0 165.199 l 1xa0
 6.93359 153.066 21.2334 147 42.9004 147 c 0
 70.9697 147 153.049 157.293 166.4 210.699 c 1
 166.4 14.3994 l 1xc0
EndSplineSet
Validated: 1
EndChar

StartChar: auctusa2#Cavum
Encoding: 28 -1 28
Width: 166
VWidth: 2421
Flags: HW
HStem: -40 189.801<1.44824 130.792>
VStem: 0 166<-8.83884 149.801>
LayerCount: 2
Fore
SplineSet
147.74 25.501 m 1
 126.81 -18.1064 55.0303 -20.1172 46.4287 -20.1172 c 2
 45.6387 -20.1152 l 2
 25.3857 -20.0654 18.2598 -14.3262 18.2598 6.24902 c 2
 18.2598 130.125 l 1
 26.668 127.661 33.8223 126.93 50.7227 126.93 c 1
 49.5205 127.077 98.8545 125.941 147.74 156.615 c 1
 147.74 25.501 l 1
EndSplineSet
EndChar

StartChar: auctusa2_op
Encoding: 29 -1 29
Width: 166
VWidth: 2421
Flags: W
HStem: -42.8008 189.801<18.2237 130.885>
VStem: 0 18<-61 -40.0765> 148 18.375<173.351 301.906>
LayerCount: 2
Fore
SplineSet
148.175 256 m 2
 148.175 301.24 149.475 302.8 154.675 302.8 c 1
 162.475 301.067 166.375 294.133 166.375 282 c 2
 166.4 14.3994 l 1
 139.565 -41.5068 47.1416 -42.8027 36.1143 -42.8027 c 2
 35.1006 -42.8008 l 2
 28.4574 -42.8008 22.7572 -41.8927 18 -40.0765 c 1
 18 -54.5 18 -46 18 -61 c 1
 0 -61 l 2
 0 165.199 l 1
 6.93359 153.066 21.2334 147 42.9004 147 c 0
 64.5688 147 118.423 153.134 148 180.5 c 1
 148.175 256 l 2
EndSplineSet
Validated: 1
EndChar

StartChar: auctusd1
Encoding: 30 -1 30
Width: 166
VWidth: 2689
Flags: W
HStem: -7.40039 188.502<9.28505 128.518>
VStem: 0 166<-7.40039 148.326> 0 18<180 200>
LayerCount: 2
Fore
SplineSet
0 -26.9004 m 1xa0
 0 200 l 25
 18 200 l 25
 18 180 l 1xa0
 23 181 35.5557 181.102 35.7812 181.102 c 0
 46.873 181.102 140.057 178.208 166 122 c 1
 166 -73 l 1xc0
 152.126 -19.2393 69.7139 -7.40039 42.7012 -7.40039 c 0
 21.0342 -7.40039 6.93359 -13.9004 0 -26.9004 c 1xa0
EndSplineSet
Validated: 1
EndChar

StartChar: auctusd1#Cavum
Encoding: 31 -1 31
Width: 166
VWidth: 2689
Flags: HW
HStem: -40 189.801<1.44824 130.792>
VStem: 0 166<-8.83884 149.801>
LayerCount: 2
Fore
SplineSet
147.48 112.997 m 1
 147.48 -18.1172 l 1
 98.5947 12.5566 49.2607 11.4209 50.4629 11.5684 c 1
 33.5625 11.5684 26.4082 10.8369 18 8.37305 c 1
 18 132.249 l 2
 18 152.824 25.126 158.563 45.3789 158.613 c 2
 46.1689 158.615 l 2
 54.7705 158.615 126.55 156.604 147.48 112.997 c 1
EndSplineSet
EndChar

StartChar: auctusd1_op
Encoding: 32 -1 32
Width: 166
VWidth: 2689
Flags: W
HStem: -7.40039 188.502<9.28505 129.037>
VStem: 0 18<180 200> 147.8 18.2<-171.849 -35.6133>
LayerCount: 2
Fore
SplineSet
0 200 m 25
 18 200 l 25
 18 180 l 1
 23 181 35.5557 181.102 35.7812 181.102 c 0
 46.873 181.102 140.057 178.208 166 122 c 1
 166 -152 l 2
 166 -164.133 162.1 -171.067 154.3 -172.8 c 1
 149.1 -172.8 147.8 -171.24 147.8 -126 c 2
 148 -43.0813 l 1
 118.287 -14.5691 63.7212 -7.40039 42.7012 -7.40039 c 0
 21.0342 -7.40039 6.93359 -13.9004 0 -26.9004 c 1
 0 200 l 25
EndSplineSet
Validated: 1
EndChar

StartChar: BarBrace
Encoding: 33 -1 33
Width: 591
VWidth: 2048
Flags: W
HStem: 872 27<215.378 372.736>
VStem: 0.0927734 25.1474<682.006 718.741> 566.16 25.147<682.006 718.741>
LayerCount: 2
Fore
SplineSet
0.0927734 690.474 m 0
 0.0927734 692.251 0.458984 694.4 1.2998 697 c 0
 13.2695 734 95.3994 899 295.1 899 c 0
 489 899 578.13 734 590.1 697 c 0
 590.941 694.4 591.307 692.25 591.307 690.474 c 0
 591.307 682.081 583.15 682 578.406 682 c 2
 578.13 682 l 2
 572.46 682 571.363 690.378 566.16 700 c 0
 511 802 402 872 294.899 872 c 0
 182.399 872 80.3994 802 25.2402 700 c 0
 20.0371 690.378 18.9395 682 13.2695 682 c 2
 12.9932 682 l 2
 8.25 682 0.0927734 682.081 0.0927734 690.474 c 0
EndSplineSet
Validated: 1
EndChar

StartChar: BracketLeftBottom
Encoding: 34 -1 34
Width: 83
VWidth: 0
Flags: HW
LayerCount: 2
Fore
SplineSet
0 125 m 9
 18 125 l 29
 18 -139.5 l 25
 83 -139.5 l 25
 83 -157.5 l 25
 0 -157.5 l 17
 -0 -76.6666 0 44.1662 0 125 c 9
EndSplineSet
EndChar

StartChar: BracketLeftLine
Encoding: 35 -1 35
Width: 83
VWidth: 0
Flags: HW
LayerCount: 2
Fore
SplineSet
0 -85 m 25
 0 125 l 25
 18 125 l 29
 18 -85 l 25
 0 -85 l 25
EndSplineSet
EndChar

StartChar: BracketLeftTop
Encoding: 36 -1 36
Width: 83
VWidth: 0
Flags: HW
LayerCount: 2
Fore
SplineSet
0 32.5 m 29
 0 315 l 25
 83 315 l 25
 83 297 l 25
 18 297 l 25
 18 32.5 l 25
 0 32.5 l 29
EndSplineSet
EndChar

StartChar: BracketRightBottom
Encoding: 37 -1 37
Width: 83
VWidth: 0
Flags: HW
LayerCount: 2
Fore
SplineSet
83 125 m 29
 83 -157.5 l 25
 0 -157.5 l 25
 0 -139.5 l 25
 65 -139.5 l 25
 65 125 l 25
 83 125 l 29
EndSplineSet
EndChar

StartChar: BracketRightLine
Encoding: 38 -1 38
Width: 83
VWidth: 0
Flags: HW
LayerCount: 2
Fore
SplineSet
83 -85 m 29
 65 -85 l 25
 65 125 l 25
 83 125 l 25
 83 -85 l 29
EndSplineSet
EndChar

StartChar: BracketRightTop
Encoding: 39 -1 39
Width: 83
VWidth: 0
Flags: HW
LayerCount: 2
Fore
SplineSet
83 32.5 m 25
 65 32.5 l 25
 65 297 l 25
 0 297 l 25
 0 315 l 25
 83 315 l 25
 83 32.5 l 25
EndSplineSet
EndChar

StartChar: CClef
Encoding: 40 -1 40
Width: 166
VWidth: 2575
Flags: W
HStem: -39.5996 192.2<36.9298 152.193> 304.7 189.9<34.8655 150.742>
VStem: -0.200195 166.4<-3.22288 152.6 304.7 460.303> -0.200195 10.4004<201.003 257.437>
LayerCount: 2
Fore
SplineSet
107.7 -39.5996 m 4xe0
 42.9656 -38.7442 -0.200195 -2.36035 -0.200195 65.5 c 6
 -0.200195 391.8 l 6
 -0.200195 460.022 42.6433 495.592 107.7 494.6 c 4
 147 494 166.2 472 166.2 446.4 c 6
 166.2 270 l 5xe0
 155.8 279.1 l 6
 138.854 293.928 110.484 304.7 81.7002 304.7 c 4
 42.8398 304.7 10.2002 272.13 10.2002 229.3 c 4xd0
 10.2002 186.519 42.9111 152.6 81.7002 152.6 c 4
 111.34 152.6 139.125 162.308 155.8 176.9 c 5
 166.2 187.3 l 5
 166.2 9.59961 l 6
 166.2 -23 138 -40 107.7 -39.5996 c 4xe0
EndSplineSet
Validated: 33
EndChar

StartChar: CClefChange
Encoding: 41 -1 41
Width: 166
VWidth: 2575
Flags: W
HStem: -39.5996 192.2<36.9298 152.193> 304.7 189.9<34.8655 150.742>
VStem: -0.200195 166.4<-3.22288 152.6 304.7 460.303> -0.200195 10.4004<201.003 257.437>
LayerCount: 2
Fore
SplineSet
107.7 -39.5996 m 4xe0
 42.9656 -38.7442 -0.200195 -2.36035 -0.200195 65.5 c 6
 -0.200195 391.8 l 6
 -0.200195 460.022 42.6433 495.592 107.7 494.6 c 4
 147 494 166.2 472 166.2 446.4 c 6
 166.2 270 l 5xe0
 155.8 279.1 l 6
 138.854 293.928 110.484 304.7 81.7002 304.7 c 4
 42.8398 304.7 10.2002 272.13 10.2002 229.3 c 4xd0
 10.2002 186.519 42.9111 152.6 81.7002 152.6 c 4
 111.34 152.6 139.125 162.308 155.8 176.9 c 5
 166.2 187.3 l 5
 166.2 9.59961 l 6
 166.2 -23 138 -40 107.7 -39.5996 c 4xe0
EndSplineSet
Validated: 33
EndChar

StartChar: Circulus
Encoding: 42 -1 42
Width: 124
VWidth: 1594
Flags: W
HStem: -652.764 23.94 -150.024 23.94 352.716 23.94 855.456 23.94
LayerCount: 2
Fore
SplineSet
62 -33.5166 m 0
 79.5557 -33.5166 95.5166 -19.1514 95.5166 0 c 0
 95.5166 17.5557 81.1514 33.5166 62 33.5166 c 0
 44.4443 33.5166 28.4834 19.1514 28.4834 0 c 0
 28.4834 -17.5557 42.8486 -33.5166 62 -33.5166 c 0
62 62.2441 m 0
 95.5166 62.2441 124.244 36.708 124.244 0 c 0
 124.244 -33.5166 98.708 -62.2441 62 -62.2441 c 0
 28.4834 -62.2441 -0.244141 -36.708 -0.244141 0 c 0
 -0.244141 33.5166 25.292 62.2441 62 62.2441 c 0
EndSplineSet
Validated: 1
EndChar

StartChar: CurlyBrace
Encoding: 43 -1 43
Width: 1006
VWidth: 2048
Flags: W
HStem: 698 23.8<274.873 425.269 580.927 731.127> 717.6 25.2<81.6669 244.681 761.319 926.155>
LayerCount: 2
Fore
SplineSet
333.6 698 m 0x80
 252.4 698 200.6 717.6 129.2 717.6 c 0
 36.7998 717.6 17.2002 679.8 7.40039 679.8 c 0
 3.2002 679.8 0.400391 682.6 0.400391 686.8 c 0
 0.400391 693.8 59.2002 742.8 171.2 742.8 c 0x40
 256.6 742.8 309.8 721.8 384 721.8 c 0
 473.6 721.8 493.2 758.2 503 758.2 c 0
 511.4 758.2 533.8 721.8 622 721.8 c 0x80
 696.2 721.8 749.4 742.8 834.8 742.8 c 0
 948.2 742.8 1005.6 693.8 1005.6 686.8 c 0
 1005.6 682.6 1002.8 679.8 998.6 679.8 c 0
 988.8 679.8 969.2 717.6 876.8 717.6 c 0x40
 805.4 717.6 753.6 698 672.4 698 c 0
 610.8 698 550.6 710.6 503 748.4 c 1
 455.4 710.6 395.2 698 333.6 698 c 0x80
EndSplineSet
Validated: 1
EndChar

StartChar: CustosDownLong
Encoding: 44 -1 44
Width: 73
VWidth: 2463
Flags: W
VStem: 0 72.8008<-15.2002 164.055> 57.2002 15.6006<-368.778 -15.2002>
LayerCount: 2
Fore
SplineSet
57.2002 -15.2002 m 1x40
 28.5049 -15.2002 17.624 -18.376 0 -36 c 1
 0 143.399 l 2x80
 0 173.04 34.4521 188.374 72.8008 192.8 c 1
 72.8008 -337.601 l 2
 72.8008 -354.067 69.7676 -364.9 63.7002 -370.101 c 1
 59.3672 -370.101 57.2002 -363.168 57.2002 -349.301 c 2
 57.2002 -15.2002 l 1x40
EndSplineSet
Validated: 1
EndChar

StartChar: CustosDownMedium
Encoding: 45 -1 45
Width: 73
VWidth: 2412
Flags: W
VStem: 0 72.8008<-25.2002 154.056> 57.2002 15.6006<-285.451 -25.2002>
LayerCount: 2
Fore
SplineSet
57.2002 -25.2002 m 1x40
 28.5049 -25.2002 17.624 -28.376 0 -46 c 1
 0 133.4 l 2x80
 0 163.04 34.4512 178.38 72.8008 182.8 c 1
 72.8008 -253.2 l 6
 72.8008 -269.667 70.2002 -280.5 65 -285.7 c 5
 64.4531 -285.883 63.9355 -285.974 63.4453 -285.974 c 4
 59.2822 -285.974 57.2002 -279.383 57.2002 -266.2 c 6
 57.2002 -25.2002 l 1x40
EndSplineSet
Validated: 1
EndChar

StartChar: CustosDownShort
Encoding: 46 -1 46
Width: 73
VWidth: 2412
Flags: W
VStem: 0 72.8008<-25.2002 154.056> 57.2002 15.6006<-265.452 -25.2002>
LayerCount: 2
Fore
SplineSet
57.2002 -25.2002 m 5x40
 28.5049 -25.2002 17.624 -28.376 0 -46 c 5
 0 133.4 l 6x80
 0 163.04 34.4512 178.38 72.8008 182.8 c 5
 72.8008 -233.2 l 6
 72.8008 -249.667 70.2002 -260.5 65 -265.7 c 5
 64.4531 -265.883 63.9355 -265.974 63.4453 -265.974 c 4
 59.2822 -265.974 57.2002 -259.383 57.2002 -246.2 c 6
 57.2002 -25.2002 l 5x40
EndSplineSet
Validated: 1
EndChar

StartChar: CustosUpLong
Encoding: 47 -1 47
Width: 73
VWidth: 2609
Flags: W
VStem: 0 72.7979<-21.0046 158.6> 57.1992 15.5987<158.6 514.786>
LayerCount: 2
Fore
SplineSet
72.7979 -49.4014 m 1x40
 41.3506 -44.5635 0 -33.1045 0 0 c 2
 0 179.4 l 1x80
 17.7363 163.274 28.2617 158.6 57.1992 158.6 c 1
 57.1992 486.2 l 2
 57.1992 505.267 59.7998 514.8 65 514.8 c 0
 65.3398 514.83 65.6709 514.846 65.9932 514.846 c 0
 71.8838 514.846 74.8291 509.691 74.8291 499.382 c 0
 74.8291 494.439 74.1533 488.312 72.7979 480.999 c 1
 72.7979 -49.4014 l 1x40
EndSplineSet
Validated: 1
EndChar

StartChar: CustosUpMedium
Encoding: 48 -1 48
Width: 74
VWidth: 2660
Flags: W
VStem: 0 72.7979<-21.0042 158.6> 57.1982 15.5997<158.6 431.052>
LayerCount: 2
Fore
SplineSet
72.7979 -49.4004 m 1x40
 41.3506 -44.5605 0 -33.1045 0 0 c 2
 0 179.399 l 1x80
 17.7363 163.274 28.2607 158.6 57.1982 158.6 c 1
 57.1982 411.6 l 6
 57.1982 424.65 59.501 431.176 64.1074 431.176 c 4
 64.3955 431.176 64.6924 431.15 64.998 431.1 c 4
 70.1982 430.232 72.7979 419.399 72.7979 398.6 c 6
 72.7979 -49.4004 l 1x40
EndSplineSet
Validated: 1
EndChar

StartChar: CustosUpShort
Encoding: 49 -1 49
Width: 74
VWidth: 2660
Flags: W
VStem: 0 72.7979<-21.0042 158.6> 57.1982 15.5997<158.6 399.052>
LayerCount: 2
Fore
SplineSet
72.7979 -49.4004 m 5x40
 41.3506 -44.5605 0 -33.1045 0 0 c 6
 0 179.399 l 5x80
 17.7363 163.274 28.2607 158.6 57.1982 158.6 c 5
 57.1982 379.6 l 6
 57.1982 392.65 59.501 399.176 64.1074 399.176 c 4
 64.3955 399.176 64.6924 399.15 64.998 399.1 c 4
 70.1982 398.232 72.7979 387.399 72.7979 366.6 c 6
 72.7979 -49.4004 l 5x40
EndSplineSet
Validated: 1
EndChar

StartChar: deminutus
Encoding: 50 -1 50
Width: 83
VWidth: 2605
Flags: W
HStem: -15.3994 112.3<9.7355 63.4201>
VStem: 0 83<-4.99859 96.9004> 65 18<104.282 185>
LayerCount: 2
Fore
SplineSet
53.2998 -15.3994 m 4xc0
 23.5117 -15.3994 0 8.71387 0 34 c 6
 0 115.101 l 1xc0
 10.3994 102.968 24.667 97 42.8994 96.9004 c 0
 54.0078 96.8398 65 113.333 65 128 c 2
 65 185 l 1
 83 185 l 1xa0
 83 9.30078 l 6
 83 -5.51953 71.2393 -15.3994 53.2998 -15.3994 c 4xc0
EndSplineSet
Validated: 33
EndChar

StartChar: deminutus#Cavum
Encoding: 51 -1 51
Width: 83
VWidth: 2605
Flags: HW
HStem: -15.3994 112.3<9.7355 63.4201>
VStem: 0 83<-4.99859 96.9004> 65 18<104.282 185>
LayerCount: 2
Fore
SplineSet
65.1553 82 m 1
 65.1553 22.7656 l 2
 65.1553 14.3184 58.4512 8.68652 48.2256 8.68652 c 0xc0
 31.2471 8.68652 17.8447 25.4307 17.8447 39.8438 c 2
 17.8447 82 l 1xc0
 24.7725 75.085 31.9053 72.7539 42.2979 72.6973 c 0
 48.6299 72.6631 62.1553 73.6396 65.1553 82 c 1
EndSplineSet
EndChar

StartChar: DescendensOriscus
Encoding: 52 -1 52
Width: 166
VWidth: 2537
Flags: W
HStem: -37.1504 176.801<5.21408 91.8295>
VStem: -0.200195 166.4<-3.28925 139.081>
LayerCount: 2
Fore
SplineSet
38.7998 139.65 m 4
 59.8818 139.65 104.721 172.15 127.2 172.15 c 4
 150.6 172.15 166.2 160.06 166.2 121.45 c 6
 166.2 -55.3496 l 5
 166.2 -29.9844 156.915 -3.34961 127.2 -3.34961 c 4
 104.755 -3.34961 59.8643 -37.1504 38.7998 -37.1504 c 4
 7.59961 -37.1504 -0.200195 -12.9697 -0.200195 13.5498 c 6
 -0.200195 190.35 l 5
 -0.200195 164.545 9.58887 139.65 38.7998 139.65 c 4
EndSplineSet
EndChar

StartChar: DescendensOriscus#Cavum
Encoding: 53 -1 53
Width: 166
VWidth: 2537
Flags: W
HStem: -11.04 157.08
VStem: 20.5576 124.884<20.3702 115.738>
LayerCount: 2
Fore
SplineSet
60.2773 120.649 m 4
 75.4873 125.856 102.539 141.447 119.021 146.04 c 4
 136.337 150.865 145.441 136.966 145.441 107.989 c 6
 145.441 16.3018 l 5
 136.892 21.0879 125.81 21.8984 105.721 15.3281 c 4
 89.4834 10.0166 62.5137 -6.95801 46.9766 -11.04 c 4
 23.9316 -17.0947 20.5586 7.10742 20.5576 27.0098 c 6
 20.5576 119.649 l 5
 29.1074 116.433 40.6006 113.913 60.2773 120.649 c 4
EndSplineSet
EndChar

StartChar: DescendensOriscusFlatBottom
Encoding: 54 -1 54
Width: 166
VWidth: 2537
Flags: HW
HStem: -37.1504 176.801<5.21408 91.8295>
VStem: -0.200195 166.4<-3.28925 139.081>
LayerCount: 2
Fore
SplineSet
166.2 -24.3486 m 5
 160 -15.4131 156.411 -4.64941 127.2 -4.64941 c 0
 106.118 -4.64941 61.2793 -37.1494 38.7998 -37.1494 c 0
 15.4004 -37.1494 -0.200195 -25.0586 -0.200195 13.5508 c 2
 -0.200195 190.35 l 1
 -0.200195 164.545 9.58887 139.65 38.7998 139.65 c 0
 59.8818 139.65 104.721 172.15 127.2 172.15 c 0
 150.6 172.15 166.2 160.06 166.2 121.45 c 2
 166.2 -24.3486 l 5
EndSplineSet
EndChar

StartChar: DescendensOriscusFlattened
Encoding: 55 -1 55
Width: 166
VWidth: 2537
Flags: HW
HStem: -37.1504 176.801<5.21408 91.8295>
VStem: -0.200195 166.4<-3.28925 139.081>
LayerCount: 2
Fore
SplineSet
166.2 -24.3486 m 1
 160 -15.4131 156.411 -4.64941 127.2 -4.64941 c 0
 106.118 -4.64941 61.2793 -37.1494 38.7998 -37.1494 c 0
 15.4004 -37.1494 -0.200195 -25.0586 -0.200195 13.5508 c 2
 -0.200195 153.35 l 5
 6 144.414 9.58887 133.65 38.7998 133.65 c 4
 59.8818 133.65 104.721 166.15 127.2 166.15 c 4
 150.6 166.15 166.2 154.06 166.2 115.45 c 6
 166.2 -24.3486 l 1
EndSplineSet
EndChar

StartChar: DescendensOriscusFlattened#Cavum
Encoding: 56 -1 56
Width: 166
VWidth: 2537
Flags: HW
HStem: -11.04 157.08
VStem: 20.5576 124.883<20.3702 115.738>
LayerCount: 2
Fore
SplineSet
60.2773 113.649 m 0
 75.4873 118.856 102.539 135.447 119.021 140.04 c 0
 136.337 144.865 145.441 136.966 145.441 107.989 c 2
 145.441 16.3018 l 1
 136.892 21.0879 125.81 21.8984 105.721 15.3281 c 0
 89.4834 10.0166 62.5137 -6.95801 46.9766 -11.04 c 0
 23.9316 -17.0947 20.5586 7.10742 20.5576 27.0098 c 2
 20.5576 113.649 l 1
 29.1074 110.433 40.6006 106.913 60.2773 113.649 c 0
EndSplineSet
EndChar

StartChar: DescendensOriscusFlatTop
Encoding: 57 -1 57
Width: 166
VWidth: 2537
Flags: HW
HStem: -37.1504 176.801<5.21408 91.8295>
VStem: -0.200195 166.4<-3.28925 139.081>
LayerCount: 2
Fore
SplineSet
38.7998 133.65 m 4
 59.8818 133.65 104.721 166.15 127.2 166.15 c 4
 150.6 166.15 166.2 154.06 166.2 115.45 c 6
 166.2 -55.3496 l 1
 166.2 -29.9844 156.915 -3.34961 127.2 -3.34961 c 0
 104.755 -3.34961 59.8643 -37.1504 38.7998 -37.1504 c 0
 7.59961 -37.1504 -0.200195 -12.9697 -0.200195 13.5498 c 2
 -0.200195 153.35 l 5
 6 144.414 9.58887 133.65 38.7998 133.65 c 4
EndSplineSet
EndChar

StartChar: DescendensOriscusFlatTop#Cavum
Encoding: 58 -1 58
Width: 166
VWidth: 2537
Flags: W
HStem: -11.04 157.08
VStem: 20.5576 124.883<20.3702 115.738>
LayerCount: 2
Fore
SplineSet
60.2773 113.649 m 0
 75.4873 118.856 102.539 135.447 119.021 140.04 c 0
 136.337 144.865 145.441 136.966 145.441 107.989 c 2
 145.441 16.3018 l 1
 136.892 21.0879 125.81 21.8984 105.721 15.3281 c 0
 89.4834 10.0166 62.5137 -6.95801 46.9766 -11.04 c 0
 23.9316 -17.0947 20.5586 7.10742 20.5576 27.0098 c 2
 20.5576 113.649 l 1
 29.1074 110.433 40.6006 106.913 60.2773 113.649 c 0
EndSplineSet
EndChar

StartChar: DescendensOriscusLineBL
Encoding: 59 -1 59
Width: 166
VWidth: 2537
Flags: HW
HStem: -37.1504 176.801<5.21408 91.8295>
VStem: -0.200195 166.4<-3.28925 139.081>
LayerCount: 2
Fore
SplineSet
-0.200195 190 m 2
 -0.200195 164 9.58887 139.65 38.7998 139.65 c 0
 59.8818 139.65 104.721 172.15 127.2 172.15 c 0
 150.6 172.15 166.2 160.06 166.2 121.45 c 2
 166.2 -55.3496 l 2
 166.2 -29.9844 156.915 -3.34961 127.2 -3.34961 c 0
 104.755 -3.34961 59.8643 -37.1504 38.7998 -37.1504 c 0
 30.1962 -37.1504 23.372 -35.3117 18 -32.0922 c 1
 18 -65 l 1
 -0.200195 -65 l 1
 -0.200195 190 l 2
EndSplineSet
EndChar

StartChar: DescendensOriscusLineBLBR
Encoding: 60 -1 60
Width: 166
VWidth: 2537
Flags: W
HStem: -3.34961 175.5<73.1653 147.574>
VStem: 0 18<-74 -32.0938> 148 18<-53 -5.01182>
LayerCount: 2
Fore
SplineSet
166 -53 m 1
 148 -53 l 1
 148.014 -9.28125 l 1
 142.585 -5.54728 135.736 -3.34961 127.2 -3.34961 c 0
 104.755 -3.34961 59.8643 -37.1504 38.7998 -37.1504 c 0
 30.1975 -37.1504 23.3741 -35.3123 18.0025 -32.0938 c 1
 18 -74 l 5
 0 -74 l 5
 -0 190.35 l 1
 -0 164.545 9.58887 139.65 38.7998 139.65 c 0
 59.8818 139.65 104.721 172.15 127.2 172.15 c 0
 150.6 172.15 166 160.061 166 121.45 c 2
 166 -53 l 1
EndSplineSet
EndChar

StartChar: DescendensOriscusLineBLFlatBottom
Encoding: 61 -1 61
Width: 166
VWidth: 2537
Flags: HW
HStem: -37.1504 176.8<18.5863 91.8248>
VStem: -0.00488281 17.9951<-74 -32.1039>
LayerCount: 2
Fore
SplineSet
-0.200195 190 m 2
 -0.200195 164 9.58887 139.65 38.7998 139.65 c 0
 59.8818 139.65 104.721 172.15 127.2 172.15 c 0
 150.6 172.15 166.2 160.06 166.2 121.45 c 2
 166.2 -24.3486 l 5
 160 -15.4131 156.411 -4.64941 127.2 -4.64941 c 0
 106.118 -4.64941 61.2793 -37.1494 38.7998 -37.1494 c 0
 30.8695 -37.1494 23.835 -35.7607 18 -32.4216 c 1
 18 -74 l 1
 -0.200195 -74 l 1
 -0.200195 190 l 2
EndSplineSet
EndChar

StartChar: DescendensOriscusLineBLTR
Encoding: 62 -1 62
Width: 166
VWidth: 2537
Flags: W
HStem: -37.1504 176.8<18.5863 91.8248>
VStem: 0 18<-74 -32.1039>
LayerCount: 2
Fore
SplineSet
0 190.35 m 1
 0 164.545 9.58887 139.65 38.7998 139.65 c 0
 59.8818 139.65 104.721 172.15 127.2 172.15 c 0
 139.982 172.15 150.436 168.543 157.292 158.977 c 1
 166 159 l 1
 166 -55.3506 l 1
 166 -29.9854 156.915 -3.34961 127.2 -3.34961 c 0
 104.755 -3.34961 59.8643 -37.1504 38.7998 -37.1504 c 0
 30.2066 -37.1504 23.3885 -35.3161 18.0195 -32.1039 c 1
 18 -74 l 1
 0 -74 l 1
 0 190.35 l 1
EndSplineSet
EndChar

StartChar: DescendensOriscusLineBR
Encoding: 63 -1 63
Width: 168
VWidth: 2612
Flags: W
HStem: -30.1504 176.8<5.78677 94.3102>
VStem: 0 168<0.28034 145.666> 150 18<-49 -2.48521>
LayerCount: 2
Fore
SplineSet
42.7998 -30.1504 m 0xa0
 11.5996 -30.1504 0 -6.01953 0 20.5 c 2
 0 187 l 1
 0 173 11.5996 146.65 42.7998 146.65 c 0
 73.1924 146.65 97.5713 179.15 128.2 179.15 c 0
 151.6 179.15 168 166.609 168 128 c 2xc0
 168 -49 l 1
 155 -49 160.5 -49 150 -49 c 1
 150 -20 150 -43 150 -7.5 c 1
 144.224 -3.0293 137.585 -0.349609 128.2 -0.349609 c 0
 99.4707 -0.349609 69.3203 -30.1504 42.7998 -30.1504 c 0xa0
EndSplineSet
Validated: 1
EndChar

StartChar: DescendensOriscusLineBRFlatTop
Encoding: 64 -1 64
Width: 166
VWidth: 2537
Flags: HW
HStem: -3.34961 175.5<73.1653 147.574>
VStem: 0 18<-74 -32.0938> 148 18<-53 -5.01182>
LayerCount: 2
Fore
SplineSet
166.2 -53 m 1
 148 -53 l 1
 147.945 -9.23414 l 1
 142.528 -5.5288 135.7 -3.34961 127.2 -3.34961 c 0
 104.755 -3.34961 59.8643 -37.1504 38.7998 -37.1504 c 0
 7.59961 -37.1504 -0.200195 -12.9697 -0.200195 13.5498 c 2
 -0.200195 153.35 l 5
 6 144.414 9.58887 133.65 38.7998 133.65 c 4
 59.8818 133.65 104.721 166.15 127.2 166.15 c 4
 150.6 166.15 166.2 154 166.2 115 c 6
 166.2 -53 l 1
EndSplineSet
EndChar

StartChar: DescendensOriscusLineTL
Encoding: 65 -1 65
Width: 166
VWidth: 2537
Flags: HW
HStem: -37.1504 176.8<11.3309 91.8296>
VStem: 0 166.2<-3.28925 139.081> 0 17.9727<141.255 159>
LayerCount: 2
Fore
SplineSet
18 159 m 1xa0
 18 145 l 1xa0
 23 141 30.2881 139.65 38.7998 139.65 c 0
 59.8818 139.65 104.721 172.15 127.2 172.15 c 0
 150.6 172.15 166.2 160.06 166.2 121.45 c 2
 166.2 -55.3496 l 1
 166.2 -29.9844 156.915 -3.34961 127.2 -3.34961 c 0
 104.755 -3.34961 59.8643 -37.1504 38.7998 -37.1504 c 0
 7.59961 -37.1504 0 -12.9697 0 13.5498 c 2xc0
 -0 159 l 1
 18 159 l 1xa0
EndSplineSet
EndChar

StartChar: DescendensOriscusLineTLBR
Encoding: 66 -1 66
Width: 166
VWidth: 2537
Flags: W
HStem: -3.34961 175.5<73.1653 147.56>
VStem: -0 17.9727<141.255 159> 148 18<-74 -5.00648>
LayerCount: 2
Fore
SplineSet
165.999 121.45 m 2
 166 -74 l 1
 148 -74 l 1
 147.987 -9.2627 l 1
 142.562 -5.54004 135.722 -3.34961 127.2 -3.34961 c 0
 104.755 -3.34961 59.8643 -37.1504 38.7998 -37.1504 c 0
 7.59961 -37.1504 0 -12.9697 0 13.5498 c 2
 -0 159 l 1
 18 159 l 1
 17.9727 145.398 l 1
 23.4248 141.764 30.2881 139.65 38.7998 139.65 c 0
 59.8818 139.65 104.721 172.15 127.2 172.15 c 0
 150.6 172.15 165.999 160.061 165.999 121.45 c 2
EndSplineSet
EndChar

StartChar: DescendensOriscusLineTLFlatBottom
Encoding: 67 -1 67
Width: 166
VWidth: 2537
Flags: HW
HStem: -37.1504 176.8<11.3309 91.8296>
VStem: 0 166.2<-3.28925 139.081> 0 17.9727<141.255 159>
LayerCount: 2
Fore
SplineSet
-0.200195 159 m 1
 18 159 l 1
 18 145.38 l 1
 23.4477 141.757 30.3019 139.65 38.7998 139.65 c 0
 59.8818 139.65 104.721 172.15 127.2 172.15 c 0
 150.6 172.15 166.2 160.06 166.2 121.45 c 2
 166.2 -24.3486 l 5
 160 -15.4131 156.411 -4.64941 127.2 -4.64941 c 0
 106.118 -4.64941 61.2793 -37.1494 38.7998 -37.1494 c 0
 15.4004 -37.1494 -0.200195 -25 -0.200195 14 c 2
 -0.200195 159 l 1
EndSplineSet
EndChar

StartChar: DescendensOriscusLineTLTR
Encoding: 68 -1 68
Width: 166
VWidth: 2537
Flags: W
HStem: -37.1504 176.8<11.3528 91.8296>
VStem: -0.000976562 166.001<-3.28925 139.65> -0 18.0174<141.246 159>
LayerCount: 2
Fore
SplineSet
-0 159 m 1xa0
 18 159 l 1
 18.0174 145.369 l 1xa0
 23.4622 141.752 30.3109 139.65 38.7998 139.65 c 0
 59.8818 139.65 104.721 172.15 127.2 172.15 c 0
 139.982 172.15 150.436 168.543 157.292 158.977 c 1
 166 159 l 1
 166 -55.3506 l 1
 166 -29.9854 156.915 -3.34961 127.2 -3.34961 c 0
 104.755 -3.34961 59.8643 -37.1504 38.7998 -37.1504 c 0
 7.59961 -37.1504 -0.000976562 -12.9697 -0.000976562 13.5498 c 2xc0
 -0 159 l 1xa0
EndSplineSet
EndChar

StartChar: DescendensOriscusLineTR
Encoding: 69 -1 69
Width: 166
VWidth: 2537
Flags: HW
HStem: -3.34961 175.5<73.1653 158.625>
VStem: -0.200195 166.2<-3.28925 13.5498>
LayerCount: 2
Fore
SplineSet
166 159 m 1
 166 -55.3506 l 1
 166 -29.9854 156.915 -3.34961 127.2 -3.34961 c 0
 104.755 -3.34961 59.8643 -37.1504 38.7998 -37.1504 c 0
 7.59961 -37.1504 -0.200195 -12.9697 -0.200195 13.5498 c 2
 -0.200195 190.35 l 1
 -0.200195 164.545 9.58887 139.65 38.7998 139.65 c 0
 59.8818 139.65 104.721 172.15 127.2 172.15 c 0
 139.982 172.15 150.436 168.543 157.292 158.977 c 1
 166 159 l 1
EndSplineSet
EndChar

StartChar: DescendensOriscusLineTRFlatTop
Encoding: 70 -1 70
Width: 166
VWidth: 2537
Flags: HW
HStem: -37.1504 176.8<74.1705 154.644>
VStem: -0 165.999<-3.28925 139.65> 147.976 18.0213<141.245 159>
LayerCount: 2
Fore
SplineSet
166.2 -55 m 6
 166.2 -30 156.915 -3.34961 127.2 -3.34961 c 0
 104.755 -3.34961 59.8643 -37.1504 38.7998 -37.1504 c 0
 7.59961 -37.1504 -0.200195 -12.9697 -0.200195 13.5498 c 2
 -0.200195 153.35 l 1
 6 144.414 9.58886 133.65 38.7998 133.65 c 0
 59.8818 133.65 104.721 166.15 127.2 166.15 c 0
 136.831 166.15 145.14 164.102 151.585 159 c 1
 166.2 159 l 5
 166.2 -55 l 6
EndSplineSet
EndChar

StartChar: DescendensPunctumInclinatum
Encoding: 71 -1 71
Width: 185
VWidth: 2612
Flags: W
HStem: -59.373 255.694
VStem: -0.0927734 185.306
LayerCount: 2
Fore
SplineSet
-0.0927734 60.3877 m 1
 79.9277 196.321 l 1
 185.213 75.1113 l 1
 104.332 -59.373 l 1
 -0.0927734 60.3877 l 1
EndSplineSet
Validated: 1
EndChar

StartChar: DescendensPunctumInclinatum#Cavum
Encoding: 72 -1 72
Width: 185
VWidth: 2612
Flags: W
HStem: -21.0186 178.986
VStem: 27.7031 129.714
LayerCount: 2
Fore
SplineSet
27.7031 62.8135 m 1
 83.7178 157.967 l 1
 157.417 73.1201 l 1
 100.801 -21.0186 l 1
 27.7031 62.8135 l 1
EndSplineSet
EndChar

StartChar: DivisioDominican
Encoding: 73 -1 73
Width: 18
VWidth: 2048
Flags: W
VStem: 0 18<-94 381.034>
LayerCount: 2
Fore
SplineSet
0 -94 m 25
 0 377 l 17
 2.66699 380.667 10.6667 382.333 18 383 c 9
 18 -94 l 25
 0 -94 l 25
EndSplineSet
Validated: 1
EndChar

StartChar: DivisioDominicanAlt
Encoding: 74 -1 74
Width: 18
VWidth: 2048
Flags: W
VStem: 0 18<-240.248 236>
LayerCount: 2
Fore
SplineSet
0 -237 m 9
 0 236 l 25
 18 236 l 25
 18 -241 l 17
 11.6489 -241.01 3.25 -240.75 0 -237 c 9
EndSplineSet
Validated: 1
EndChar

StartChar: DivisioMaiorTwo
Encoding: 75 -1 75
Width: 19
VWidth: 2048
Flags: W
HStem: -408.997 329.996
VStem: 0 19<-408.997 -79.001>
LayerCount: 2
Fore
SplineSet
0 -79.001 m 29
 19 -79 l 29
 19 -408.997 l 25
 0 -409.002 l 25
 0 -79.001 l 29
EndSplineSet
EndChar

StartChar: DivisioMaiorThree
Encoding: 76 -1 76
Width: 19
VWidth: 2048
Flags: W
VStem: 0 19<-408.997 235.999>
LayerCount: 2
Fore
SplineSet
0 235.999 m 29
 19 236 l 29
 19 -408.997 l 25
 0 -409.002 l 25
 0 235.999 l 29
EndSplineSet
EndChar

StartChar: DivisioMaiorFour
Encoding: 77 -1 77
Width: 19
VWidth: 2048
Flags: W
VStem: 0 19<-408.997 550.999>
LayerCount: 2
Fore
SplineSet
0 550.999 m 29
 19 551 l 25
 19 -408.997 l 25
 0 -409.002 l 25
 0 550.999 l 29
EndSplineSet
Validated: 1
EndChar

StartChar: DivisioMaiorFive
Encoding: 78 -1 78
Width: 19
VWidth: 2048
Flags: W
VStem: 0 19<-408.997 865.999>
LayerCount: 2
Fore
SplineSet
0 865.999 m 29
 19 866 l 29
 19 -408.997 l 25
 0 -409.002 l 25
 0 865.999 l 29
EndSplineSet
EndChar

StartChar: DivisioMaiorDottedTwo
Encoding: 79 -1 79
Width: 19
VWidth: 2048
Flags: HW
HStem: -408.997 329.996
VStem: 0 19<-408.997 -79.001>
LayerCount: 2
Fore
SplineSet
0 -424.001 m 29
 19 -424 l 29
 19 -463.997 l 29
 0 -464.002 l 29
 0 -424.001 l 29
0 -344.001 m 25
 19 -344 l 25
 19 -383.997 l 25
 0 -384.002 l 25
 0 -344.001 l 25
0 -264.001 m 25
 19 -264 l 25
 19 -303.997 l 25
 0 -304.002 l 25
 0 -264.001 l 25
0 -184.001 m 25
 19 -184 l 25
 19 -223.997 l 25
 0 -224.002 l 25
 0 -184.001 l 25
0 -104.001 m 25
 19 -104 l 25
 19 -143.997 l 25
 0 -144.002 l 25
 0 -104.001 l 25
0 -24.001 m 25
 19 -24 l 25
 19 -63.9971 l 25
 0 -64.002 l 25
 0 -24.001 l 25
EndSplineSet
EndChar

StartChar: DivisioMaiorDottedThree
Encoding: 80 -1 80
Width: 19
VWidth: 2048
Flags: HW
VStem: 0 19<-408.997 235.999>
LayerCount: 2
Fore
SplineSet
0 293.499 m 25
 19 293.5 l 25
 19 253.503 l 25
 0 253.498 l 25
 0 293.499 l 25
0 213.499 m 25
 19 213.5 l 25
 19 173.503 l 25
 0 173.498 l 25
 0 213.499 l 25
0 133.499 m 25
 19 133.5 l 25
 19 93.5029 l 25
 0 93.498 l 25
 0 133.499 l 25
0 53.499 m 25
 19 53.5 l 25
 19 13.5029 l 25
 0 13.498 l 25
 0 53.499 l 25
0 -26.501 m 25
 19 -26.5 l 25
 19 -66.4971 l 25
 0 -66.502 l 25
 0 -26.501 l 25
0 -106.501 m 25
 19 -106.5 l 25
 19 -146.497 l 25
 0 -146.502 l 25
 0 -106.501 l 25
0 -186.501 m 25
 19 -186.5 l 25
 19 -226.497 l 25
 0 -226.502 l 25
 0 -186.501 l 25
0 -266.501 m 25
 19 -266.5 l 25
 19 -306.497 l 25
 0 -306.502 l 25
 0 -266.501 l 25
0 -346.501 m 25
 19 -346.5 l 25
 19 -386.497 l 25
 0 -386.502 l 25
 0 -346.501 l 25
0 -426.501 m 25
 19 -426.5 l 25
 19 -466.497 l 25
 0 -466.502 l 25
 0 -426.501 l 25
EndSplineSet
EndChar

StartChar: DivisioMaiorDottedFour
Encoding: 81 -1 81
Width: 19
VWidth: 2048
Flags: HW
VStem: 0 19<-408.997 550.999>
LayerCount: 2
Fore
SplineSet
0 -429.001 m 29
 19 -429 l 29
 19 -468.997 l 29
 0 -469.002 l 29
 0 -429.001 l 29
0 -349.001 m 25
 19 -349 l 25
 19 -388.997 l 25
 0 -389.002 l 25
 0 -349.001 l 25
0 -269.001 m 25
 19 -269 l 25
 19 -308.997 l 25
 0 -309.002 l 25
 0 -269.001 l 25
0 -189.001 m 25
 19 -189 l 25
 19 -228.997 l 25
 0 -229.002 l 25
 0 -189.001 l 25
0 -109.001 m 25
 19 -109 l 25
 19 -148.997 l 25
 0 -149.002 l 25
 0 -109.001 l 25
0 -29.001 m 25
 19 -29 l 25
 19 -68.9971 l 25
 0 -69.002 l 25
 0 -29.001 l 25
0 50.999 m 25
 19 51 l 25
 19 11.0029 l 25
 0 10.998 l 25
 0 50.999 l 25
0 130.999 m 25
 19 131 l 25
 19 91.0029 l 25
 0 90.998 l 25
 0 130.999 l 25
0 210.999 m 25
 19 211 l 25
 19 171.003 l 25
 0 170.998 l 25
 0 210.999 l 25
0 290.999 m 25
 19 291 l 25
 19 251.003 l 25
 0 250.998 l 25
 0 290.999 l 25
0 370.999 m 25
 19 371 l 25
 19 331.003 l 25
 0 330.998 l 25
 0 370.999 l 25
0 450.999 m 25
 19 451 l 25
 19 411.003 l 25
 0 410.998 l 25
 0 450.999 l 25
0 530.999 m 25
 19 531 l 25
 19 491.003 l 25
 0 490.998 l 25
 0 530.999 l 25
0 610.999 m 25
 19 611 l 25
 19 571.003 l 25
 0 570.998 l 25
 0 610.999 l 25
EndSplineSet
EndChar

StartChar: DivisioMaiorDottedFive
Encoding: 82 -1 82
Width: 19
VWidth: 2048
Flags: HW
VStem: 0 19<-408.997 865.999>
LayerCount: 2
Fore
SplineSet
0 928.499 m 25
 19 928.5 l 25
 19 888.503 l 25
 0 888.498 l 25
 0 928.499 l 25
0 848.499 m 25
 19 848.5 l 25
 19 808.503 l 25
 0 808.498 l 25
 0 848.499 l 25
0 768.499 m 25
 19 768.5 l 25
 19 728.503 l 25
 0 728.498 l 25
 0 768.499 l 25
0 688.499 m 25
 19 688.5 l 25
 19 648.503 l 25
 0 648.498 l 25
 0 688.499 l 25
0 608.499 m 25
 19 608.5 l 25
 19 568.503 l 25
 0 568.498 l 25
 0 608.499 l 25
0 528.499 m 25
 19 528.5 l 25
 19 488.503 l 25
 0 488.498 l 25
 0 528.499 l 25
0 448.499 m 25
 19 448.5 l 25
 19 408.503 l 25
 0 408.498 l 25
 0 448.499 l 25
0 368.499 m 25
 19 368.5 l 25
 19 328.503 l 25
 0 328.498 l 25
 0 368.499 l 25
0 288.499 m 25
 19 288.5 l 25
 19 248.503 l 25
 0 248.498 l 25
 0 288.499 l 25
0 208.499 m 25
 19 208.5 l 25
 19 168.503 l 25
 0 168.498 l 25
 0 208.499 l 25
0 128.499 m 25
 19 128.5 l 25
 19 88.5029 l 25
 0 88.498 l 25
 0 128.499 l 25
0 48.499 m 25
 19 48.5 l 25
 19 8.50293 l 25
 0 8.49805 l 25
 0 48.499 l 25
0 -31.501 m 25
 19 -31.5 l 25
 19 -71.4971 l 25
 0 -71.502 l 25
 0 -31.501 l 25
0 -111.501 m 25
 19 -111.5 l 25
 19 -151.497 l 25
 0 -151.502 l 25
 0 -111.501 l 25
0 -191.501 m 25
 19 -191.5 l 25
 19 -231.497 l 25
 0 -231.502 l 25
 0 -191.501 l 25
0 -271.501 m 25
 19 -271.5 l 25
 19 -311.497 l 25
 0 -311.502 l 25
 0 -271.501 l 25
0 -351.501 m 25
 19 -351.5 l 25
 19 -391.497 l 25
 0 -391.502 l 25
 0 -351.501 l 25
0 -431.501 m 25
 19 -431.5 l 25
 19 -471.497 l 25
 0 -471.502 l 25
 0 -431.501 l 25
EndSplineSet
EndChar

StartChar: DivisioMaiorDottedBackingTwo
Encoding: 83 -1 83
Width: 19
VWidth: 2048
Flags: HW
HStem: -408.997 329.996
VStem: 0 19<-408.997 -79.001>
LayerCount: 2
Fore
SplineSet
-30 0.999023 m 25
 49 1 l 25
 49 -488.997 l 29
 -30 -489.002 l 29
 -30 0.999023 l 25
EndSplineSet
EndChar

StartChar: DivisioMaiorDottedBackingThree
Encoding: 84 -1 84
Width: 19
VWidth: 2048
Flags: HW
VStem: 0 19<-408.997 235.999>
LayerCount: 2
Fore
SplineSet
-30 315.999 m 25
 49 316 l 25
 49 -488.997 l 29
 -30 -489.002 l 29
 -30 315.999 l 25
EndSplineSet
EndChar

StartChar: DivisioMaiorDottedBackingFour
Encoding: 85 -1 85
Width: 19
VWidth: 2048
Flags: HW
VStem: 0 19<-408.997 550.999>
LayerCount: 2
Fore
SplineSet
-30 630.999 m 25
 49 631 l 25
 49 -488.997 l 29
 -30 -489.002 l 29
 -30 630.999 l 25
EndSplineSet
EndChar

StartChar: DivisioMaiorDottedBackingFive
Encoding: 86 -1 86
Width: 19
VWidth: 2048
Flags: HW
VStem: 0 19<-408.997 865.999>
LayerCount: 2
Fore
SplineSet
-30 945.999 m 25
 49 946 l 25
 49 -488.997 l 29
 -30 -489.002 l 29
 -30 945.999 l 25
EndSplineSet
EndChar

StartChar: DivisioMinimaTwo
Encoding: 87 -1 87
Width: 19
VWidth: 1418
Flags: HW
HStem: -265.569 318.553
VStem: 0 19<-264.028 52.984>
LayerCount: 2
Fore
SplineSet
0 -258.872 m 13
 0 52.9844 l 29
 18.999 53.0215 l 29
 19 -265.569 l 21
 6.04395 -265.435 2.43457 -262.391 0 -258.872 c 13
EndSplineSet
EndChar

StartChar: DivisioMinimaThree
Encoding: 88 -1 88
Width: 19
VWidth: 1733
Flags: HW
HStem: 49.431 318.553
VStem: 0 19<50.972 367.984>
LayerCount: 2
Fore
SplineSet
0 56.1279 m 13
 0 367.984 l 29
 18.999 368.021 l 29
 19 49.4307 l 21
 6.04395 49.5654 2.43457 52.6094 0 56.1279 c 13
EndSplineSet
EndChar

StartChar: DivisioMinimaFour
Encoding: 89 -1 89
AltUni2: 000050.ffffffff.0
Width: 19
VWidth: 2048
Flags: W
HStem: 364.431 318.553
VStem: 0 19<365.972 682.984>
LayerCount: 2
Fore
SplineSet
0 371.128 m 13
 0 682.984 l 29
 18.999 683.021 l 29
 19 364.431 l 21
 6.04395 364.565 2.43457 367.609 0 371.128 c 13
EndSplineSet
Validated: 1
EndChar

StartChar: DivisioMinimaFive
Encoding: 90 -1 90
Width: 19
VWidth: 2363
Flags: HW
HStem: 679.431 318.553
VStem: 0 19<680.972 997.984>
LayerCount: 2
Fore
SplineSet
0 686.128 m 13
 0 997.984 l 29
 18.999 998.021 l 29
 19 679.431 l 21
 6.04395 679.565 2.43457 682.609 0 686.128 c 13
EndSplineSet
EndChar

StartChar: DivisioMinimaSix
Encoding: 91 -1 91
Width: 19
VWidth: 2678
Flags: HW
HStem: 994.431 318.553
VStem: 0 19<995.972 1312.98>
LayerCount: 2
Fore
SplineSet
0 1001.13 m 13
 0 1312.98 l 29
 18.999 1313.02 l 29
 19 994.431 l 21
 6.04395 994.565 2.43457 997.609 0 1001.13 c 13
EndSplineSet
EndChar

StartChar: DivisioMinimaParenTwo
Encoding: 92 -1 92
Width: 259
VWidth: 1418
Flags: W
VStem: 0 18<-162.059 -50.513> 120 19<-264.028 52.9844> 241 18<-162.059 -50.513>
CounterMasks: 1 e0
LayerCount: 2
Fore
SplineSet
181 -275.569 m 5
 181 -275.569 241 -191.333 241 -106.29 c 4
 241 -21.2354 181.001 63.0215 181.001 63.0215 c 5
 181.001 63.0215 182.476 65.5684 184 66.5215 c 28
 185.727 67.6006 189.001 68.0215 189.001 68.0215 c 5
 189.001 68.0215 259 -18.0322 259 -106.29 c 4
 259 -194.537 189 -280.569 189 -280.569 c 5
 189 -280.569 185.727 -280.148 184 -279.069 c 28
 182.476 -278.116 181 -275.569 181 -275.569 c 5
78 -275.569 m 5
 78 -275.569 76.5244 -278.116 75 -279.069 c 28
 73.2734 -280.148 70 -280.569 70 -280.569 c 5
 70 -280.569 0 -194.537 0 -106.29 c 4
 0 -18.0322 69.999 68.0215 69.999 68.0215 c 5
 69.999 68.0215 73.2734 67.6006 75 66.5215 c 28
 76.5244 65.5684 77.999 63.0215 77.999 63.0215 c 5
 77.999 63.0215 18 -21.2354 18 -106.29 c 4
 18 -191.333 78 -275.569 78 -275.569 c 5
120 -258.872 m 9
 120 52.9844 l 25
 138.999 53.0215 l 25
 139 -265.569 l 17
 126.044 -265.435 122.435 -262.391 120 -258.872 c 9
EndSplineSet
EndChar

StartChar: DivisioMinimaParenThree
Encoding: 93 -1 93
Width: 251
VWidth: 1733
Flags: W
VStem: -8 18<152.941 264.487> 112 19<50.9717 367.984> 233 18<152.941 264.487>
CounterMasks: 1 e0
LayerCount: 2
Fore
SplineSet
173 39.4307 m 1
 173 39.4307 233 123.667 233 208.71 c 0
 233 293.765 173.001 378.021 173.001 378.021 c 1
 173.001 378.021 174.476 380.568 176 381.521 c 24
 177.727 382.601 181.001 383.021 181.001 383.021 c 1
 181.001 383.021 251 296.968 251 208.71 c 0
 251 120.463 181 34.4307 181 34.4307 c 1
 181 34.4307 177.727 34.8516 176 35.9307 c 24
 174.476 36.8838 173 39.4307 173 39.4307 c 1
70 39.4307 m 1
 70 39.4307 68.5244 36.8838 67 35.9307 c 24
 65.2734 34.8516 62 34.4307 62 34.4307 c 1
 62 34.4307 -8 120.463 -8 208.71 c 0
 -8 296.968 61.999 383.021 61.999 383.021 c 1
 61.999 383.021 65.2734 382.601 67 381.521 c 24
 68.5244 380.568 69.999 378.021 69.999 378.021 c 1
 69.999 378.021 10 293.765 10 208.71 c 0
 10 123.667 70 39.4307 70 39.4307 c 1
112 56.1279 m 9
 112 367.984 l 25
 130.999 368.021 l 25
 131 49.4307 l 17
 118.044 49.5654 114.435 52.6094 112 56.1279 c 9
EndSplineSet
EndChar

StartChar: DivisioMinimaParenFour
Encoding: 94 -1 94
Width: 251
VWidth: 2048
Flags: W
VStem: -8 18<467.941 579.487> 112 19<365.972 682.984> 233 18<467.941 579.487>
CounterMasks: 1 e0
LayerCount: 2
Fore
SplineSet
173 354.431 m 1
 173 354.431 233 438.667 233 523.71 c 0
 233 608.765 173.001 693.021 173.001 693.021 c 1
 173.001 693.021 174.476 695.568 176 696.521 c 24
 177.727 697.601 181.001 698.021 181.001 698.021 c 1
 181.001 698.021 251 611.968 251 523.71 c 0
 251 435.463 181 349.431 181 349.431 c 1
 181 349.431 177.727 349.852 176 350.931 c 24
 174.476 351.884 173 354.431 173 354.431 c 1
70 354.431 m 1
 70 354.431 68.5244 351.884 67 350.931 c 24
 65.2734 349.852 62 349.431 62 349.431 c 1
 62 349.431 -8 435.463 -8 523.71 c 0
 -8 611.968 61.999 698.021 61.999 698.021 c 1
 61.999 698.021 65.2734 697.601 67 696.521 c 24
 68.5244 695.568 69.999 693.021 69.999 693.021 c 1
 69.999 693.021 10 608.765 10 523.71 c 0
 10 438.667 70 354.431 70 354.431 c 1
112 371.128 m 9
 112 682.984 l 25
 130.999 683.021 l 25
 131 364.431 l 17
 118.044 364.565 114.435 367.609 112 371.128 c 9
EndSplineSet
EndChar

StartChar: DivisioMinimaParenFive
Encoding: 95 -1 95
Width: 251
VWidth: 2363
Flags: W
VStem: -8 18<782.941 894.487> 112 19<680.972 997.984> 233 18<782.941 894.487>
CounterMasks: 1 e0
LayerCount: 2
Fore
SplineSet
173 669.431 m 1
 173 669.431 233 753.667 233 838.71 c 0
 233 923.765 173.001 1008.02 173.001 1008.02 c 1
 173.001 1008.02 174.476 1010.57 176 1011.52 c 24
 177.727 1012.6 181.001 1013.02 181.001 1013.02 c 1
 181.001 1013.02 251 926.968 251 838.71 c 0
 251 750.463 181 664.431 181 664.431 c 1
 181 664.431 177.727 664.852 176 665.931 c 24
 174.476 666.884 173 669.431 173 669.431 c 1
70 669.431 m 1
 70 669.431 68.5244 666.884 67 665.931 c 24
 65.2734 664.852 62 664.431 62 664.431 c 1
 62 664.431 -8 750.463 -8 838.71 c 0
 -8 926.968 61.999 1013.02 61.999 1013.02 c 1
 61.999 1013.02 65.2734 1012.6 67 1011.52 c 24
 68.5244 1010.57 69.999 1008.02 69.999 1008.02 c 1
 69.999 1008.02 10 923.765 10 838.71 c 0
 10 753.667 70 669.431 70 669.431 c 1
112 686.128 m 9
 112 997.984 l 25
 130.999 998.021 l 25
 131 679.431 l 17
 118.044 679.565 114.435 682.609 112 686.128 c 9
EndSplineSet
EndChar

StartChar: DivisioMinimaParenSix
Encoding: 96 -1 96
Width: 259
VWidth: 2678
Flags: W
VStem: 0 18<1097.94 1209.49> 120 19<995.972 1312.98> 241 18<1097.94 1209.49>
CounterMasks: 1 e0
LayerCount: 2
Fore
SplineSet
181 984.431 m 1
 181 984.431 241 1068.67 241 1153.71 c 0
 241 1238.76 181.001 1323.02 181.001 1323.02 c 1
 181.001 1323.02 182.476 1325.57 184 1326.52 c 24
 185.727 1327.6 189.001 1328.02 189.001 1328.02 c 1
 189.001 1328.02 259 1241.97 259 1153.71 c 0
 259 1065.46 189 979.431 189 979.431 c 1
 189 979.431 185.727 979.852 184 980.931 c 24
 182.476 981.884 181 984.431 181 984.431 c 1
78 984.431 m 1
 78 984.431 76.5244 981.884 75 980.931 c 24
 73.2734 979.852 70 979.431 70 979.431 c 1
 70 979.431 0 1065.46 0 1153.71 c 0
 0 1241.97 69.999 1328.02 69.999 1328.02 c 1
 69.999 1328.02 73.2734 1327.6 75 1326.52 c 24
 76.5244 1325.57 77.999 1323.02 77.999 1323.02 c 1
 77.999 1323.02 18 1238.76 18 1153.71 c 0
 18 1068.67 78 984.431 78 984.431 c 1
120 1001.13 m 9
 120 1312.98 l 25
 138.999 1313.02 l 25
 139 994.431 l 17
 126.044 994.565 122.435 997.609 120 1001.13 c 9
EndSplineSet
EndChar

StartChar: DivisioMinimisTwo
Encoding: 97 -1 97
Width: 19
VWidth: 1533
Flags: HW
HStem: 284.431 318.553
VStem: 0 19<285.972 602.984>
LayerCount: 2
Fore
SplineSet
0 0.12793 m 13
 0 167.984 l 25
 18.999 168.021 l 25
 19 -6.56934 l 21
 6.04395 -6.43457 2.43457 -3.39062 0 0.12793 c 13
EndSplineSet
EndChar

StartChar: DivisioMinimisThree
Encoding: 98 -1 98
Width: 19
VWidth: 1733
Flags: HW
HStem: 49.431 318.553
VStem: 0 19<50.972 367.984>
LayerCount: 2
Fore
SplineSet
0 315.128 m 13
 0 482.984 l 25
 18.999 483.021 l 25
 19 308.431 l 21
 6.04395 308.565 2.43457 311.609 0 315.128 c 13
EndSplineSet
EndChar

StartChar: DivisioMinimisFour
Encoding: 99 -1 99
Width: 19
VWidth: 2048
Flags: HW
HStem: 364.431 318.553
VStem: 0 19<365.972 682.984>
LayerCount: 2
Fore
SplineSet
0 630.128 m 13
 0 797.984 l 25
 18.999 798.021 l 25
 19 623.431 l 21
 6.04395 623.565 2.43457 626.609 0 630.128 c 13
EndSplineSet
EndChar

StartChar: DivisioMinimisFive
Encoding: 100 -1 100
Width: 19
VWidth: 2363
Flags: HW
HStem: 679.431 318.553
VStem: 0 19<680.972 997.984>
LayerCount: 2
Fore
SplineSet
0 945.128 m 13
 0 1112.98 l 25
 18.999 1113.02 l 25
 19 938.431 l 21
 6.04395 938.565 2.43457 941.609 0 945.128 c 13
EndSplineSet
EndChar

StartChar: DivisioMinimisSix
Encoding: 101 -1 101
Width: 19
VWidth: 2678
Flags: HW
HStem: 994.431 318.553
VStem: 0 19<995.972 1312.98>
LayerCount: 2
Fore
SplineSet
0 1260.13 m 13
 0 1427.98 l 25
 18.999 1428.02 l 25
 19 1253.43 l 21
 6.04395 1253.56 2.43457 1256.61 0 1260.13 c 13
EndSplineSet
EndChar

StartChar: DivisioMinorTwo
Encoding: 102 -1 102
Width: 19
VWidth: 2048
Flags: W
HStem: -330.997 173.996
VStem: 0 19<-330.997 -157.001>
LayerCount: 2
Fore
SplineSet
0 -157.001 m 25
 19 -157 l 25
 19 -330.997 l 29
 0 -331.002 l 29
 0 -157.001 l 25
EndSplineSet
EndChar

StartChar: DivisioMinorThree
Encoding: 103 -1 103
Width: 19
VWidth: 2048
Flags: W
HStem: -251.497 329.996
VStem: 0 19<-251.497 78.499>
LayerCount: 2
Fore
SplineSet
0 78.499 m 25
 19 78.5 l 25
 19 -251.497 l 29
 0 -251.502 l 29
 0 78.499 l 25
EndSplineSet
EndChar

StartChar: DivisioMinorFour
Encoding: 104 -1 104
Width: 19
VWidth: 2048
Flags: W
VStem: 0 19<-293.375 385.622>
LayerCount: 2
Fore
SplineSet
0 -296.375 m 9
 0 383.125 l 21
 3.87305 385.802 10.75 386.375 19 386.5 c 9
 19 -293.375 l 17
 14.875 -293.5 5 -293.375 0 -296.375 c 9
EndSplineSet
Validated: 1
EndChar

StartChar: DivisioMinorFive
Encoding: 105 -1 105
Width: 19
VWidth: 2048
Flags: W
VStem: 0 19<-251.497 708.499>
LayerCount: 2
Fore
SplineSet
0 708.499 m 25
 19 708.5 l 25
 19 -251.497 l 25
 0 -251.502 l 25
 0 708.499 l 25
EndSplineSet
EndChar

StartChar: FClef
Encoding: 106 -1 106
Width: 322
VWidth: 2503
Flags: W
HStem: -39.5996 192.2<192.93 308.193> 157.5 171.6<6.85166 126.949> 304.7 189.9<190.866 306.742>
VStem: 0 141.7<157.5 319.758> 127.4 14.3<-63.3295 142.692> 155.8 166.4<-3.22288 152.6 304.7 460.303> 155.8 10.4<201.003 257.437>
LayerCount: 2
Fore
SplineSet
263.7 -39.5996 m 4xa4
 198.966 -38.7441 155.8 -2.36035 155.8 65.5 c 6
 155.8 391.8 l 6
 155.8 460.022 198.644 495.592 263.7 494.6 c 4
 303 494 322.2 472 322.2 446.4 c 6
 322.2 270 l 5xa4
 311.8 279.1 l 6
 294.854 293.928 266.484 304.7 237.7 304.7 c 4
 198.84 304.7 166.2 272.13 166.2 229.3 c 4xa2
 166.2 186.519 198.911 152.6 237.7 152.6 c 4
 267.34 152.6 295.125 162.308 311.8 176.9 c 5
 322.2 187.3 l 5
 322.2 9.59961 l 6
 322.2 -23 294 -40 263.7 -39.5996 c 4xa4
133.9 -63.5 m 0
 130 -63.5 127.4 -62.0703 127.4 -53.1006 c 2
 127.4 136.7 l 1xc8
 113.533 150.567 94.4668 157.5 70.2002 157.5 c 0
 40.7334 157.5 17.333 151 0 138 c 1
 0 283.6 l 2
 0 313.933 23.6172 329.1 70.8496 329.1 c 0
 118.083 329.1 141.7 313.933 141.7 283.6 c 2xd0
 141.7 -38.7998 l 2xc8
 141.7 -54.4004 139.1 -62.6328 133.9 -63.5 c 0
EndSplineSet
Validated: 33
EndChar

StartChar: FClefChange
Encoding: 107 -1 107
Width: 322
VWidth: 2503
Flags: W
HStem: -39.5996 192.2<192.93 308.193> 160.95 171.6<6.65048 126.748> 304.7 189.9<190.866 306.742>
VStem: -0.201172 141.7<160.95 323.208> 127.199 14.3<-59.8793 146.143> 155.8 166.4<-3.22288 152.6 304.7 460.303> 155.8 10.4<201.003 257.437>
LayerCount: 2
Fore
SplineSet
263.7 -39.5996 m 4xa4
 198.966 -38.7441 155.8 -2.36035 155.8 65.5 c 6
 155.8 391.8 l 6
 155.8 460.022 198.644 495.592 263.7 494.6 c 4
 303 494 322.2 472 322.2 446.4 c 6
 322.2 270 l 5xa4
 311.8 279.1 l 6
 294.854 293.928 266.484 304.7 237.7 304.7 c 4
 198.84 304.7 166.2 272.13 166.2 229.3 c 4xa2
 166.2 186.519 198.911 152.6 237.7 152.6 c 4
 267.34 152.6 295.125 162.308 311.8 176.9 c 5
 322.2 187.3 l 5
 322.2 9.59961 l 6
 322.2 -23 294 -40 263.7 -39.5996 c 4xa4
133.699 -60.0498 m 0
 129.799 -60.0498 127.199 -58.6201 127.199 -49.6504 c 2
 127.199 140.15 l 1xc8
 113.332 154.018 94.2656 160.95 69.999 160.95 c 0
 40.5322 160.95 17.1318 154.45 -0.201172 141.45 c 1
 -0.201172 287.05 l 2
 -0.201172 317.383 23.416 332.55 70.6484 332.55 c 0
 117.882 332.55 141.499 317.383 141.499 287.05 c 2xd0
 141.499 -35.3496 l 2xc8
 141.499 -50.9502 138.898 -59.1826 133.699 -60.0498 c 0
EndSplineSet
Validated: 33
EndChar

StartChar: Flat
Encoding: 108 -1 108
Width: 162
VWidth: 2587
Flags: W
HStem: -47.4492 60.7002<63.9005 160.809>
VStem: -0.174805 24.0498<59.035 321.284> 146.075 15.6<18.0513 121.851>
LayerCount: 2
Fore
SplineSet
45.9746 179.05 m 1
 108.245 179.05 161.675 136.151 161.675 107.551 c 0
 161.675 -5.11621 161.242 -47.4492 160.375 -47.4492 c 0
 96.2422 -47.4492 44.6748 -27.082 5.6748 13.6514 c 1
 1.77539 112.452 -0.174805 127.185 -0.174805 211.848 c 4
 -0.174805 240.067 0.0419922 267.502 0.474609 294.151 c 4
 0.474609 312.351 4.80762 321.451 13.4746 321.451 c 4
 20.4082 321.451 23.875 312.784 23.875 295.451 c 6
 21.2754 73.0508 l 1
 56.8076 33.1836 90.6074 13.251 122.675 13.251 c 0
 138.275 13.251 146.075 21.0508 146.075 36.6514 c 0
 146.075 64.7314 136.428 74.0947 90.1748 101.85 c 2
 45.9746 126.55 l 1
 45.9746 179.05 l 1
EndSplineSet
Validated: 1
EndChar

StartChar: FlatHole
Encoding: 109 -1 109
Width: 162
VWidth: 2587
Flags: W
HStem: 7.58594 128.413
VStem: 15.0352 137.28
LayerCount: 2
Fore
SplineSet
15.0352 73.3662 m 1
 15.002 135.999 l 29
 42.2041 132.215 l 1
 90.8252 105.045 l 2
 141.703 74.5137 152.315 64.2148 152.315 33.3262 c 0
 152.315 16.166 143.735 7.58594 126.575 7.58594 c 0
 91.3008 7.58594 15.0352 73.3662 15.0352 73.3662 c 1
EndSplineSet
Validated: 1
EndChar

StartChar: FlatParen
Encoding: 110 -1 110
Width: 364
VWidth: 2587
Flags: W
HStem: -47.4492 60.7002<164.901 261.809>
VStem: 0 18<11.9414 123.487> 100.825 24.0498<59.035 321.285> 247.075 15.5996<18.0513 121.851> 346 18<11.9414 123.487>
LayerCount: 2
Fore
SplineSet
286 -101.569 m 5
 286 -101.569 346 -17.333 346 67.71 c 4
 346 152.765 286.001 237.021 286.001 237.021 c 5
 286.001 237.021 287.476 239.568 289 240.521 c 28
 290.727 241.601 294.001 242.021 294.001 242.021 c 5
 294.001 242.021 364 155.968 364 67.71 c 4
 364 -20.5371 294 -106.569 294 -106.569 c 5
 294 -106.569 290.727 -106.148 289 -105.069 c 28
 287.476 -104.116 286 -101.569 286 -101.569 c 5
78 -101.569 m 5
 78 -101.569 76.5244 -104.116 75 -105.069 c 28
 73.2734 -106.148 70 -106.569 70 -106.569 c 5
 70 -106.569 0 -20.5371 0 67.71 c 4
 0 155.968 69.999 242.021 69.999 242.021 c 5
 69.999 242.021 73.2734 241.601 75 240.521 c 28
 76.5244 239.568 77.999 237.021 77.999 237.021 c 5
 77.999 237.021 18 152.765 18 67.71 c 4
 18 -17.333 78 -101.569 78 -101.569 c 5
146.975 179.05 m 1
 209.245 179.05 262.675 136.151 262.675 107.551 c 0
 262.675 -5.11621 262.242 -47.4492 261.375 -47.4492 c 0
 197.242 -47.4492 145.675 -27.082 106.675 13.6514 c 1
 102.775 112.452 100.825 127.185 100.825 211.848 c 0
 100.825 240.067 101.042 267.502 101.475 294.151 c 0
 101.475 312.351 105.808 321.451 114.475 321.451 c 0
 121.408 321.451 124.875 312.784 124.875 295.451 c 2
 122.275 73.0508 l 1
 157.808 33.1836 191.607 13.251 223.675 13.251 c 0
 239.275 13.251 247.075 21.0508 247.075 36.6514 c 0
 247.075 64.7314 237.428 74.0947 191.175 101.85 c 2
 146.975 126.55 l 1
 146.975 179.05 l 1
EndSplineSet
EndChar

StartChar: FlatParenHole
Encoding: 111 -1 111
Width: 364
VWidth: 2587
Flags: W
HStem: 7.58594 128.413
VStem: 116.035 137.28
LayerCount: 2
Fore
SplineSet
116.035 73.3662 m 1
 116.002 135.999 l 25
 143.204 132.215 l 1
 191.825 105.045 l 2
 242.703 74.5137 253.315 64.2148 253.315 33.3262 c 0
 253.315 16.166 244.735 7.58594 227.575 7.58594 c 0
 192.301 7.58594 116.035 73.3662 116.035 73.3662 c 1
EndSplineSet
EndChar

StartChar: hepisemaleft
Encoding: 112 -1 112
Width: 1
VWidth: 2044
Flags: HW
HStem: 60 32<0 1>
VStem: -2 3<60 92> 0 1<60 92>
LayerCount: 2
Fore
SplineSet
-2 -16 m 25xc0
 0 16 l 29xa0
 1 16 l 25
 1 -16 l 25
 -2 -16 l 25xc0
EndSplineSet
EndChar

StartChar: hepisemaright
Encoding: 113 -1 113
Width: 2
VWidth: 2044
Flags: HW
HStem: -16 32<-1 0>
VStem: -1 3<-16 16> -1 1<-16 16>
LayerCount: 2
Fore
SplineSet
0 -16 m 25xa0
 -1 -16 l 25
 -1 16 l 29
 2 16 l 29xc0
 0 -16 l 25xa0
EndSplineSet
EndChar

StartChar: hepisema_base
Encoding: 114 -1 114
Width: 1
VWidth: 2044
Flags: HW
HStem: -16 32<0 1>
VStem: 0 1<-16 16>
LayerCount: 2
Fore
SplineSet
0 -16 m 25
 0 16 l 29
 1 16 l 29
 1 -16 l 25
 0 -16 l 25
EndSplineSet
EndChar

StartChar: idebilis
Encoding: 115 -1 115
Width: 83
VWidth: 2605
Flags: W
HStem: -4.39941 110.299<9.7355 63.4201>
VStem: 0 83<6.00141 105.9> 65 18<113.282 194>
LayerCount: 2
Fore
SplineSet
53.2998 -4.39941 m 4xc0
 23.5117 -4.39941 0 19.7139 0 45 c 6
 0 124.101 l 1xc0
 10.3994 111.968 24.667 106 42.8994 105.9 c 0
 54.0078 105.84 65 122.333 65 137 c 2
 65 194 l 1
 83 194 l 1xa0
 83 20.3008 l 6
 83 5.48047 71.2393 -4.39941 53.2998 -4.39941 c 4xc0
EndSplineSet
Validated: 33
EndChar

StartChar: idebilis#Cavum
Encoding: 116 -1 116
Width: 83
VWidth: 2605
Flags: HW
HStem: -15.3994 112.3<9.7355 63.4201>
VStem: 0 83<-4.99859 96.9004> 65 18<104.282 185>
LayerCount: 2
Fore
SplineSet
65.1553 91 m 1
 65.1553 33.3359 l 2
 65.1553 24.8877 58.4512 19.2568 48.2256 19.2568 c 0xc0
 31.2471 19.2568 17.8447 36.001 17.8447 50.4141 c 2
 17.8447 91 l 1xc0
 24.7725 84.084 31.9053 82.1846 42.2979 82.127 c 0
 48.6299 82.0928 59.1553 82.6396 65.1553 91 c 1
EndSplineSet
EndChar

StartChar: line2
Encoding: 117 -1 117
Width: 18
VWidth: 2048
Flags: HW
HStem: -12 158<0 18>
VStem: 0 18<-12 146>
LayerCount: 2
Fore
SplineSet
0 -12 m 25
 0 176 l 29
 18 176 l 29
 18 -12 l 25
 0 -12 l 25
EndSplineSet
EndChar

StartChar: line3
Encoding: 118 -1 118
Width: 18
VWidth: 2048
Flags: HW
HStem: -12 312<0 18>
VStem: 0 18<-12 300>
LayerCount: 2
Fore
SplineSet
0 -12 m 25
 0 330 l 29
 18 330 l 29
 18 -12 l 25
 0 -12 l 25
EndSplineSet
EndChar

StartChar: line4
Encoding: 119 -1 119
Width: 18
VWidth: 2048
Flags: HW
VStem: 0 18<-12 443>
LayerCount: 2
Fore
SplineSet
0 -12 m 25
 0 473 l 29
 18 473 l 29
 18 -12 l 25
 0 -12 l 25
EndSplineSet
EndChar

StartChar: line5
Encoding: 120 -1 120
Width: 18
VWidth: 2048
Flags: HW
VStem: 0 18<-12 605>
LayerCount: 2
Fore
SplineSet
0 -12 m 25
 0 635 l 29
 18 635 l 29
 18 -12 l 25
 0 -12 l 25
EndSplineSet
EndChar

StartChar: Linea
Encoding: 121 -1 121
Width: 431
VWidth: 2612
Flags: W
HStem: -6.09961 154<19 412>
VStem: 0 19<-57.6866 -7.7998 149.5 200.944> 412 19<-57.6866 -7.7998 149.5 200.944>
LayerCount: 2
Fore
SplineSet
19 -54.8037 m 1
 16.5 -56.9473 12.9561 -58.3662 0 -58.5 c 9
 0 201.053 l 17
 7.8623 201.694 12.5 201.553 18.999 199.016 c 1
 19 149.5 l 1
 51 148 160.601 147.9 216.5 147.9 c 0
 272.4 147.9 380 148 412 149.5 c 1
 412.001 199.016 l 1
 418.5 201.553 423.138 201.694 431 201.053 c 9
 431 -58.5 l 17
 418.044 -58.3662 414.5 -56.9473 412 -54.8037 c 1
 412 -7.7998 l 1
 376.5 -6.09961 252.268 -6.09961 215 -6.09961 c 0
 176.867 -6.09961 48.5 -6.09961 19 -7.7998 c 1
 19 -54.8037 l 1
EndSplineSet
Validated: 1
EndChar

StartChar: Linea#Cavum
Encoding: 122 -1 122
Width: 431
VWidth: 2612
Flags: HW
HStem: -6.09961 154<19 412>
VStem: 0 19<-57.6866 -7.7998 149.5 200.944> 412 19<-57.6866 -7.7998 149.5 200.944>
LayerCount: 2
Fore
SplineSet
18.9951 128.38 m 1
 52.3555 127.285 175.424 127.212 216.23 127.212 c 0
 257.037 127.212 378.685 127.285 412.045 128.38 c 1
 412.045 13.5508 l 1
 376.13 14.792 242.341 14.792 215.135 14.792 c 0
 187.298 14.792 50.5303 14.792 18.9951 13.5508 c 1
 18.9951 128.38 l 1
EndSplineSet
EndChar

StartChar: LineaPunctum
Encoding: 123 -1 123
Width: 266
VWidth: 2048
Flags: W
HStem: -10 178.101<58.9061 206.903>
VStem: 0 18.334<-44.2566 157.635> 50 166<-10 156.076> 247.586 18.334<-44.2525 157.725>
LayerCount: 2
Fore
SplineSet
265.92 -34.2568 m 2
 265.92 -39.957 262.285 -44.2568 256.586 -44.2568 c 0
 250.886 -44.2568 247.586 -38.3027 247.586 -32.6025 c 2
 247.732 147.084 l 2
 247.732 152.784 251.553 157.744 257.253 157.744 c 0
 262.952 157.744 265.827 151.13 265.827 145.43 c 2
 265.92 -34.2568 l 2
18.334 -34.334 m 2
 18.334 -40.0342 13.6992 -44.334 8 -44.334 c 0
 2.2998 -44.334 0 -38.3799 0 -32.6797 c 2
 0.146484 147.007 l 2
 0.146484 152.707 2.9668 157.667 8.66699 157.667 c 0
 14.3662 157.667 18.2412 151.053 18.2412 145.353 c 2
 18.334 -34.334 l 2
132.35 168.101 m 0
 188.25 168.101 216 152.067 216 120 c 2
 216 -37.2998 l 1
 197.8 -19.0996 170.268 -10 133 -10 c 0
 94.8672 -10 68.2002 -19.0996 50 -37.2998 c 1
 50 120 l 2
 50 152.067 76.4502 168.101 132.35 168.101 c 0
EndSplineSet
Validated: 1
EndChar

StartChar: LineaPunctum#Cavum
Encoding: 124 -1 124
Width: 266
VWidth: 2048
Flags: W
HStem: 12.6123 129.375<75.8249 194.975>
VStem: 74.6152 121.77<12.6123 136.367>
LayerCount: 2
Fore
SplineSet
134.613 141.987 m 4
 167.874 141.987 196.399 133.042 196.385 113.963 c 6
 196.3 4.05273 l 5
 182.7 11.7031 151.579 12.6758 135 12.6123 c 4
 119.7 12.5527 80.2246 11.2783 74.7002 4.90332 c 5
 74.6152 113.963 l 6
 74.6006 133.042 101.353 141.987 134.613 141.987 c 4
EndSplineSet
Validated: 33
EndChar

StartChar: LineaPunctum#Cavum.caeciliae
Encoding: 125 -1 125
Width: 266
VWidth: 2048
Flags: W
HStem: -409 15 -94 15 221 15 536 15
LayerCount: 2
Fore
SplineSet
133.87 136.11 m 4
 174.108 136.11 201.08 106.165 201.08 69.6152 c 4
 201.08 33.9004 174.196 1.68945 133.87 1.68945 c 4
 99.7578 1.68945 69.5195 31.2178 69.5195 69.6152 c 4
 69.5195 108.081 99.7617 136.11 133.87 136.11 c 4
EndSplineSet
Validated: 1
EndChar

StartChar: mademinutus
Encoding: 126 -1 126
Width: 168
VWidth: 2048
Flags: W
HStem: -3.5 180.478<18 142.182>
VStem: 0 18<176.978 196.5> 150 18<-43.999 -24.3816>
LayerCount: 2
Fore
SplineSet
0 -9.00195 m 1
 0 196.5 l 1
 17.5 196.5 8 196.5 18 196.5 c 1
 17.5 186.5 18 191.5 18 176.978 c 1
 18.6436 176.999 19.31 177.006 20 177 c 0
 73.5 176.5 124.375 164.858 154.375 154.375 c 1
 156.938 153.5 167.999 150.004 168 143.341 c 9
 168 -43.999 l 25
 150 -43.999 l 0
 149.5 -33.5 146.312 -27.0566 137.875 -22.25 c 0
 131 -18.333 123.5 -15.5 99.25 -10.75 c 0
 92.3412 -9.39673 32.25 -3.25 19 -3.5 c 0
 12.7287 -3.61833 1.5 -7 0 -9.00195 c 1
EndSplineSet
EndChar

StartChar: mademinutus#Cavum
Encoding: 127 -1 127
Width: 168
VWidth: 2048
Flags: W
HStem: -3.5 180.5<0.0794468 142.182>
VStem: 0.000976562 167.999<-3.5 156.847> 150 18<-43.999 -24.3816>
LayerCount: 2
Fore
SplineSet
149.525 -3.69141 m 16
 144.163 -0.636719 125.312 4.57422 106.397 8.2793 c 0
 101.009 9.33398 43.6348 16.0947 33.2998 15.9004 c 0
 28.4082 15.8076 21.2266 16.0675 18.4805 14.8086 c 1xa0
 18.4805 145.771 l 1
 18.4805 145.771 16.916 156.851 34.0801 156.69 c 0
 75.8096 156.3 115.492 147.22 138.893 139.043 c 1
 140.892 138.36 149.52 135.633 149.52 130.437 c 9xc0
 149.525 -3.69141 l 16
EndSplineSet
EndChar

StartChar: mdeminutus
Encoding: 128 -1 128
Width: 168
VWidth: 2048
Flags: HW
HStem: -1 188<18.0735 133.663>
VStem: 0 18<-39 -3.80309> 150 18<-39.999 -19.9713>
LayerCount: 2
Fore
SplineSet
168 147.341 m 9
 168 -39.999 l 25
 150 -39.999 l 0
 149.5 -29.5 145.623 -21.0762 137.875 -18.25 c 0
 112.741 -9.08105 59.3867 -1 35.25 -1 c 0
 29.25 -1 19.5 -7 17.9971 -16.5 c 0
 18 -39 l 1
 0 -39 l 9
 0.000976562 173.002 l 1
 0.5 176.5 -2.00488 187.206 20 187 c 0
 73.5 186.5 124.375 168.858 154.375 158.375 c 1
 156.938 157.5 167.999 154.004 168 147.341 c 9
EndSplineSet
EndChar

StartChar: mdeminutus#Cavum
Encoding: 129 -1 129
Width: 168
VWidth: 2048
Flags: HW
HStem: -1 188<18.0735 133.663>
VStem: 0 18<-39 -3.80309> 150 18<-39.999 -19.9713>
LayerCount: 2
Fore
SplineSet
149.536 -2.03125 m 17
 129.932 5.12012 57.7432 15.8398 32.916 15.8398 c 0
 28.2363 15.8398 23.6318 15.1602 18.459 12.75 c 9
 18.4805 151.111 l 1
 18.8701 153.84 16.916 162.19 34.0801 162.03 c 0
 75.8096 161.64 115.492 147.879 138.893 139.702 c 1
 140.892 139.021 149.52 136.293 149.52 131.096 c 9
 149.536 -2.03125 l 17
EndSplineSet
EndChar

StartChar: mnbdeminutus
Encoding: 130 -1 130
Width: 168
VWidth: 2048
Flags: HW
HStem: -3.5 180.5<0.0794468 142.182>
VStem: 0.000976562 167.999<-3.5 156.847> 150 18<-43.999 -24.3816>
LayerCount: 2
Fore
SplineSet
0 -19.002 m 1xa0
 0.000976562 163.002 l 1
 0.000976562 163.002 -2.00488 177.206 20 177 c 0
 73.5 176.5 124.375 164.858 154.375 154.375 c 1
 156.938 153.5 167.999 150.004 168 143.341 c 9xc0
 168 -43.999 l 25
 150 -43.999 l 0
 149.5 -33.5 146.312 -27.0566 137.875 -22.25 c 0
 131 -18.333 123.5 -15.5 99.25 -10.75 c 0
 92.3412 -9.39673 32.25 -3.25 19 -3.5 c 0
 12.7287 -3.61833 1.54545 -13.9091 0 -19.002 c 1xa0
EndSplineSet
EndChar

StartChar: mnbdeminutus#Cavum
Encoding: 131 -1 131
Width: 168
VWidth: 2048
Flags: HW
HStem: -3.5 180.5<0.0794468 142.182>
VStem: 0.000976562 167.999<-3.5 156.847> 150 18<-43.999 -24.3816>
LayerCount: 2
Fore
SplineSet
149.525 -3.69141 m 16
 144.163 -0.636719 125.312 4.57422 106.397 8.2793 c 0
 101.009 9.33398 43.6348 16.0947 33.2998 15.9004 c 0
 28.4082 15.8076 21.2266 16.0675 18.4805 14.8086 c 1xa0
 18.4805 145.771 l 1
 18.4805 145.771 16.916 156.851 34.0801 156.69 c 0
 75.8096 156.3 115.492 147.22 138.893 139.043 c 1
 140.892 138.36 149.52 135.633 149.52 130.437 c 9xc0
 149.525 -3.69141 l 16
EndSplineSet
EndChar

StartChar: mnbpdeminutus
Encoding: 132 -1 132
Width: 168
VWidth: 2048
Flags: W
HStem: -34.9971 175.002<0.00537624 131.882>
VStem: 150 18<166.385 186.002>
LayerCount: 2
Fore
SplineSet
0 140.005 m 5
 25 139.67 82.75 147.503 97 151.003 c 4
 121.641 157.056 131 160.336 137.875 164.253 c 4
 146.312 169.06 149.5 175.503 150 186.002 c 4
 150 186.002 160.98 186.002 168 186.002 c 29
 168 4.66211 l 17
 167.999 -2.00098 156.938 -5.49707 154.375 -6.37207 c 1
 124.375 -16.8545 73.5 -34.4971 20 -34.9971 c 0
 -2.00488 -35.2031 0.000976562 -20.999 0.000976562 -20.999 c 1
 0 140.005 l 5
EndSplineSet
Validated: 33
EndChar

StartChar: mnbpdeminutus#Cavum
Encoding: 133 -1 133
Width: 168
VWidth: 2048
Flags: HW
HStem: -34.9971 175.002<0.00537624 131.882>
VStem: 150 18<166.385 186.002>
LayerCount: 2
Fore
SplineSet
149.52 147.692 m 9
 149.52 17.2471 l 17
 149.52 12.0498 140.892 9.32324 138.893 8.64062 c 1
 115.492 0.463867 75.8096 -13.2969 34.0801 -13.6875 c 0
 16.916 -13.8477 18.4805 -2.76855 18.4805 -2.76855 c 1
 18.4805 122.814 l 1
 37.9805 122.553 85.0254 128.663 96.1396 131.393 c 0
 115.36 136.114 145.157 144.638 149.52 147.692 c 9
EndSplineSet
EndChar

StartChar: mpdeminutus
Encoding: 134 -1 134
Width: 168
VWidth: 2048
Flags: HW
HStem: -46.9961 180<18.0735 116.779>
VStem: 0 17.9971<135.807 182.004> 150 18<162.975 183.003>
LayerCount: 2
Fore
SplineSet
168 -0.336914 m 17
 167.999 -7 156.938 -10.4961 154.375 -11.3711 c 1
 124.375 -21.8535 73.5 -46.4961 20 -46.9961 c 0
 -2.00488 -47.2021 1.5 -37.4961 0.000976562 -32.998 c 1
 0 182.004 l 17
 18 182.004 l 1
 17.9971 148.504 l 0
 19.5 139.004 29.25 133.004 35.25 133.004 c 0
 59.3867 133.004 112.741 152.085 137.875 161.254 c 0
 145.623 164.08 149.5 172.504 150 183.003 c 0
 150 183.003 160.98 183.003 168 183.003 c 25
 168 -0.336914 l 17
EndSplineSet
EndChar

StartChar: mpdeminutus#Cavum
Encoding: 135 -1 135
Width: 168
VWidth: 2048
Flags: HW
HStem: -46.9961 180<18.0735 116.779>
VStem: 0 17.9971<135.807 182.004> 150 18<162.975 183.003>
LayerCount: 2
Fore
SplineSet
149.536 147.711 m 9
 149.52 11.6982 l 17
 149.52 6.50098 140.892 3.77344 138.893 3.09082 c 1
 115.492 -5.08496 75.8096 -24.3066 34.0801 -24.6963 c 0
 16.916 -24.8564 19.6504 -17.2861 18.4805 -13.7773 c 1
 18.4805 122.924 l 17
 19.6533 118.514 30.2461 114.835 34.9258 114.835 c 0
 58.7529 114.835 136.932 140.559 149.536 147.711 c 9
EndSplineSet
EndChar

StartChar: msdeminutus
Encoding: 136 -1 136
Width: 168
VWidth: 2048
Flags: W
HStem: -23 174<30.3282 150>
VStem: 0 18<-63 -43.2308> 150 18<151 177>
LayerCount: 2
Fore
SplineSet
150 177 m 1
 150 177 150 177 168 177 c 1
 168 -28 l 1
 166 -26 156 -23 150 -23 c 0
 137 -23 76 -28 69 -30 c 0
 44 -35 37 -37 30 -41 c 0
 22 -46 18 -53 18 -63 c 0
 18 -63 7.01953 -63 0 -63 c 25
 0 117 l 21
 0 124 11.0615 127.5 13.625 128.375 c 4
 43.625 138.858 96.5 151 150 151 c 1
 150 177 l 1
EndSplineSet
Validated: 1
EndChar

StartChar: msdeminutus#Cavum
Encoding: 137 -1 137
Width: 168
VWidth: 2048
Flags: HW
HStem: -23 174<30.3282 150>
VStem: 0 18<-63 -43.2308> 150 18<151 177>
LayerCount: 2
Fore
SplineSet
18.4648 -23.6035 m 9
 18.4805 103.8 l 17
 18.4805 109.26 27.1084 111.99 29.1074 112.673 c 0
 52.5078 120.85 98.7988 130.601 149.529 130.601 c 1
 149.52 -5.2998 l 1
 147.96 -4.74023 140.16 -4.40039 135.48 -4.40039 c 0
 120.34 -4.40039 77.3447 -8.46289 58.8848 -12.0234 c 0
 39.3586 -15.7896 23.9248 -20.4834 18.4648 -23.6035 c 9
EndSplineSet
EndChar

StartChar: Natural
Encoding: 138 -1 138
Width: 108
Flags: W
VStem: 0 25.2002<7.7002 121.4 173.3 323.299> 84 24<-184.013 -35.5 18.5 128.9>
LayerCount: 2
Fore
SplineSet
0 320.9 m 1
 4 322.5 8.19922 323.3 12.5996 323.3 c 0
 17 323.3 21.2002 322.5 25.2002 320.9 c 1
 25.2002 232.1 l 1
 24 173.3 l 1
 54 178.1 l 2
 70.7998 181.301 85.2002 182.9 97.2002 182.9 c 0
 101.199 182.9 103.6 180.899 104.4 176.9 c 2
 108 -178.3 l 1
 104.8 -182.3 101.199 -184.3 97.2002 -184.3 c 0
 96.3994 -184.3 91.5996 -182.7 82.7998 -179.5 c 1
 83.6006 -178.699 84 -145.9 84 -81.0996 c 2
 84 -35.5 l 1
 12 -47.5 l 1
 6.39941 -46.6992 3.2002 -43.5 2.40039 -37.9004 c 1
 2.40039 92.9004 l 1
 1.2002 214.1 l 1
 0 300.5 l 1
 0 320.9 l 1
86.4004 128.9 m 5
 24 119.3 l 6
 23.1992 119.3 22.7998 82.0996 22.7998 7.7002 c 5
 86.4004 18.5 l 5
 86.4004 128.9 l 5
EndSplineSet
Validated: 1
EndChar

StartChar: NaturalHole
Encoding: 139 -1 139
Width: 108
Flags: W
HStem: 1.64062 133.319
VStem: 19.6201 69.96<13.5195 124.399>
LayerCount: 2
Fore
SplineSet
19.6201 1.64062 m 5
 20.9404 124.399 l 6
 89.5801 134.96 l 5
 89.5801 13.5195 l 1
 19.6201 1.64062 l 5
EndSplineSet
Validated: 1
EndChar

StartChar: NaturalParen
Encoding: 140 -1 140
Width: 310
Flags: W
VStem: 0 18<11.9414 123.487> 101 25.2002<7.7002 121.4 173.3 323.299> 185 24<-184.013 -35.5 18.5 128.9> 292 18<11.9414 123.487>
LayerCount: 2
Fore
SplineSet
232 -101.569 m 5
 232 -101.569 292 -17.333 292 67.71 c 4
 292 152.765 232.001 237.021 232.001 237.021 c 5
 232.001 237.021 233.476 239.568 235 240.521 c 28
 236.727 241.601 240.001 242.021 240.001 242.021 c 5
 240.001 242.021 310 155.968 310 67.71 c 4
 310 -20.5371 240 -106.569 240 -106.569 c 5
 240 -106.569 236.727 -106.148 235 -105.069 c 28
 233.476 -104.116 232 -101.569 232 -101.569 c 5
78 -101.569 m 5
 78 -101.569 76.5244 -104.116 75 -105.069 c 28
 73.2734 -106.148 70 -106.569 70 -106.569 c 5
 70 -106.569 0 -20.5371 0 67.71 c 4
 0 155.968 69.999 242.021 69.999 242.021 c 5
 69.999 242.021 73.2734 241.601 75 240.521 c 28
 76.5244 239.568 77.999 237.021 77.999 237.021 c 5
 77.999 237.021 18 152.765 18 67.71 c 4
 18 -17.333 78 -101.569 78 -101.569 c 5
101 320.9 m 1
 105 322.5 109.199 323.3 113.6 323.3 c 0
 118 323.3 122.2 322.5 126.2 320.9 c 1
 126.2 232.1 l 1
 125 173.3 l 1
 155 178.1 l 2
 171.8 181.301 186.2 182.9 198.2 182.9 c 0
 202.199 182.9 204.6 180.899 205.4 176.9 c 2
 209 -178.3 l 1
 205.8 -182.3 202.199 -184.3 198.2 -184.3 c 0
 197.399 -184.3 192.6 -182.7 183.8 -179.5 c 1
 184.601 -178.699 185 -145.9 185 -81.0996 c 2
 185 -35.5 l 1
 113 -47.5 l 1
 107.399 -46.6992 104.2 -43.5 103.4 -37.9004 c 1
 103.4 92.9004 l 1
 102.2 214.1 l 1
 101 300.5 l 1
 101 320.9 l 1
187.4 128.9 m 1
 125 119.3 l 2
 124.199 119.3 123.8 82.0996 123.8 7.7002 c 1
 187.4 18.5 l 1
 187.4 128.9 l 1
EndSplineSet
EndChar

StartChar: NaturalParenHole
Encoding: 141 -1 141
Width: 310
Flags: W
HStem: 1.64062 133.319
VStem: 120.62 69.96<13.5195 124.399>
LayerCount: 2
Fore
SplineSet
120.62 1.64062 m 5
 121.94 124.399 l 6
 190.58 134.96 l 5
 190.58 13.5195 l 1
 120.62 1.64062 l 5
EndSplineSet
EndChar

StartChar: OriscusDeminutus
Encoding: 142 -1 142
Width: 168
VWidth: 0
Flags: W
HStem: 12.6504 166.5<74.0922 133.444>
VStem: -0 168<13.4588 145.666>
LayerCount: 2
Fore
SplineSet
89 -65 m 1
 89 -65 124.873 -42.9766 129.999 -25.6836 c 0
 134.486 -10.5449 136.485 12.6504 128.2 12.6504 c 0
 116.035 12.6504 103.078 12.5898 90.167 5.60156 c 0
 72.5859 -3.91406 55.0908 -24.1504 39.7998 -24.1504 c 0
 8.59961 -24.1504 -0 -6.01953 -0 20.5 c 2
 -0 197 l 2
 -0 174.771 8.59961 146.65 39.7998 146.65 c 0
 70.1924 146.65 97.5713 179.15 128.2 179.15 c 0
 151.6 179.15 168 166.609 168 128 c 2
 168 37 l 2
 168 -54 89 -65 89 -65 c 1
EndSplineSet
Validated: 33
EndChar

StartChar: OriscusDeminutus#Cavum
Encoding: 143 -1 143
Width: 168
VWidth: 0
Flags: HW
HStem: -3.06543 156.13
VStem: 21.5576 124.883<31.1246 120.955>
LayerCount: 2
Fore
SplineSet
61.2773 125.774 m 0
 76.4873 130.981 102.512 147.757 119.071 153.065 c 0
 139.909 159.746 146.44 142.091 146.441 113.114 c 2
 146.441 47.8428 l 1
 146.444 36.9248 145.513 35.6934 144.542 31.2266 c 1
 138.842 35.8633 126.359 38.5732 117.171 37.0029 c 0
 110.24 35.8184 100.488 35.5254 84.833 28.0488 c 0
 69.374 20.666 58.1621 9.5918 48.9268 6.93457 c 0
 23.4092 -0.407227 21.5576 16.9824 21.5576 36.8848 c 2
 21.5576 124.774 l 1
 30.1084 121.558 41.6006 119.038 61.2773 125.774 c 0
EndSplineSet
EndChar

StartChar: OriscusDeminutus#Cavum.caeciliae
Encoding: 144 -1 144
Width: 168
VWidth: 2612
Flags: W
HStem: -3.06543 156.13
VStem: 21.5576 124.883<31.1246 120.955>
LayerCount: 2
Fore
SplineSet
61.2773 125.774 m 4
 76.4873 130.981 102.512 147.757 119.071 153.065 c 4
 139.909 159.746 146.441 142.091 146.441 113.114 c 6
 146.441 42.8428 l 5
 146.444 31.9248 145.513 28.6934 144.542 24.2266 c 5
 138.842 30.8633 135.359 34.5732 117.171 28.0029 c 4
 101.103 22.1982 64.6211 1.4502 48.9268 -3.06543 c 4
 23.4092 -10.4072 21.5576 16.9824 21.5576 36.8848 c 6
 21.5576 124.774 l 5
 30.1084 121.558 41.6006 119.038 61.2773 125.774 c 4
EndSplineSet
EndChar

StartChar: OriscusDeminutus.caeciliae
Encoding: 145 -1 145
Width: 168
VWidth: 2612
Flags: W
HStem: 3.65039 175.5<74.5366 132.925>
VStem: 0 168<3.84036 145.666>
LayerCount: 2
Fore
SplineSet
116.5 -61.5 m 1
 116.5 -61.5 145.949 3.65039 128.2 3.65039 c 1
 99.4707 3.65039 66.3203 -30.1504 39.7998 -30.1504 c 0
 8.59961 -30.1504 0 -6.01953 0 20.5 c 2
 0 197 l 1
 0 174.771 8.59961 146.65 39.7998 146.65 c 0
 70.1924 146.65 97.5713 179.15 128.2 179.15 c 0
 151.6 179.15 168 166.609 168 128 c 2
 168 37 l 1
 168 -43 116.5 -61.5 116.5 -61.5 c 1
EndSplineSet
Validated: 33
EndChar

StartChar: p2base
Encoding: 146 -1 146
Width: 166
VWidth: 2613
Flags: HW
HStem: -12.2998 164.401<0 147.706>
VStem: 0 166<-8.23266 145.622> 148 18<157.262 185>
LayerCount: 2
Fore
SplineSet
74.2998 -19.2998 m 4xc0
 51.3535 -19.2998 36 -18.5 27 -17 c 4
 9.97266 -14.1621 0 -11.4355 0 -4.5 c 6
 0 149 l 6xc0
 0 155.067 2.16699 158.101 6.5 158.101 c 6
 10.4004 158.101 l 6
 14.7334 157.233 29.5332 151.8 69.4004 151.8 c 4
 81.8047 151.8 92.5234 152.61 101.668 152.61 c 4
 131.756 152.61 148 164.366 148 182 c 5
 148 191 l 5
 166 191 l 5xa0
 166 -3.2002 l 6
 166 -11.3105 136.757 -19.5137 107.375 -19.5137 c 4
 94.999 -19.5137 94.9414 -19.2998 74.2998 -19.2998 c 4xc0
EndSplineSet
EndChar

StartChar: p2base#Cavum
Encoding: 147 -1 147
Width: 166
VWidth: 2613
Flags: HW
HStem: -12.2998 164.401<0 147.706>
VStem: 0 166<-8.23266 145.622> 148 18<157.262 185>
LayerCount: 2
Fore
SplineSet
147.74 144.844 m 1
 147.74 11.3672 l 2
 147.74 5.04102 124.931 -1.35742 102.013 -1.35742 c 0
 92.3594 -1.35742 92.3145 -1.19043 76.2139 -1.19043 c 0xc0
 58.3154 -1.19043 46.3398 -0.566406 39.3203 0.603516 c 0
 26.0391 2.81738 18.2598 4.94336 18.2598 10.3535 c 2
 18.2598 130.084 l 2xc0
 18.2598 134.815 19.9502 137.183 23.3301 137.183 c 2
 26.3721 137.183 l 2
 29.752 136.505 41.2959 132.268 72.3926 132.268 c 0
 82.0674 132.268 96.5022 131.924 102.561 132.899 c 0
 116.999 135.224 127.74 133.09 147.74 144.844 c 1
EndSplineSet
EndChar

StartChar: pesdeminutus
Encoding: 148 -1 148
Width: 166
VWidth: 2684
Flags: HW
HStem: -40 189.801<1.44824 130.792>
VStem: 0 166<-8.83884 149.801>
LayerCount: 2
Fore
SplineSet
166 0 m 1xc0
 139.165 -55.9062 46.9414 -57.252 35.9141 -57.252 c 2
 34.9004 -57.25 l 2
 11.5 -57.25 0 -47.7324 0 -25.1992 c 2
 0 149 l 1xc0
 6.93359 136.867 21.0332 132.551 42.7002 132.551 c 0
 65.8945 132.551 120.304 137.428 148.004 170.001 c 1
 148.007 193.993 l 1
 166 194.001 l 1xa0
 166 0 l 1xc0
EndSplineSet
EndChar

StartChar: pesdeminutus#Cavum
Encoding: 149 -1 149
Width: 166
VWidth: 2684
Flags: HW
HStem: -57.25 189.801<1.02232 128.646>
VStem: 0 166<-26.0436 132.551> 148.004 17.996<161.551 193.993>
LayerCount: 2
Fore
SplineSet
147.74 10.501 m 1
 126.81 -33.1064 55.0303 -35.1172 46.4287 -35.1172 c 2
 45.6387 -35.1152 l 2
 25.3857 -35.0654 18.2598 -29.3262 18.2598 -8.75098 c 2
 18.2598 115.125 l 1
 26.668 112.661 33.8223 111.93 50.7227 111.93 c 1
 49.5205 112.077 107.854 113.941 147.74 142.615 c 1
 147.74 10.501 l 1
EndSplineSet
EndChar

StartChar: pesdeminutus_op
Encoding: 150 -1 150
Width: 166
VWidth: 2684
Flags: W
HStem: -57.25 189.801<18.7647 128.646>
VStem: 0 18<133.543 207.775> 148.004 17.996<161.551 194>
LayerCount: 2
Fore
SplineSet
18 135.495 m 1
 24.7238 133.426 32.945 132.551 42.7002 132.551 c 0
 65.8945 132.551 120.304 137.428 148.004 170.001 c 1
 148.005 194 l 25
 166 194 l 25
 166 0 l 1
 139.165 -55.9062 46.9414 -57.252 35.9141 -57.252 c 2
 34.9004 -57.25 l 2
 11.5 -57.25 0 -47.7324 0 -25.1992 c 2
 0 188.668 l 2
 0 199.935 4.5 206.7 12.2998 209.3 c 1
 17.5 209.3 18 207.74 18 162.5 c 2
 18 135.495 l 1
EndSplineSet
Validated: 1
EndChar

StartChar: PesOneNothing
Encoding: 151 -1 151
Width: 166
VWidth: 2613
Flags: W
HStem: -26.5137 150.124<0 147.556> 185.8 157.7<20.8252 142.108>
VStem: 0 166<-26.264 123.599> 11 155<185.8 331.15> 148 18<125.692 168.397>
LayerCount: 2
Fore
SplineSet
79.2998 -26.2998 m 4xe0
 56.3535 -26.2998 39.9717 -26.5459 28.3018 -26.5459 c 4
 3.54395 -26.5459 0 -25.4355 0 -18.5 c 6
 0 116 l 6xe0
 0 122.067 2.16699 125.101 6.5 125.101 c 6
 10.4004 125.101 l 6
 14.7334 124.233 35.5332 123.8 75.4004 123.8 c 4
 87.8047 123.8 98.5234 123.61 107.668 123.61 c 4
 137.756 123.61 148 123.366 148 141 c 2
 148 141.199 l 2xc8
 148 169 130.521 185.8 89.3994 185.8 c 0
 59.0674 185.8 30.9326 178.867 11 165 c 1
 11 294.1 l 2
 11 327.032 39.1328 343.5 89.3994 343.5 c 0
 122.55 343.5 166 333.619 166 294.1 c 2xd0
 166 -17.2002 l 6
 166 -25.3105 157.757 -26.5137 128.375 -26.5137 c 4
 115.999 -26.5137 99.9414 -26.2998 79.2998 -26.2998 c 4xe0
EndSplineSet
EndChar

StartChar: PesOneNothing#Cavum
Encoding: 152 -1 152
Width: 166
VWidth: 2613
Flags: HW
HStem: -12.2998 164.401<0 147.706>
VStem: 0 166<-8.23266 145.622> 148 18<157.262 185>
LayerCount: 2
Fore
SplineSet
147.74 111.844 m 1
 147.74 0.367188 l 2
 147.74 -5.95898 136.931 -6 122.013 -6 c 0
 112.359 -6 98.3145 -6 82.2139 -6 c 0xc0
 64.3154 -6 46.4336 -6.20893 39.3203 -6 c 0
 32.0391 -5.78613 18.2598 -6.05664 18.2598 -0.646484 c 2
 18.2598 98.084 l 2xc0
 18.2598 102.815 19.9502 105.183 23.3301 105.183 c 2
 26.3721 105.183 l 2
 29.752 104.505 41.2959 104.268 72.3926 104.268 c 0
 82.0674 104.268 96.4648 104.193 102.561 104.899 c 0
 113.999 106.224 140.74 103.09 147.74 111.844 c 1
87.6934 321.78 m 0
 117.96 321.78 147.558 313.64 147.545 296.278 c 2
 147.468 190.26 l 1
 140.092 197.222 108.132 207.106 90.0449 207.049 c 0
 76.1221 207.005 33.5596 202.835 29.5322 198.034 c 1
 29.4551 296.278 l 2
 29.4414 313.64 57.4258 321.78 87.6934 321.78 c 0
EndSplineSet
EndChar

StartChar: porrectus1
Encoding: 153 -1 153
Width: 447
VWidth: 2553
Flags: HW
VStem: 429 18<4.2854 52.2002>
LayerCount: 2
Fore
SplineSet
415.85 -185.2 m 0
 287 -184.5 123.5 -112.801 0 -8 c 1
 0 183.601 l 1
 49.5 138.45 114.5 78.5 225.85 22.2998 c 0
 262.646 3.72852 321.401 -20.5742 359.75 -20 c 0
 406.5 -19.2998 427.5 -12.7998 429 29.4004 c 1
 429 57.2002 l 1
 447 57.2002 l 1
 447 -167 l 2
 447 -179.133 436.65 -185.313 415.85 -185.2 c 0
EndSplineSet
EndChar

StartChar: porrectus1#Cavum
Encoding: 154 -1 154
Width: 447
VWidth: 2553
Flags: HW
VStem: 429 18<4.2854 52.2002>
LayerCount: 2
Fore
SplineSet
429.36 -20.7197 m 1
 429.36 -152.112 l 2
 429.36 -165.333 414.494 -166.019 398.686 -165.944 c 0
 285.76 -165.412 112.5 -79.9209 18.6396 -0.271484 c 1
 18.6396 144.345 l 1
 56.2598 110.03 134.461 44.004 220.286 3.75586 c 0
 248.251 -9.3584 330.904 -40.8281 360.05 -40.3916 c 0
 395.58 -39.8594 419.221 -32.792 429.36 -20.7197 c 1
EndSplineSet
EndChar

StartChar: porrectus2
Encoding: 155 -1 155
Width: 547
VWidth: 2575
Flags: HW
HStem: -354 167.2<435.954 519.633>
VStem: 529 18<-164.776 -116.1>
LayerCount: 2
Fore
SplineSet
547 -336.1 m 1
 547.006 -343.908 535.933 -350.562 516 -351 c 1
 461.933 -351 388.48 -316.605 271.4 -242.2 c 0
 138.892 -157.99 65 -84.2676 0 -10.5996 c 1
 0 187 l 1
 139.94 3.32812 380 -175 487.9 -193.8 c 1
 499.601 -193.8 l 1
 524.468 -193.266 528.833 -181.333 529 -148.4 c 1
 529 -127.1 l 1
 547 -127.1 l 1
 547 -336.1 l 1
EndSplineSet
EndChar

StartChar: porrectus2#Cavum
Encoding: 156 -1 156
Width: 547
VWidth: 2575
Flags: HW
HStem: -354 167.2<435.954 519.633>
VStem: 529 18<-164.776 -116.1>
LayerCount: 2
Fore
SplineSet
528.89 -205.374 m 1
 528.89 -321.034 l 1
 528.895 -326.812 517.7 -331.736 502.95 -332.06 c 1
 462.94 -332.06 347.823 -271.789 261.946 -215.548 c 0
 143.89 -138.232 66.21 -60.6777 18.1104 -6.16406 c 1
 18.1104 140.06 l 1
 121.666 4.14258 360.31 -190.82 479.156 -213.732 c 1
 493.814 -215.732 l 1
 512.217 -215.337 525.766 -212.745 528.89 -205.374 c 1
EndSplineSet
EndChar

StartChar: porrectus3
Encoding: 157 -1 157
Width: 628
VWidth: 2556
Flags: HW
HStem: -544 189<554.023 616.5>
VStem: 610 18<-343.86 -311>
LayerCount: 2
Fore
SplineSet
584 -510 m 0
 526.667 -491 416 -442 298 -340 c 0
 215 -272 116 -166 0 -23 c 1
 0 184 l 1
 133 20 233 -101 306 -171 c 0
 440 -300 534.041 -336.352 567 -338 c 0
 587 -339 608 -339.7 610 -308 c 1
 610 -294 l 1
 628 -294 l 1
 628 -489 l 2
 628 -505 618.667 -514 611 -515 c 0
 605.041 -515.777 589.112 -511.694 584 -510 c 0
EndSplineSet
EndChar

StartChar: porrectus3#Cavum
Encoding: 158 -1 158
Width: 628
VWidth: 2556
Flags: HW
HStem: -544 189<554.023 616.5>
VStem: 610 18<-343.86 -311>
LayerCount: 2
Fore
SplineSet
610.36 -346.59 m 1
 610.36 -478.89 l 2
 610.36 -495.73 603.453 -493.39 597.78 -494.13 c 0
 593.37 -494.705 573.576 -488.704 569.8 -487.43 c 0
 510.374 -467.37 389.48 -399.11 302.16 -323.63 c 0
 240.74 -273.31 104.48 -124.87 18.6396 -19.0498 c 1
 18.6396 134.13 l 1
 117.06 12.7695 254.06 -144.77 308.08 -196.57 c 0
 407.24 -292.03 522.839 -360.68 571.22 -359.15 c 0
 591.033 -358.524 605.88 -355.048 610.36 -346.59 c 1
EndSplineSet
EndChar

StartChar: porrectus4
Encoding: 159 -1 159
Width: 704
VWidth: 2500
Flags: HW
VStem: 686 18<-489.438 -449.399>
LayerCount: 2
Fore
SplineSet
668 -662.399 m 0
 500.75 -567.04 224 -372 0 -33 c 1
 0 183.601 l 1
 68 72 167.609 -59.1445 322.601 -223.5 c 0
 426.333 -333.5 500 -392 625.9 -466.199 c 0
 635.016 -471.571 646.566 -477.123 653.5 -477.123 c 0
 665.5 -477.124 686 -471.123 686 -442.8 c 1
 686 -421.399 l 1
 704 -421.399 l 1
 704 -637.899 l 2
 704 -653.495 698 -663 686.601 -665.3 c 0
 682.354 -666.156 673.735 -665.669 668 -662.399 c 0
EndSplineSet
EndChar

StartChar: porrectus4#Cavum
Encoding: 160 -1 160
Width: 704
VWidth: 2500
Flags: HW
VStem: 686 18<-489.438 -449.399>
LayerCount: 2
Fore
SplineSet
685.48 -488.456 m 1
 685.48 -620.666 l 2
 685.48 -632.207 683.04 -638.241 674.604 -639.943 c 0
 671.462 -640.576 658.214 -633.973 653.84 -631.796 c 0
 508.075 -559.23 191.28 -310.9 18.5195 -29.041 c 1
 18.5195 127.244 l 1
 68.8398 44.6592 209.768 -131.131 325.245 -252.011 c 0
 403.007 -333.411 530.52 -442.701 629.686 -489.608 c 0
 636.764 -492.957 643.979 -497.691 657.11 -499.691 c 0
 665.889 -501.028 681.48 -500.415 685.48 -488.456 c 1
EndSplineSet
EndChar

StartChar: porrectus5
Encoding: 161 -1 161
Width: 849
VWidth: 2048
Flags: HW
VStem: 831 18<-627.438 -587.399>
LayerCount: 2
Fore
SplineSet
813 -799.399 m 0
 610.206 -694.618 227.179 -398.498 0 -38 c 1
 0 183.601 l 1
 61.5332 69.2002 212.399 -126.5 374.5 -295 c 0
 476.788 -401.326 650.5 -522 770.9 -599.199 c 0
 779.807 -604.91 795.566 -611.435 802.498 -611.324 c 4
 823.169 -610.993 831 -601 831 -575.8 c 1
 831 -554.399 l 1
 849 -554.399 l 1
 849 -774.899 l 2
 849 -790.495 838.133 -803.3 828.601 -803.3 c 0
 824.268 -803.3 818.865 -802.43 813 -799.399 c 0
EndSplineSet
EndChar

StartChar: porrectus5#Cavum
Encoding: 162 -1 162
Width: 849
VWidth: 2048
Flags: HW
VStem: 831 18<-627.438 -587.399>
LayerCount: 2
Fore
SplineSet
830.63 -620.816 m 1
 830.63 -753.986 l 2
 830.63 -765.527 822.589 -775.003 815.535 -775.003 c 0
 812.328 -775.003 806.327 -771.366 801.99 -769.116 c 0
 561.923 -644.578 199.482 -322.449 19.3701 -30.6807 c 1
 19.3701 119.304 l 1
 64.9043 19.6475 331.461 -281.613 372.5 -320.861 c 0
 412.237 -358.865 525.74 -469.841 762.836 -618.968 c 0
 769.463 -623.136 793.089 -634.022 798.219 -633.94 c 0
 813.515 -633.695 827.63 -629.464 830.63 -620.816 c 1
EndSplineSet
EndChar

StartChar: porrectusam11
Encoding: 163 -1 163
Width: 503
VWidth: 2553
Flags: HW
HStem: -394 15 -79 15 236 15 551 15
LayerCount: 2
Fore
SplineSet
471.85 -200.2 m 0
 315.859 -200.2 150.71 -146.379 0 -14 c 1
 0 183.601 l 1
 47.667 136.8 118.963 71.4531 229.85 13.2998 c 0
 281.005 -13.5283 356.997 -41.5117 415.75 -41 c 0
 471.28 -40.5166 484.5 -29.7998 485 8.40039 c 1
 485 36.2002 l 1
 503 36.2002 l 1
 503 -182 l 2
 503 -194.133 492.65 -200.2 471.85 -200.2 c 0
EndSplineSet
EndChar

StartChar: porrectusam11#Cavum
Encoding: 164 -1 164
Width: 503
VWidth: 2553
Flags: HW
VStem: 429 18<4.2854 52.2002>
LayerCount: 2
Fore
SplineSet
485.36 -42.7197 m 1
 485.36 -173.112 l 2
 485.36 -186.333 445.477 -181.692 429.686 -180.944 c 0
 291.76 -174.412 137.5 -108.921 18.6396 -3.27148 c 1
 18.6396 141.345 l 1
 56.2598 107.03 133.66 42.4678 218.286 -0.244141 c 0
 246.251 -14.3584 331.904 -58.8281 400.05 -58.3916 c 0
 435.583 -58.164 475.221 -54.792 485.36 -42.7197 c 1
EndSplineSet
EndChar

StartChar: porrectusam12
Encoding: 165 -1 165
Width: 628
VWidth: 2575
Flags: HW
HStem: -359 172.2<478.983 597.928>
VStem: 610 18<-161.064 -116.1>
LayerCount: 2
Fore
SplineSet
628 -338.1 m 1
 628.006 -345.908 616.933 -357.562 597 -358 c 1
 458 -358 328 -284 264 -248 c 0
 127.161 -171.028 60 -89.5 0 -13.5996 c 1
 0 184 l 1
 139.94 0.328125 316 -188 540.9 -199.8 c 5
 552.601 -199.8 l 6
 598 -199.8 610 -179.5 610 -147.4 c 6
 610 -126.1 l 5
 628 -126.1 l 5
 628 -338.1 l 1
EndSplineSet
EndChar

StartChar: porrectusam12#Cavum
Encoding: 166 -1 166
Width: 628
VWidth: 2575
Flags: HW
HStem: -354 167.2<435.954 519.633>
VStem: 529 18<-164.776 -116.1>
LayerCount: 2
Fore
SplineSet
609.89 -207.374 m 1
 609.89 -326.034 l 1
 609.895 -331.812 598.7 -336.736 583.95 -337.06 c 1
 464.94 -332.06 353.362 -278.708 261.946 -224.548 c 0
 131.034 -146.988 70.21 -75.6777 18.1104 -7.16406 c 1
 18.1104 135.06 l 1
 105.666 19.1426 280.31 -193.82 534.156 -220.732 c 1
 568.814 -221.732 l 1
 587.217 -221.337 606.766 -214.745 609.89 -207.374 c 1
EndSplineSet
EndChar

StartChar: porrectusam13
Encoding: 167 -1 167
Width: 678
VWidth: 2556
Flags: HW
VStem: 660 18<-343.866 -311>
LayerCount: 2
Fore
SplineSet
643 -513 m 0
 532 -488.5 416 -434 298 -332 c 0
 215 -264 116 -158 0 -15 c 1
 0 183 l 1
 133 19 233 -102 306 -172 c 0
 440 -301 547.8 -353.168 612 -356 c 0
 646 -357.5 660 -341 660 -321 c 1
 660 -307 l 1
 678 -307 l 1
 678 -486 l 2
 678 -502 668 -515 657 -515 c 0
 654 -515 648.259 -514.161 643 -513 c 0
EndSplineSet
EndChar

StartChar: porrectusam13#Cavum
Encoding: 168 -1 168
Width: 678
VWidth: 2556
Flags: HW
HStem: -544 189<554.023 616.5>
VStem: 610 18<-343.86 -311>
LayerCount: 2
Fore
SplineSet
660.36 -363.59 m 1
 660.36 -479.89 l 2
 660.36 -491.73 653.453 -493.39 647.78 -494.13 c 0
 643.37 -494.705 590.543 -479.796 586.8 -478.43 c 0
 452.374 -429.37 383.48 -380.11 283.16 -292.63 c 0
 223.316 -240.445 104.48 -114.87 18.6396 -9.0498 c 1
 18.6396 134.13 l 1
 117.06 12.7695 233.141 -138.809 316.08 -210.57 c 0
 447.708 -324.459 546.85 -378.067 615.22 -379.15 c 0
 631.042 -379.401 655.88 -372.048 660.36 -363.59 c 1
EndSplineSet
EndChar

StartChar: porrectusam14
Encoding: 169 -1 169
Width: 721
VWidth: 2500
Flags: HW
HStem: -707.3 187<651.833 713.367>
VStem: 703 18<-500.05 -455.399>
LayerCount: 2
Fore
SplineSet
691 -670.399 m 4
 428.5 -614.646 250 -425 0 -39 c 1
 0 183.601 l 1
 61.5332 69.2002 159.01 -79.2764 301.601 -254.5 c 0
 437.5 -421.5 521.167 -490 629.9 -519.199 c 0
 640.119 -521.943 652.367 -523.3 659.3 -523.3 c 0
 698.5 -523.3 703 -517 703 -484.8 c 1
 703 -463.399 l 1
 721 -463.399 l 1
 721 -638.899 l 6
 721 -654.495 717.362 -668.545 708.601 -672.3 c 4
 706.268 -673.3 697.457 -671.771 691 -670.399 c 4
EndSplineSet
EndChar

StartChar: porrectusam14#Cavum
Encoding: 170 -1 170
Width: 721
VWidth: 2500
Flags: HW
VStem: 686 18<-489.438 -449.399>
LayerCount: 2
Fore
SplineSet
703.48 -533.456 m 1
 703.48 -630.666 l 2
 703.48 -642.207 701.04 -648.241 692.604 -649.943 c 0
 689.462 -650.576 662.571 -645.016 657.84 -643.796 c 0
 392.075 -575.23 190.28 -310.9 17.5195 -29.041 c 1
 18.5195 118.244 l 1
 45.8398 44.6592 290.104 -276.84 313.245 -297.011 c 0
 328.827 -310.593 436.344 -475.073 608.686 -535.608 c 0
 624.456 -541.148 651.979 -545.691 669.11 -545.691 c 0
 677.99 -545.691 699.48 -541.415 703.48 -533.456 c 1
EndSplineSet
EndChar

StartChar: porrectusam15
Encoding: 171 -1 171
Width: 933
VWidth: 2048
Flags: HW
HStem: -832.3 167<857.513 925.367>
VStem: 915 18<-637.88 -590.399>
LayerCount: 2
Fore
SplineSet
902 -826.399 m 0
 500.5 -724 254 -456.751 0 -39 c 1
 0 183.601 l 1
 61.5332 69.2002 270.258 -239.258 430 -399 c 0
 586 -555 667 -633 851.9 -679.199 c 0
 862.165 -681.764 866.367 -681.3 873.3 -681.3 c 0
 891.5 -681.3 905.467 -666.8 915 -627.8 c 1
 915 -606.399 l 1
 933 -606.399 l 1
 933 -787.899 l 2
 933 -803.495 930.133 -830.3 920.601 -830.3 c 0
 916.268 -830.3 908.395 -828.03 902 -826.399 c 0
EndSplineSet
EndChar

StartChar: porrectusam15#Cavum
Encoding: 172 -1 172
Width: 933
VWidth: 2048
Flags: HW
VStem: 831 18<-627.438 -587.399>
LayerCount: 2
Fore
SplineSet
915.63 -673.816 m 1
 915.63 -790.986 l 2
 915.63 -802.527 914.589 -809.003 907.535 -809.003 c 0
 904.328 -809.003 882.69 -803.448 877.99 -802.116 c 0
 427.923 -674.578 202.482 -324.449 19.3701 -32.6807 c 1
 19.3701 117.304 l 1
 83.9043 0.647461 269.514 -268.172 437.5 -432.861 c 0
 476.241 -470.843 617.74 -648.841 843.836 -698.968 c 0
 851.479 -700.662 869.762 -705.09 888.219 -700.94 c 0
 903.95 -697.403 912.63 -682.464 915.63 -673.816 c 1
EndSplineSet
EndChar

StartChar: porrectusflexus1
Encoding: 173 -1 173
Width: 503
VWidth: 2553
Flags: HW
HStem: -186.2 162.8<278.914 484.003>
VStem: 484.667 18<-20.5071 53.7998>
LayerCount: 2
Fore
SplineSet
471.85 -178.2 m 0
 315.859 -178.2 150.71 -146.379 0 -14 c 1
 0 183.601 l 5
 47.667 136.8 119.963 81.4531 230.85 23.2998 c 0
 282.005 -3.52832 356.667 -16.2002 415.417 -15.4004 c 0
 450.947 -14.917 467.667 -13.333 484.667 -11.6553 c 1
 484.667 61.7998 l 1
 502.667 61.7998 l 1
 503 -160 l 2
 503.019 -172.133 492.65 -178.2 471.85 -178.2 c 0
EndSplineSet
EndChar

StartChar: porrectusflexus1#Cavum
Encoding: 174 -1 174
Width: 503
VWidth: 2553
Flags: HW
VStem: 429 18<4.2854 52.2002>
LayerCount: 2
Fore
SplineSet
485.36 -31.7197 m 1
 485.36 -150.112 l 2
 485.36 -163.333 445.477 -158.692 429.686 -157.944 c 0
 291.76 -151.412 137.5 -108.921 18.6396 -3.27148 c 1
 18.6396 141.345 l 1
 56.2598 107.03 127.246 52.6366 212.286 10.7559 c 0
 261.251 -13.3584 330.904 -36.8281 399.05 -36.3916 c 0
 434.583 -36.1641 462.221 -36.792 485.36 -31.7197 c 1
EndSplineSet
EndChar

StartChar: porrectusflexus2
Encoding: 175 -1 175
Width: 628
VWidth: 2575
Flags: HW
VStem: 610.001 17.999<-189.413 -116.1>
LayerCount: 2
Fore
SplineSet
610.001 -160.499 m 1
 610 -96.0996 l 1
 628 -96.0996 l 1
 628 -313.1 l 1
 628.006 -320.908 616.933 -332.562 597 -333 c 1
 530.933 -333 368 -290 274.4 -231.2 c 4
 141.454 -147.683 65 -87.2676 0 -13.5996 c 1
 0 184 l 1
 139.94 0.328125 346.969 -143.639 532.9 -170.8 c 1
 532.9 -170.8 610 -183.667 610.001 -160.499 c 1
EndSplineSet
EndChar

StartChar: porrectusflexus2#Cavum
Encoding: 176 -1 176
Width: 628
VWidth: 2575
Flags: HW
HStem: -354 167.2<435.954 519.633>
VStem: 529 18<-164.776 -116.1>
LayerCount: 2
Fore
SplineSet
609.89 -189.374 m 1
 609.89 -303.034 l 1
 609.895 -308.812 595.7 -313.736 580.95 -314.06 c 1
 499.94 -306.06 363.675 -264.193 271.946 -208.548 c 0
 142.296 -129.897 70.21 -62.6777 18.1104 -7.16406 c 1
 18.1104 134.06 l 1
 38.666 104.143 251.31 -142.82 534.156 -193.732 c 1
 568.814 -195.732 l 1
 587.217 -195.337 606.766 -194.745 609.89 -189.374 c 1
EndSplineSet
EndChar

StartChar: porrectusflexus3
Encoding: 177 -1 177
Width: 628
VWidth: 2556
Flags: HW
VStem: 610 18<-362.668 -311.4>
LayerCount: 2
Fore
SplineSet
598 -504.9 m 0
 516.533 -477.167 416.433 -432.601 297.7 -331.2 c 0
 215.367 -262.733 116.133 -157 0 -14 c 1
 0 183.6 l 1
 132.601 19.7998 233.259 -100.734 305.601 -170.601 c 0
 440 -300.4 542.25 -328.5 561.7 -331.9 c 1
 607.5 -341 610 -332.333 610 -320.316 c 1
 610 -283.4 l 1
 628 -283.4 l 1
 628 -484.101 l 2
 628 -499.698 622.268 -507.5 611 -507.5 c 0
 607.533 -507.5 603.2 -506.633 598 -504.9 c 0
EndSplineSet
EndChar

StartChar: porrectusflexus3#Cavum
Encoding: 178 -1 178
Width: 628
VWidth: 2556
Flags: HW
HStem: -544 189<554.023 616.5>
VStem: 610 18<-343.86 -311>
LayerCount: 2
Fore
SplineSet
610.36 -354.59 m 1
 610.36 -469.89 l 2
 610.36 -481.73 603.453 -481.39 597.78 -482.13 c 0
 593.37 -482.705 576.482 -477.952 572.8 -476.43 c 0
 432.374 -418.37 349.48 -351.11 287.16 -296.63 c 0
 227.382 -244.371 104.48 -112.87 18.6396 -7.0498 c 1
 18.6396 134.13 l 1
 117.06 12.7695 240.703 -140.505 316.08 -208.57 c 0
 360.098 -248.318 473.464 -342.961 584.22 -361.15 c 0
 599.663 -363.687 605.88 -360.048 610.36 -354.59 c 1
EndSplineSet
EndChar

StartChar: porrectusflexus4
Encoding: 179 -1 179
Width: 628
VWidth: 2500
Flags: HW
VStem: 609.75 18.25<-542 -462.399>
LayerCount: 2
Fore
SplineSet
609.75 -489 m 1
 610 -409.399 l 1
 628 -409.399 l 1
 628 -615.899 l 2
 628 -631.495 628.133 -659.3 618.601 -659.3 c 0
 614.268 -659.3 604.026 -656.095 598 -653.399 c 0
 420 -573.79 231.179 -372.498 0 -32 c 1
 0 183.601 l 1
 61.5332 69.2002 167.165 -79.7559 306.601 -257.5 c 0
 397.664 -373.583 510 -459 553.9 -478.199 c 0
 580.493 -489.829 603.5 -489 609.75 -489 c 1
EndSplineSet
EndChar

StartChar: porrectusflexus4#Cavum
Encoding: 180 -1 180
Width: 628
VWidth: 2500
Flags: HW
VStem: 686 18<-489.438 -449.399>
LayerCount: 2
Fore
SplineSet
609.48 -509.456 m 1
 609.48 -606.666 l 2
 609.48 -618.207 607.04 -624.241 598.604 -625.943 c 0
 595.462 -626.576 568.238 -615.924 563.84 -613.796 c 0
 422.075 -545.23 190.28 -292.9 17.5195 -25.041 c 1
 18.5195 119.244 l 1
 45.8398 58.6592 290.831 -275.035 313.245 -296.011 c 0
 328.827 -310.593 441.689 -448.11 546.686 -499.608 c 0
 558.456 -505.382 576.979 -512.691 594.11 -512.691 c 0
 602.99 -512.691 605.48 -511.415 609.48 -509.456 c 1
EndSplineSet
EndChar

StartChar: porrectusflexus5
Encoding: 181 -1 181
Width: 931
VWidth: 2048
Flags: HW
VStem: 913 18<-696 -597>
LayerCount: 2
Fore
SplineSet
0 -43 m 1
 0 184 l 2
 0 188.739 5.20378 187.559 7 183.75 c 0
 135.5 -88.7509 334 -520.251 913 -674 c 5
 913 -631 913 -617.875 913 -575 c 5
 923.125 -575 926.281 -574.9 931 -575 c 5
 931 -814 l 6
 931 -816.229 930.646 -815.992 928.76 -815.591 c 5
 351 -690 65.5 -252.751 0 -43 c 1
EndSplineSet
EndChar

StartChar: porrectusflexus5#Cavum
Encoding: 182 -1 182
Width: 931
VWidth: 2048
Flags: HW
VStem: 913 18<-696 -597>
LayerCount: 2
Fore
SplineSet
19 118.868 m 0
 134.09 -145.782 394.54 -569.832 913 -691.606 c 1
 913 -795.645 l 1
 403.457 -690.707 94.4697 -280.143 19 -46.9268 c 1
 19 118.868 l 0
EndSplineSet
EndChar

StartChar: porrectusflexusnb1
Encoding: 183 -1 183
Width: 503
VWidth: 2553
Flags: HW
HStem: -180.2 162.8<278.784 502.992>
LayerCount: 2
Fore
SplineSet
503 -28 m 1
 503 -181 l 2
 503 -193.133 489.651 -205.133 468.85 -205.2 c 0
 281.5 -205.804 141.5 -130.799 0 -15 c 1
 0 182.601 l 1
 47.667 135.8 137.5 64.2002 249.85 10.2998 c 4
 301.93 -14.6855 374.667 -36.2002 433.417 -35.4004 c 0
 468.947 -34.917 488.682 -33.3135 503 -28 c 1
EndSplineSet
EndChar

StartChar: porrectusflexusnb1#Cavum
Encoding: 184 -1 184
Width: 503
VWidth: 2553
Flags: HW
VStem: 429 18<4.2854 52.2002>
LayerCount: 2
Fore
SplineSet
485.36 -53.7197 m 1
 485.36 -170.112 l 2
 485.36 -181.333 474.484 -181.997 442.686 -181.944 c 0
 294.632 -181.697 137.5 -105.921 18.6396 -3.27148 c 1
 18.6396 141.345 l 1
 54.2598 107.03 132.66 42.4678 222.286 -0.244141 c 0
 250.564 -13.7202 316.906 -48.0234 401.05 -56.3916 c 0
 425.464 -58.8196 476.221 -57.792 485.36 -53.7197 c 1
EndSplineSet
EndChar

StartChar: porrectusflexusnb2
Encoding: 185 -1 185
Width: 628
VWidth: 2575
Flags: HW
HStem: -346 172.2<478.983 627.283>
LayerCount: 2
Fore
SplineSet
627.986 -190.686 m 5
 628 -331.1 l 1
 628.006 -338.908 620.933 -350.562 601 -351 c 1
 518 -349.5 391.48 -315.605 274.4 -241.2 c 0
 141.892 -156.99 55 -84.5 0 -13.5996 c 1
 0 184 l 1
 139.94 0.328125 354.969 -167.639 540.9 -194.8 c 5
 554.667 -196.333 623 -200.5 627.986 -190.686 c 5
EndSplineSet
EndChar

StartChar: porrectusflexusnb2#Cavum
Encoding: 186 -1 186
Width: 628
VWidth: 2575
Flags: HW
HStem: -354 167.2<435.954 519.633>
VStem: 529 18<-164.776 -116.1>
LayerCount: 2
Fore
SplineSet
609.89 -213.374 m 1
 609.89 -321.034 l 1
 609.895 -326.812 610.7 -329.736 573.95 -330.06 c 1
 433.94 -313.06 320.418 -243.483 271.946 -213.548 c 0
 143.402 -134.163 70.21 -62.6777 18.1104 -7.16406 c 1
 18.1104 134.06 l 1
 38.666 104.143 251.31 -165.82 534.156 -216.732 c 1
 568.814 -218.732 l 1
 587.217 -218.337 604.766 -218.745 609.89 -213.374 c 1
EndSplineSet
EndChar

StartChar: porrectusflexusnb3
Encoding: 187 -1 187
Width: 628
VWidth: 2556
Flags: HW
LayerCount: 2
Fore
SplineSet
627.986 -346.338 m 1
 628 -483.101 l 2
 628.002 -498.698 623.667 -504.41 613 -505.5 c 0
 609.551 -505.852 603.385 -504.924 598 -503.9 c 0
 527 -490.41 416.433 -415.601 297.7 -314.2 c 0
 215.367 -245.733 116.133 -158 0 -15 c 1
 0 182.6 l 1
 132.601 18.7998 233.259 -83.7344 305.601 -153.601 c 0
 440 -283.4 546.855 -331.124 565 -338.91 c 0
 609.3 -357.92 622.667 -355 627.986 -346.338 c 1
EndSplineSet
EndChar

StartChar: porrectusflexusnb3#Cavum
Encoding: 188 -1 188
Width: 628
VWidth: 2556
Flags: HW
HStem: -544 189<554.023 616.5>
VStem: 610 18<-343.86 -311>
LayerCount: 2
Fore
SplineSet
610.36 -370.59 m 1
 610.36 -469.89 l 2
 610.36 -481.73 603.453 -481.39 597.78 -482.13 c 0
 593.37 -482.705 574.561 -478.744 570.8 -477.43 c 0
 493.374 -450.37 347.48 -332.11 285.16 -278.63 c 0
 224.905 -226.922 104.48 -113.87 18.6396 -8.0498 c 1
 18.6396 132.13 l 1
 117.06 10.7695 240.703 -122.505 316.08 -190.57 c 0
 360.098 -230.318 473.464 -329.961 584.22 -369.15 c 0
 598.974 -374.371 605.88 -376.048 610.36 -370.59 c 1
EndSplineSet
EndChar

StartChar: porrectusflexusnb4
Encoding: 189 -1 189
Width: 628
VWidth: 2500
Flags: HW
LayerCount: 2
Fore
SplineSet
627.986 -497.016 m 5
 628 -646.899 l 2
 628.001 -662.494 627.133 -667.3 617.601 -667.3 c 0
 613.268 -667.3 604.067 -664 598 -661.399 c 0
 448.206 -590.618 231.179 -379.498 0 -39 c 1
 0 176.601 l 1
 61.5332 62.2002 162.165 -54.7559 301.601 -232.5 c 0
 392.664 -348.583 454 -402 542.9 -473.199 c 0
 565.555 -491.343 605.333 -501.667 627.986 -497.016 c 5
EndSplineSet
EndChar

StartChar: porrectusflexusnb4#Cavum
Encoding: 190 -1 190
Width: 628
VWidth: 2500
Flags: HW
VStem: 686 18<-489.438 -449.399>
LayerCount: 2
Fore
SplineSet
609.48 -519.456 m 1
 609.48 -615.666 l 2
 609.48 -627.207 607.04 -631.241 598.604 -632.943 c 0
 595.462 -633.576 568.164 -619.07 563.84 -616.796 c 0
 422.075 -542.23 190.28 -295.9 17.5195 -28.041 c 1
 18.5195 113.244 l 1
 45.8398 52.6592 289.45 -249.549 309.245 -273.011 c 0
 438.827 -426.593 501.689 -466.11 514.686 -477.608 c 0
 524.505 -486.296 546.979 -504.691 586.11 -516.691 c 0
 594.599 -519.295 605.48 -519.415 609.48 -519.456 c 1
EndSplineSet
EndChar

StartChar: porrectusflexusnb5
Encoding: 191 -1 191
Width: 931
VWidth: 2048
Flags: HW
LayerCount: 2
Fore
SplineSet
931 -667.5 m 5
 931 -807 l 6
 931 -809.229 930.646 -808.992 928.76 -808.591 c 5
 351 -683 54 -248 0 -33 c 1
 0 184 l 2
 0 188.739 5.35547 187.627 7 183.75 c 0
 122.5 -88.5 359.5 -551.5 886 -671.5 c 5
 908 -676 931 -675.35 931 -667.5 c 5
EndSplineSet
EndChar

StartChar: porrectusflexusnb5#Cavum
Encoding: 192 -1 192
Width: 931
VWidth: 2048
Flags: HW
VStem: 913 18<-696 -597>
LayerCount: 2
Fore
SplineSet
19 118.868 m 0
 133.09 -145.782 381.54 -589.832 913 -695.606 c 1
 913 -786.645 l 1
 403.457 -678.707 90.4697 -275.143 19 -41.9268 c 1
 19 118.868 l 0
EndSplineSet
EndChar

StartChar: Punctum
Encoding: 193 -1 193
Width: 166
VWidth: 2612
Flags: HW
HStem: 13.6123 129.375<20.1646 146.928>
VStem: 18.6152 129.77<13.6123 136.556>
LayerCount: 2
Fore
SplineSet
82.3496 168.7 m 0
 138.25 168.7 166 153.667 166 121.6 c 2
 166 -35.7002 l 1
 147.8 -17.5 120.268 -8.40039 83 -8.40039 c 0
 44.8672 -8.40039 18.2002 -17.5 0 -35.7002 c 1
 0 121.6 l 2
 0 153.667 26.4502 168.7 82.3496 168.7 c 0
EndSplineSet
EndChar

StartChar: Punctum#Cavum
Encoding: 194 -1 194
Width: 166
VWidth: 2612
Flags: W
HStem: 13.6123 129.375<20.1646 146.928>
VStem: 18.6152 129.77<13.6123 136.556>
LayerCount: 2
Fore
SplineSet
82.6133 142.987 m 0
 115.874 142.987 148.401 134.042 148.385 114.963 c 2
 148.3 5.05273 l 1
 134.7 12.7031 99.5791 13.6758 83 13.6123 c 0
 67.7002 13.5527 24.2246 12.2783 18.7002 5.90332 c 1
 18.6152 114.963 l 2
 18.5986 134.042 49.3525 142.987 82.6133 142.987 c 0
EndSplineSet
Validated: 33
EndChar

StartChar: Punctum#Cavum.caeciliae
Encoding: 195 -1 195
Width: 166
VWidth: 2612
Flags: W
HStem: 1.08984 134.42<35.7379 132.653>
VStem: 18.5195 131.561<18.4265 118.175>
LayerCount: 2
Fore
SplineSet
82.8701 135.51 m 0
 123.108 135.51 150.08 105.565 150.08 69.0156 c 0
 150.08 33.3008 123.196 1.08984 82.8701 1.08984 c 0
 48.7578 1.08984 18.5195 30.6182 18.5195 69.0156 c 0
 18.5195 107.482 48.7617 135.51 82.8701 135.51 c 0
EndSplineSet
Validated: 1
EndChar

StartChar: PunctumAscendens
Encoding: 196 -1 196
Width: 166
VWidth: 1149
Flags: W
HStem: -40 189.801<1.44824 130.792>
VStem: 0 166<-8.83884 149.801>
LayerCount: 2
Fore
SplineSet
166 17.2002 m 5
 139.166 -38.7061 47.1416 -40.002 36.1143 -40.002 c 6
 35.1006 -40 l 6
 11.7002 -40 0 -28.7324 0 -6.19922 c 6
 0 168 l 5
 6.93359 155.867 21.2334 149.801 42.9004 149.801 c 4
 70.9697 149.801 152.649 160.094 166 213.5 c 5
 166 17.2002 l 5
EndSplineSet
Validated: 1
EndChar

StartChar: PunctumAscendens#Cavum
Encoding: 197 -1 197
Width: 166
VWidth: 1149
Flags: HW
HStem: -40 189.801<1.44824 130.792>
VStem: 0 166<-8.83884 149.801>
LayerCount: 2
Fore
SplineSet
147.74 27.501 m 1
 126.81 -16.1064 55.0303 -18.1172 46.4287 -18.1172 c 2
 45.6387 -18.1152 l 2
 25.3859 -18.0652 18.2598 -12.3262 18.2598 8.24902 c 2
 18.2598 132.125 l 1
 26.668 129.661 33.8223 128.93 50.7227 128.93 c 1
 49.5205 129.077 98.8545 127.941 147.74 158.615 c 1
 147.74 27.501 l 1
EndSplineSet
EndChar

StartChar: PunctumAscendens_op
Encoding: 198 -1 198
Width: 166
VWidth: 1149
Flags: HW
HStem: -40 189.801<1.44824 130.956>
VStem: 0 166<-8.83884 149.801> 148 18.001<176.404 301.849>
LayerCount: 2
Fore
SplineSet
166 17.2002 m 1xc0
 139.166 -38.7061 47.1416 -40.002 36.1143 -40.002 c 2
 35.1006 -40 l 2
 11.7002 -40 0 -28.7324 0 -6.19922 c 2
 0 168 l 1xc0
 6.93359 155.867 21.2334 149.801 42.9004 149.801 c 0
 64.6542 149.801 118.608 155.983 148 183.625 c 1
 147.801 256 l 6
 147.801 301.24 149.101 302.8 154.301 302.8 c 5
 162.101 301.067 166.001 294.133 166.001 282 c 6xa0
 166 17.2002 l 1xc0
EndSplineSet
EndChar

StartChar: PunctumAuctusLineBL
Encoding: 199 -1 199
Width: 166
VWidth: 2689
Flags: W
HStem: -2 188.502<18.318 130.579>
VStem: 0 166.399<-2 155.451> 0 18<-31 -3.48472>
LayerCount: 2
Fore
SplineSet
166.399 -65.7002 m 1xc0
 152.525 -11.9395 69.9131 -2 42.9004 -2 c 0
 33.0892 -2 24.7887 -3.33277 17.9986 -5.99832 c 1
 18 -21 18 -17 18 -31 c 5
 7 -31 10 -31 0 -31 c 1xa0
 0 154 l 2
 0 175.667 11.7002 186.5 35.1006 186.5 c 0
 35.2783 186.5 35.5742 186.502 35.9805 186.502 c 0
 47.0723 186.502 140.456 185.508 166.399 129.3 c 1
 166.399 -65.7002 l 1xc0
EndSplineSet
Validated: 1
EndChar

StartChar: PunctumAuctusLineBL#Cavum
Encoding: 200 -1 200
Width: 166
VWidth: 2689
Flags: HW
HStem: -40 189.801<1.44824 130.792>
VStem: 0 166<-8.83884 149.801>
LayerCount: 2
Fore
SplineSet
147.48 118.997 m 1
 147.48 -12.1172 l 1
 98.5947 18.5566 49.2607 17.4209 50.4629 17.5684 c 1
 33.5625 17.5684 26.4082 16.8369 18 14.373 c 1
 18 138.249 l 2
 18 158.824 25.126 164.563 45.3789 164.613 c 2
 46.1689 164.615 l 2
 54.7705 164.615 126.55 162.604 147.48 118.997 c 1
EndSplineSet
EndChar

StartChar: PunctumAuctusLineBL_op
Encoding: 201 -1 201
Width: 166
VWidth: 2689
Flags: W
HStem: -2 188.502<18.318 130.544>
VStem: 0 18<-31 -3.48472> 147.8 18.2<-171.849 -28.305>
LayerCount: 2
Fore
SplineSet
147.812 -35.4977 m 1
 117.924 -7.94356 63.789 -2.00001 42.9004 -2 c 0
 33.0892 -2 24.7887 -3.33277 17.9986 -5.99832 c 1
 18 -21 18 -17 18 -31 c 1
 7 -31 10 -31 0 -31 c 1
 0 154 l 2
 0 175.667 11.7002 186.5 35.1006 186.5 c 0
 35.2783 186.5 35.5742 186.502 35.9805 186.502 c 0
 47.0723 186.502 140.456 185.508 166.399 129.3 c 1
 166 -152 l 2
 166 -164.133 162.1 -171.067 154.3 -172.8 c 1
 149.1 -172.8 147.8 -171.24 147.8 -126 c 2
 147.812 -35.4977 l 1
EndSplineSet
Validated: 1
EndChar

StartChar: PunctumDeminutus
Encoding: 202 -1 202
Width: 83
VWidth: 2612
Flags: W
HStem: 25.9307 89.6203<-0.0494156 83.0469>
VStem: -0.30957 83.6192<25.9307 113.636>
LayerCount: 2
Fore
SplineSet
41.1289 115.551 m 0
 69.2578 115.551 83.3096 108.196 83.3096 92.0605 c 2
 83.3096 12.9062 l 1
 74.1514 22.0654 60.209 25.9307 41.4561 25.9307 c 0
 22.2676 25.9307 8.84863 21.3516 -0.30957 12.1934 c 1
 -0.30957 91.3467 l 2
 -0.30957 107.483 13 115.551 41.1289 115.551 c 0
EndSplineSet
Validated: 1
EndChar

StartChar: PunctumDeminutus#Cavum
Encoding: 203 -1 203
Width: 83
VWidth: 2612
Flags: HW
HStem: 25.9307 89.6203<-0.0494156 83.0469>
VStem: -0.30957 83.6192<25.9307 113.636>
LayerCount: 2
Fore
SplineSet
41.292 94.7354 m 0
 56.3691 94.7354 64.9805 91.3242 64.9805 82.543 c 2
 64.9805 41.4102 l 1
 61.5566 43.3936 49.0068 45.124 41.4756 45.124 c 0
 33.6992 45.124 21.4434 42.9922 18.0195 41.0088 c 1
 18.0195 82.1426 l 2
 18.0195 90.9238 26.2139 94.7354 41.292 94.7354 c 0
EndSplineSet
EndChar

StartChar: PunctumDescendens
Encoding: 204 -1 204
Width: 166
VWidth: 1342
Flags: W
HStem: -7.5 181.5<0.219196 130.562>
VStem: 0 166<-7.5 151.125>
LayerCount: 2
Fore
SplineSet
48 174 m 4
 73.3184 174 140 177 166 126.5 c 5
 166 -66.5 l 5
 145 -18 75.9131 -7.5 48.9004 -7.5 c 4
 27.2334 -7.5 6.93359 -12 0 -25 c 5
 0 150.5 l 6
 0 168 36 174 48 174 c 4
EndSplineSet
Validated: 33
EndChar

StartChar: PunctumDescendens#Cavum
Encoding: 205 -1 205
Width: 166
VWidth: 1342
Flags: HW
HStem: -40 189.801<1.44824 130.792>
VStem: 0 166<-8.83884 149.801>
LayerCount: 2
Fore
SplineSet
147.48 116.997 m 1
 147.48 -15.1172 l 1
 98.5947 15.5566 49.2607 14.4209 50.4629 14.5684 c 1
 33.5625 14.5684 26.4082 13.8369 18 11.373 c 1
 18 137.249 l 2
 18 145.824 34.1055 152.585 45.3789 152.613 c 2
 46.1689 152.615 l 2
 49.7676 152.624 122.55 160.604 147.48 116.997 c 1
EndSplineSet
EndChar

StartChar: PunctumDescendens_op
Encoding: 206 -1 206
Width: 166
VWidth: 1342
Flags: W
HStem: -7.5 181.5<0.219196 130.797>
VStem: 0 166<-7.5 151.125> 147.8 18.2<-171.849 -34.2806>
LayerCount: 2
Fore
SplineSet
166 -152 m 6xa0
 166 -164.133 162.1 -171.067 154.3 -172.8 c 5
 149.1 -172.8 147.8 -171.24 147.8 -126 c 6xa0
 148 -41.4123 l 1
 118.662 -14.1666 70.4245 -7.5 48.9004 -7.5 c 0
 27.2334 -7.5 6.93359 -12 0 -25 c 1
 0 150.5 l 2
 0 168 36 174 48 174 c 0
 73.3184 174 140 177 166 126.5 c 1xc0
 166 -152 l 6xa0
EndSplineSet
Validated: 33
EndChar

StartChar: PunctumInclinatumAuctus
Encoding: 207 -1 207
Width: 185
VWidth: 0
Flags: HW
HStem: -71.8662 271.7
VStem: -0.0927734 185.306
LayerCount: 2
Fore
SplineSet
65.2959 -71.8662 m 0
 65.0352 -71.207 66.9351 -71.0073 71 -67 c 1
 71 -67 88 -49 79 -24 c 1
 56.0605 22 -0.0927734 63.9004 -0.0927734 63.9004 c 1
 79.9277 199.834 l 1
 185.213 78.624 l 1
 185.213 78.624 164.717 35.876 130.061 -15 c 0
 118.393 -31.7139 109.061 -46 94.0605 -59 c 1
 80.9023 -69.0273 65.6895 -72.8594 65.2959 -71.8662 c 0
EndSplineSet
EndChar

StartChar: PunctumInclinatumAuctus#Cavum
Encoding: 208 -1 208
Width: 185
VWidth: 0
Flags: W
HStem: -16.332 175.411
VStem: 29.5576 127.859
LayerCount: 2
Fore
SplineSet
98.9121 -16.332 m 1
 91.5579 6.79673 41.0579 61.2967 29.5576 67.7969 c 1
 83.7178 159.079 l 1
 157.417 74.2324 l 1
 157.417 74.2324 143.07 44.3086 118.811 8.69531 c 0
 110.644 -3.00488 109.413 -7.23242 98.9121 -16.332 c 1
EndSplineSet
Validated: 1
EndChar

StartChar: PunctumInclinatumAuctus#Cavum.caeciliae
Encoding: 209 -1 209
Width: 185
VWidth: 2048
Flags: HW
HStem: -21.0186 178.986
VStem: 27.7031 129.714
LayerCount: 2
Fore
SplineSet
31.7031 66.8135 m 1
 83.7178 157.967 l 1
 154.417 76.1201 l 1
 101.801 -14.0186 l 1
 31.7031 66.8135 l 1
EndSplineSet
EndChar

StartChar: PunctumInclinatumAuctus.caeciliae
Encoding: 210 -1 210
Width: 185
VWidth: 2048
Flags: W
HStem: -67.1348 266.969
VStem: -0.0927734 185.306
LayerCount: 2
Fore
SplineSet
67.6621 -61.9316 m 1
 67.6621 -61.9316 92.1875 -45.4102 83.4697 -31.9346 c 1
 57.6875 4.36523 -0.0927734 63.9004 -0.0927734 63.9004 c 1
 79.9277 199.834 l 1
 185.213 78.624 l 1
 185.213 78.624 143.344 2.44141 108.688 -48.4346 c 1
 96.0879 -64.3848 76.5879 -67.1348 76.5879 -67.1348 c 1
 74.2725 -67.2686 69.2207 -66.8652 67.2959 -66.8652 c 0
 64.7744 -66.8652 62.9893 -66.6143 62.9893 -65.7539 c 0
 62.9893 -65.0098 64.3223 -63.8135 67.6621 -61.9316 c 1
EndSplineSet
Validated: 33
EndChar

StartChar: PunctumInclinatumDeminutus
Encoding: 211 -1 211
Width: 139
VWidth: 2649
Flags: W
HStem: -18.2529 192.458
VStem: -0.3125 138.878
LayerCount: 2
Fore
SplineSet
60.0762 174.205 m 1
 138.566 80.8232 l 1
 78.4443 -18.2529 l 1
 -0.3125 71.8936 l 1
 60.0762 174.205 l 1
EndSplineSet
Validated: 1
EndChar

StartChar: PunctumInclinatumDeminutus#Cavum
Encoding: 212 -1 212
Width: 139
VWidth: 2649
Flags: HW
HStem: -18.2529 192.458
VStem: -0.3125 138.878
LayerCount: 2
Fore
SplineSet
63.6963 135.714 m 1
 110.79 79.6846 l 1
 74.7168 20.2383 l 1
 27.4629 74.3262 l 1
 63.6963 135.714 l 1
EndSplineSet
EndChar

StartChar: PunctumLineBL
Encoding: 213 -1 213
Width: 166
VWidth: 2612
Flags: W
HStem: -9.7334 178.1<18.8697 156.903>
VStem: -0 166<-9.7334 156.342> -0 18<-43.333 -19.1875>
LayerCount: 2
Fore
SplineSet
82.3496 168.367 m 4xc0
 138.25 168.367 166 152.334 166 120.267 c 2
 166 -37.0332 l 1xc0
 147.8 -18.833 120.268 -9.7334 83 -9.7334 c 0
 55.9023 -9.7334 34.5947 -14.3281 18 -23.5195 c 1
 18 -35.833 18 -29.166 18 -43.333 c 1
 5.33333 -43.3333 12 -43.333 -0 -43.333 c 1xa0
 -0 120.267 l 2
 -0 152.334 26.4502 168.367 82.3496 168.367 c 4xc0
EndSplineSet
Validated: 1
EndChar

StartChar: PunctumLineBLBR
Encoding: 214 -1 214
Width: 166
VWidth: 2612
Flags: HW
HStem: -9.7334 178.1<18.8697 147.437>
VStem: -0 18<-43.333 -19.1875> 148 18<-42 -19.608>
LayerCount: 2
Fore
SplineSet
82.3496 168.367 m 4
 138.25 168.367 166 152.334 166 120.267 c 6
 166 -42 l 5
 157 -42 158.5 -42 148 -42 c 5
 148 -29 148 -34 148 -23.6039 c 5
 131.182 -14.3568 109.564 -9.7334 83 -9.7334 c 4
 55.9023 -9.7334 34.5947 -14.3281 18 -23.5195 c 5
 18 -35.833 18 -29.166 18 -43.333 c 5
 5.33333 -43.3333 12 -43.333 -0 -43.333 c 5
 -0 120.267 l 6
 -0 152.334 26.4502 168.367 82.3496 168.367 c 4
EndSplineSet
EndChar

StartChar: PunctumLineBR
Encoding: 215 -1 215
Width: 166
VWidth: 2612
Flags: W
HStem: -9.7334 178.1<9.09686 147.13>
VStem: 0 166<-9.7334 156.342> 148 18<-43.333 -19.1875>
LayerCount: 2
Fore
SplineSet
83.6504 168.367 m 4xc0
 139.55 168.367 166 152.334 166 120.267 c 2xc0
 166 -43.333 l 1
 154 -43.333 160.667 -43.333 148 -43.333 c 1
 148 -29.166 148 -35.833 148 -23.5195 c 1xa0
 131.405 -14.3281 110.098 -9.7334 83 -9.7334 c 0
 45.7324 -9.7334 18.2002 -18.833 0 -37.0332 c 1
 0 120.267 l 2
 0 152.334 27.75 168.367 83.6504 168.367 c 4xc0
EndSplineSet
Validated: 1
EndChar

StartChar: PunctumLineTL
Encoding: 216 -1 216
Width: 166
VWidth: 2612
Flags: W
HStem: -10.4004 178.1<12.3342 156.903>
VStem: 0 166<-10.4004 155.675> 0 18<158 173>
LayerCount: 2
Fore
SplineSet
82.3496 167.7 m 4xa0
 138.25 167.7 166 151.667 166 119.6 c 6
 166 -37.7002 l 5xc0
 147.8 -19.5 120.268 -10.4004 83 -10.4004 c 4
 44.8672 -10.4004 18.2002 -19.5 0 -37.7002 c 5
 0 173 l 6
 0 173 6 173 18 173 c 5
 18.5 161.5 18 171.705 18 158 c 5
 26 162 52.8395 167.7 82.3496 167.7 c 4xa0
EndSplineSet
Validated: 1
EndChar

StartChar: PunctumLineTLTR
Encoding: 217 -1 217
Width: 166
VWidth: 2612
Flags: W
HStem: -10.4004 178.1<12.4813 153.666>
VStem: 148 18<158 173>
LayerCount: 2
Fore
SplineSet
83.6504 167.7 m 0
 113.16 167.7 140 162 148 158 c 1
 148 171.705 147.5 161.5 148 173 c 1
 166 173 l 2
 166 -37.7002 l 1
 147.8 -19.5 121.133 -10.4004 83 -10.4004 c 0
 45.7324 -10.4004 18.2002 -19.5 0 -37.7002 c 1
 0 175.5 l 2
 0 175.5 4 175 18 175.5 c 1
 18 167 18 169.5 18 153.906 c 1
 31.8512 163.102 53.7142 167.7 83.6504 167.7 c 0
EndSplineSet
Validated: 1
EndChar

StartChar: PunctumLineTR
Encoding: 218 -1 218
Width: 166
VWidth: 2612
Flags: W
HStem: -10.4004 178.1<9.09686 153.666>
VStem: 0 166<-10.4004 155.675> 148 18<158 173>
LayerCount: 2
Fore
SplineSet
83.6504 167.7 m 4xc0
 113.16 167.7 140 162 148 158 c 5
 148 171.705 147.5 161.5 148 173 c 5
 166 173 l 6
 166 -37.7002 l 5xa0
 147.8 -19.5 121.133 -10.4004 83 -10.4004 c 4
 45.7324 -10.4004 18.2002 -19.5 0 -37.7002 c 5
 0 119.6 l 6
 0 151.667 27.75 167.7 83.6504 167.7 c 4xc0
EndSplineSet
Validated: 1
EndChar

StartChar: PunctumSmall
Encoding: 219 -1 219
Width: 155
VWidth: 2537
Flags: HW
HStem: 5.7998 157.7<9.82522 126.738>
VStem: 0 155<5.7998 151.15> 137 18<-48.8008 -18.2177>
LayerCount: 2
Fore
SplineSet
154.996 -53 m 1
 137 -53 l 1
 137 -45.8008 l 1xa0
 137 -18 119.521 7.7998 78.3994 7.7998 c 4
 48.0674 7.7998 19.9326 0.867188 0 -13 c 5
 0 116.1 l 6
 0 149.032 28.1328 165.5 78.3994 165.5 c 4
 111.55 165.5 155.001 155.619 155 116.1 c 6xc0
 154.996 -53 l 1
EndSplineSet
EndChar

StartChar: PunctumSmall#Cavum
Encoding: 220 -1 220
Width: 155
VWidth: 2537
Flags: HW
HStem: 13.6123 129.375<20.1646 146.928>
VStem: 18.6152 129.77<13.6123 136.556>
LayerCount: 2
Fore
SplineSet
76.6934 143.78 m 0
 106.96 143.78 136.558 135.64 136.545 118.278 c 2
 136.468 12.2598 l 1
 129.092 19.2217 97.1318 29.1064 79.0449 29.0488 c 0
 65.1221 29.0049 22.5596 24.835 18.5322 20.0342 c 1
 18.4551 118.278 l 2
 18.4414 135.64 46.4258 143.78 76.6934 143.78 c 0
EndSplineSet
EndChar

StartChar: queue
Encoding: 221 -1 221
Width: 18
VWidth: 2048
Flags: HW
HStem: -166 161<0.0777626 17.6273>
VStem: 0.0751953 17.7998<-165.201 -5>
LayerCount: 2
Fore
SplineSet
0 7 m 25
 18 7 l 25
 18 -6.2002 l 2
 17.5713 -51.4385 16.5752 -53 11.375 -53 c 1
 3.5752 -51.2666 0.0234375 -44.333 0 -32.2002 c 6
 0 7 l 25
EndSplineSet
EndChar

StartChar: queuebase
Encoding: 222 -1 222
Width: 18
VWidth: 2048
Flags: HW
HStem: 64 32<0 1>
VStem: 0 1<64 96>
LayerCount: 2
Fore
SplineSet
0 0 m 25
 0 1 l 25
 18 1 l 25
 18 0 l 25
 0 0 l 25
EndSplineSet
EndChar

StartChar: Quilisma
Encoding: 223 -1 223
Width: 166
VWidth: 2496
Flags: HW
HStem: -45 227.7
VStem: 0 59<-41.0625 -13.0609> 166 0<156.459 170.8>
LayerCount: 2
Fore
SplineSet
0 0 m 2
 0 139 l 1
 7 126 20.3994 87.0996 36 87.0996 c 0
 51.5996 87.0996 43.5 161 59.3994 162.1 c 0
 76.958 163.314 76.7324 109.2 95.7998 109.2 c 0
 110.532 109.2 101 181.5 116.6 182.7 c 0
 134.45 184.073 135.688 127.5 149.3 127.5 c 3
 161.688 127.5 164.333 190.333 166 208.8 c 5
 166 48.4004 l 2
 166 22 159.985 -2.85156 148.399 -2.7998 c 0
 132.906 -2.73047 130.5 44 118.5 42.5 c 0
 106.097 40.9492 115.007 -21.5 95.5 -21.5 c 0
 72.5 -21.5 71.5 22.5 59 20.5 c 0
 51.1006 19.2363 51.9479 -42.5551 33 -45 c 0
 17.5 -47 0 -16 0 0 c 2
EndSplineSet
EndChar

StartChar: Quilisma#Cavum
Encoding: 224 -1 224
Width: 166
VWidth: 2496
Flags: HW
HStem: -45 227.7
VStem: 0 59<-41.0625 -13.0609> 166 0<156.459 170.8>
LayerCount: 2
Fore
SplineSet
18.2598 18.0176 m 2
 18.2598 74.4375 l 1
 22.7197 69.2979 30.3418 61.6514 40.3398 62.9561 c 0
 55.5957 64.9473 59.1377 109.479 63.5918 113.456 c 0
 69.8917 119.081 79.1113 83.1943 93.9834 83.1943 c 0
 116.475 83.1943 119.244 136.933 121.208 139.524 c 0
 126.17 146.073 133.783 101.468 142.714 101.468 c 3
 144.377 101.468 146.439 101.478 147.74 102.882 c 1
 147.74 55.7705 l 2
 147.74 44.1777 148.045 32.7158 145.012 32.834 c 0
 140.928 32.9932 132.869 70.2734 117.69 69.168 c 0
 93.4688 67.4043 98.9658 12.248 90.75 12.248 c 0
 80.8096 12.248 75.0547 46.1797 57.2803 46.0078 c 0
 37.0613 45.8123 38.5391 -5.28906 30 -8.08203 c 0
 22.0879 -10.6699 18.2598 11.5381 18.2598 18.0176 c 2
EndSplineSet
EndChar

StartChar: QuilismaLineTR
Encoding: 225 -1 225
Width: 166
VWidth: 2496
Flags: W
HStem: -45 241.5
VStem: 0 59<-41.0625 -13.0609>
LayerCount: 2
Fore
SplineSet
0 0 m 6
 0 139 l 5
 7 126 20.3994 87.0996 36 87.0996 c 4
 51.5996 87.0996 43.5 161 59.3994 162.1 c 4
 76.958 163.314 76.7324 109.2 95.7998 109.2 c 4
 110.532 109.2 101 181.5 116.6 182.7 c 4
 134.45 184.073 135.11 126.063 143.3 127.5 c 4
 149 128.5 148 175 148 196.5 c 5
 158 196.5 156 196 166 196.8 c 5
 166 48.4004 l 6
 166 22 154.985 -1.85191 146.399 -2.7998 c 4
 131 -4.5 128.5 44 116.5 42.5 c 4
 104.097 40.9492 115.007 -21.5 95.5 -21.5 c 4
 72.5 -21.5 71.5 22.5 59 20.5 c 4
 51.1006 19.2363 51.9479 -42.5551 33 -45 c 4
 17.5 -47 0 -16 0 0 c 6
EndSplineSet
Validated: 33
EndChar

StartChar: QuilismaPesOneNothing
Encoding: 226 -1 226
Width: 166
VWidth: 2496
Flags: HW
HStem: -45 227.7
VStem: 0 59<-41.0625 -13.0609> 166 0<156.459 170.8>
LayerCount: 2
Fore
SplineSet
0 -3 m 2xd0
 0 116 l 1
 7 103 20.3994 64.0996 36 64.0996 c 0
 51.5996 64.0996 43.5 138 59.3994 139.1 c 0
 76.958 140.314 76.7324 86.2002 95.7998 86.2002 c 0
 110.532 86.2002 101 158.5 116.6 159.7 c 0
 134.45 161.073 135.11 103.063 143.3 104.5 c 0
 147.555 105.246 148.267 122.257 148 153.199 c 0xd0
 147.812 175 130.521 181.8 89.3994 181.8 c 0
 59.0674 181.8 30.9326 174.867 11 161 c 1
 11 294.1 l 2
 11 327.032 39.1328 343.5 89.3994 343.5 c 0
 122.55 343.5 166 333.619 166 294.1 c 2xa0
 166 45.4004 l 2
 166 19 154.985 -4.85156 146.399 -5.7998 c 0
 131 -7.5 128.5 41 116.5 39.5 c 0
 104.097 37.9492 115.007 -24.5 95.5 -24.5 c 0
 72.5 -24.5 71.5 19.5 59 17.5 c 0
 51.1006 16.2363 51.9482 -45.5547 33 -48 c 0
 17.5 -50 0 -19 0 -3 c 2xd0
EndSplineSet
EndChar

StartChar: QuilismaPesOneNothing#Cavum
Encoding: 227 -1 227
Width: 166
VWidth: 2496
Flags: HW
HStem: 13.6123 129.375<20.1646 146.928>
VStem: 18.6152 129.77<13.6123 136.556>
LayerCount: 2
Fore
SplineSet
87.6934 319.78 m 0
 117.96 319.78 147.56 311.64 147.545 294.278 c 2
 147.468 194.26 l 1
 135.092 201.222 103.132 203.106 88.0449 203.049 c 0
 74.1221 202.995 34.5596 200.835 29.5322 195.034 c 1
 29.4551 294.278 l 2
 29.4395 311.64 57.4258 319.78 87.6934 319.78 c 0
18.2598 5.01758 m 2
 18.2598 61.4375 l 1
 22.7197 56.2979 30.3418 48.6514 40.3398 49.9561 c 0
 55.5957 51.9473 59.1377 96.4795 63.5918 100.456 c 0
 69.8916 106.08 79.1113 70.1943 93.9834 70.1943 c 0
 116.475 70.1943 119.244 123.933 121.208 126.524 c 0
 126.17 133.073 133.782 88.4678 142.714 88.4678 c 3
 144.377 88.4678 146.439 88.4775 147.74 89.8818 c 1
 147.74 42.7705 l 2
 147.74 31.1777 148.045 19.7158 145.012 19.834 c 0
 140.928 19.9932 132.869 57.2734 117.69 56.168 c 0
 93.4688 54.4043 98.9658 -0.751953 90.75 -0.751953 c 0
 80.8096 -0.751953 75.0547 33.1797 57.2803 33.0078 c 0
 37.0615 32.8125 38.5391 -18.2891 30 -21.082 c 0
 22.0879 -23.6699 18.2598 -1.46191 18.2598 5.01758 c 2
EndSplineSet
EndChar

StartChar: rdeminutus
Encoding: 228 -1 228
Width: 83
VWidth: 2605
Flags: W
HStem: 30.0996 113.299<9.7355 63.4201>
VStem: 0 83<30.0996 132.998> 65 18<-63 22.7177>
LayerCount: 2
Fore
SplineSet
53.2998 143.399 m 0xc0
 71.2393 143.399 83 133.52 83 118.699 c 2xc0
 83 -63 l 1
 65 -63 l 1
 65 -1 l 6xa0
 65 13.667 54.0078 30.1602 42.8994 30.0996 c 4
 24.667 30 10.3994 24.0322 0 11.8994 c 5
 0 94 l 2
 0 119.286 23.5117 143.399 53.2998 143.399 c 0xc0
EndSplineSet
Validated: 33
EndChar

StartChar: rdeminutus#Cavum
Encoding: 229 -1 229
Width: 83
VWidth: 2605
Flags: HW
HStem: 30.0996 113.299<9.7355 63.4201>
VStem: 0 83<30.0996 132.998> 65 18<-63 22.7177>
LayerCount: 2
Fore
SplineSet
65.1553 46 m 1xa0
 62.1553 54.3604 48.6299 55.4775 42.2979 55.4424 c 0
 31.9053 55.3857 24.7725 52.916 17.8447 46 c 1
 17.8447 88.8662 l 2
 17.8447 103.279 31.2471 120.023 48.2256 120.023 c 0xc0
 58.4512 120.023 65.1553 114.393 65.1553 105.944 c 2xc0
 65.1553 46 l 1xa0
EndSplineSet
EndChar

StartChar: RoundBrace
Encoding: 230 -1 230
Width: 937
VWidth: 2048
Flags: W
HStem: 864 31<320.267 618.64>
LayerCount: 2
Fore
SplineSet
-1.91563 703.473 m 0
 -1.91563 705.25 -1.33519 707.4 0 710 c 4
 19 747 177.993 895 471 895 c 4
 759.007 895 918 747 937 710 c 4
 938.335 707.4 938.916 705.25 938.916 703.473 c 0
 938.916 695.081 925.968 695 918.439 695 c 2
 918 695 l 6
 909 695 907.881 703.299 899 713 c 4
 780 843 552 864 471 864 c 4
 385 864 157 843 38 713 c 4
 29.1191 703.299 28 695 19 695 c 6
 18.5613 695 l 2
 11.032 695 -1.91563 695.081 -1.91563 703.473 c 0
EndSplineSet
Validated: 1
EndChar

StartChar: RoundBraceDown
Encoding: 231 -1 231
Width: 937
VWidth: 2048
Flags: W
HStem: 55 31<320.267 618.64>
LayerCount: 2
Fore
SplineSet
-1.91602 246.527 m 0
 -1.91602 254.919 11.0322 255 18.5615 255 c 2
 19 255 l 2
 28 255 29.1191 246.701 38 237 c 0
 157 107 385 86 471 86 c 0
 552 86 780 107 899 237 c 0
 907.881 246.701 909 255 918 255 c 2
 918.439 255 l 2
 925.968 255 938.916 254.919 938.916 246.527 c 0
 938.916 244.75 938.335 242.6 937 240 c 0
 918 203 759.007 55 471 55 c 0
 177.993 55 19 203 0 240 c 0
 -1.33496 242.6 -1.91602 244.75 -1.91602 246.527 c 0
EndSplineSet
Validated: 1
EndChar

StartChar: rqueue
Encoding: 232 -1 232
Width: 18
VWidth: 2048
Flags: HW
HStem: -166 161<0.3727 17.9222>
VStem: 0.125004 17.7998<-165.201 -5>
LayerCount: 2
Fore
SplineSet
18 7 m 25
 18 -32.2002 l 6
 17.9766 -44.333 14.4248 -51.2666 6.625 -53 c 1
 1.4248 -53 0.428711 -51.4385 0 -6.2002 c 2
 0 7 l 25
 18 7 l 25
EndSplineSet
EndChar

StartChar: rvbase
Encoding: 233 -1 233
Width: 166
VWidth: 2637
Flags: HW
HStem: -10.2998 179.4<18.552 147.137>
VStem: 148 18<-53 -24.3222> -1.06581e-14 18.2<-372.149 -26.327>
LayerCount: 2
Fore
SplineSet
18.2002 -59 m 5
 0 -59 l 1
 0 121 l 2
 0 153.067 27.9502 169.1 83.8506 169.1 c 0
 139.75 169.1 166 153.067 166 121 c 2
 166 -53 l 1
 150.333 -53 157.989 -53.0137 148 -53 c 1
 147.989 -40.0137 148 -49.667 148 -29.5322 c 1
 132 -18.916 111.063 -11.0234 83.2002 -10.2998 c 0
 56.3418 -9.60254 25.333 -25.334 18.2002 -32.4004 c 1
 18.2002 -59 l 5
EndSplineSet
EndChar

StartChar: rvirgabase
Encoding: 234 -1 234
Width: 166
VWidth: 2637
Flags: HW
LayerCount: 2
Fore
SplineSet
18.2002 -65 m 5
 0 -65 l 1
 0 125 l 2xc0
 0 157.067 27.9502 173.1 83.8506 173.1 c 0
 139.75 173.1 166.4 157.067 166.4 125 c 2
 166.4 -32.2998 l 1
 149.067 -14.9668 122.2 -6.2998 83.2002 -6.2998 c 0
 56.333 -6.2998 34.667 -13.667 18.2002 -28.4004 c 1xa0
 18.2002 -65 l 5
EndSplineSet
EndChar

StartChar: Semicirculus
Encoding: 235 -1 235
Width: 124
VWidth: 1606
Flags: W
HStem: -641.142 23.94 -138.402 23.94 364.338 23.94 867.078 23.94
LayerCount: 2
Fore
SplineSet
95.5166 11.623 m 1
 124.244 11.623 l 1
 124.244 -23.4893 97.1123 -50.623 62 -50.623 c 0
 26.8877 -50.623 -0.244141 -23.4893 -0.244141 11.623 c 1
 28.4834 11.623 l 1
 28.4834 -7.53027 42.8486 -21.8936 62 -21.8936 c 0
 81.1514 -21.8936 95.5166 -7.53027 95.5166 11.623 c 1
EndSplineSet
Validated: 1
EndChar

StartChar: SemicirculusReversus
Encoding: 236 -1 236
Width: 125
VWidth: 1583
Flags: W
HStem: -664.386 23.94 -161.646 23.94 341.094 23.94 843.834 23.94
LayerCount: 2
Fore
SplineSet
95.7607 -11.6357 m 1
 95.7607 7.51758 81.3955 21.8809 62.2441 21.8809 c 0
 43.0928 21.8809 28.7275 7.51758 28.7275 -11.6357 c 1
 0 -11.6357 l 1
 0 23.4766 27.1318 50.6104 62.2441 50.6104 c 0
 97.3564 50.6104 124.488 23.4766 124.488 -11.6357 c 1
 95.7607 -11.6357 l 1
EndSplineSet
Validated: 1
EndChar

StartChar: Sharp
Encoding: 237 -1 237
Width: 258
VWidth: 2048
Flags: W
HStem: -50.2002 246.4<61.9004 69.5996 116.9 124.6 243.4 251.1 298.4 306.1>
VStem: 0.299805 257.4
LayerCount: 2
Fore
SplineSet
0.299805 183 m 0
 0.299805 189.6 6.90039 196.2 13.5 196.2 c 0
 14.5996 196.2 20.0996 195.1 23.4004 190.7 c 2
 101.5 93.9004 l 1
 112.5 107.1 l 1
 58.5996 175.3 l 2
 56.4004 177.5 55.2998 179.7 55.2998 183 c 0
 55.2998 189.6 61.9004 196.2 68.5 196.2 c 0
 69.5996 196.2 75.0996 195.1 78.4004 190.7 c 2
 129 128 l 1
 179.6 190.7 l 2
 182.9 195.1 188.4 196.2 189.5 196.2 c 0
 196.1 196.2 202.7 189.6 202.7 183 c 0
 202.7 179.7 201.6 177.5 199.4 175.3 c 2
 145.5 107.1 l 1
 156.5 93.9004 l 1
 234.6 190.7 l 2
 237.9 195.1 243.4 196.2 244.5 196.2 c 0
 251.1 196.2 257.7 189.6 257.7 183 c 0
 257.7 179.7 256.6 177.5 254.4 175.3 c 2
 173 73 l 1
 254.4 -29.2998 l 2
 256.6 -31.5 257.7 -33.7002 257.7 -37 c 0
 257.7 -43.5996 251.1 -50.2002 244.5 -50.2002 c 0
 243.4 -50.2002 237.9 -49.0996 234.6 -44.7002 c 2
 156.5 52.0996 l 1
 145.5 38.9004 l 1
 199.4 -29.2998 l 2
 201.6 -31.5 202.7 -33.7002 202.7 -37 c 0
 202.7 -43.5996 196.1 -50.2002 189.5 -50.2002 c 0
 188.4 -50.2002 182.9 -49.0996 179.6 -44.7002 c 2
 129 18 l 1
 78.4004 -44.7002 l 2
 75.0996 -49.0996 69.5996 -50.2002 68.5 -50.2002 c 0
 61.9004 -50.2002 55.2998 -43.5996 55.2998 -37 c 0
 55.2998 -33.7002 56.4004 -31.5 58.5996 -29.2998 c 2
 112.5 38.9004 l 1
 101.5 52.0996 l 1
 23.4004 -44.7002 l 2
 20.0996 -49.0996 14.5996 -50.2002 13.5 -50.2002 c 0
 6.90039 -50.2002 0.299805 -43.5996 0.299805 -37 c 0
 0.299805 -33.7002 1.40039 -31.5 3.59961 -29.2998 c 2
 85 73 l 1
 3.59961 175.3 l 2
 1.40039 177.5 0.299805 179.7 0.299805 183 c 0
129 58.7002 m 5
 140 73 l 5
 129 87.2998 l 5
 118 73 l 5
 129 58.7002 l 5
EndSplineSet
Validated: 1
EndChar

StartChar: Sharp.modern
Encoding: 238 -1 238
Width: 162
Flags: W
VStem: 38.5 25.667<-193.491 -47.9297 9.49219 116.571 173.699 319.097> 98 25.5<-182.085 -38.8672 18.4727 125.112 182.473 330.499>
LayerCount: 2
Fore
SplineSet
98 179.006 m 0
 98.2998 307.7 l 1
 98.2998 328.101 l 1
 102.3 329.7 106.499 330.5 110.899 330.5 c 0
 115.3 330.5 119.5 329.7 123.5 328.101 c 1
 123.5 182.473 l 0
 152 186.301 l 1
 157 182.25 160.5 181.69 162 174.19 c 1
 163 159.19 158.5 143.69 152.5 132.434 c 1
 123.5 128.192 l 0
 123.5 18.4727 l 0
 152 23.0508 l 1
 157 19 160.5 18.9404 162 11.4404 c 1
 163 -3.55957 158.5 -19.5596 152.5 -30.8164 c 1
 123.5 -34.8076 l 0
 123.501 -179.7 l 1
 119.501 -181.3 114.301 -182.1 109.9 -182.1 c 0
 105.5 -182.1 102.301 -181.3 98.3008 -179.7 c 1
 98.3008 -159.3 l 1
 98.5 -38.8672 l 0
 63.5 -43.8506 l 0
 63.2002 -107.3 l 1
 63.2002 -191.101 l 1
 59.2002 -192.7 55 -193.5 50.5996 -193.5 c 0
 46.1992 -193.5 42 -192.7 38 -191.101 c 1
 38.5 -47.9297 l 0
 10 -53.0078 l 1
 5 -48.957 1.5 -47.3975 0 -39.8975 c 1
 -1 -24.8975 3.5 -9.39746 9.5 1.85938 c 1
 38.5 5.85059 l 0
 38.5 116.571 l 0
 10 111.992 l 1
 5 116.043 1.5 116.603 0 124.103 c 1
 -1 139.103 3.5 154.603 9.5 165.859 c 1
 38.5 169.851 l 0
 39 316.7 l 1
 43 318.3 47.1992 319.1 51.5996 319.1 c 0
 56 319.1 60.2002 318.3 64.2002 316.7 c 1
 64.2002 232.899 l 1
 64 173.699 l 1
 98 179.006 l 0
38.5 5.85059 m 0
64.167 9.49219 m 0
 98.167 14.6846 l 0
 98.167 125.112 l 0
 64.25 119.892 l 0
 64.167 9.49219 l 0
EndSplineSet
EndChar

StartChar: SharpHole
Encoding: 239 -1 239
Width: 258
VWidth: 2048
Flags: W
HStem: 57.2705 31.459
VStem: 116.9 24.2
LayerCount: 2
Fore
SplineSet
129 57.2705 m 1
 116.9 73 l 1
 129 88.7295 l 1
 141.1 73 l 1
 129 57.2705 l 1
EndSplineSet
Validated: 1
EndChar

StartChar: SharpHole.modern
Encoding: 240 -1 240
Width: 162
Flags: HW
VStem: 38.5 25.667<-193.491 -47.9297 9.49219 116.571 173.699 319.097> 98 25.5<-182.085 -38.8672 18.4727 125.112 182.473 330.499>
LayerCount: 2
Fore
SplineSet
64.167 9.49219 m 0
 64.25 119.892 l 0
 98.167 125.112 l 0
 98.167 14.6846 l 0
 64.167 9.49219 l 0
EndSplineSet
EndChar

StartChar: SharpParen
Encoding: 241 -1 241
Width: 428
VWidth: 2048
Flags: W
VStem: 0 18<11.9414 123.487> 410 18<11.9414 123.487>
LayerCount: 2
Fore
SplineSet
350 -101.569 m 5
 350 -101.569 410 -17.333 410 67.71 c 4
 410 152.765 350.001 237.021 350.001 237.021 c 5
 350.001 237.021 351.476 239.568 353 240.521 c 28
 354.727 241.601 358.001 242.021 358.001 242.021 c 5
 358.001 242.021 428 155.968 428 67.71 c 4
 428 -20.5371 358 -106.569 358 -106.569 c 5
 358 -106.569 354.727 -106.148 353 -105.069 c 28
 351.476 -104.116 350 -101.569 350 -101.569 c 5
78 -101.569 m 5
 78 -101.569 76.5244 -104.116 75 -105.069 c 28
 73.2734 -106.148 70 -106.569 70 -106.569 c 5
 70 -106.569 0 -20.5371 0 67.71 c 4
 0 155.968 69.999 242.021 69.999 242.021 c 5
 69.999 242.021 73.2734 241.601 75 240.521 c 28
 76.5244 239.568 77.999 237.021 77.999 237.021 c 5
 77.999 237.021 18 152.765 18 67.71 c 4
 18 -17.333 78 -101.569 78 -101.569 c 5
85.2998 183 m 0
 85.2998 189.6 91.9004 196.2 98.5 196.2 c 0
 99.5996 196.2 105.1 195.1 108.4 190.7 c 2
 186.5 93.9004 l 1
 197.5 107.1 l 1
 143.6 175.3 l 2
 141.4 177.5 140.3 179.7 140.3 183 c 0
 140.3 189.6 146.9 196.2 153.5 196.2 c 0
 154.6 196.2 160.1 195.1 163.4 190.7 c 2
 214 128 l 1
 264.6 190.7 l 2
 267.9 195.1 273.4 196.2 274.5 196.2 c 0
 281.1 196.2 287.7 189.6 287.7 183 c 0
 287.7 179.7 286.6 177.5 284.4 175.3 c 2
 230.5 107.1 l 1
 241.5 93.9004 l 1
 319.6 190.7 l 2
 322.9 195.1 328.4 196.2 329.5 196.2 c 0
 336.1 196.2 342.7 189.6 342.7 183 c 0
 342.7 179.7 341.6 177.5 339.4 175.3 c 2
 258 73 l 1
 339.4 -29.2998 l 2
 341.6 -31.5 342.7 -33.7002 342.7 -37 c 0
 342.7 -43.5996 336.1 -50.2002 329.5 -50.2002 c 0
 328.4 -50.2002 322.9 -49.0996 319.6 -44.7002 c 2
 241.5 52.0996 l 1
 230.5 38.9004 l 1
 284.4 -29.2998 l 2
 286.6 -31.5 287.7 -33.7002 287.7 -37 c 0
 287.7 -43.5996 281.1 -50.2002 274.5 -50.2002 c 0
 273.4 -50.2002 267.9 -49.0996 264.6 -44.7002 c 2
 214 18 l 1
 163.4 -44.7002 l 2
 160.1 -49.0996 154.6 -50.2002 153.5 -50.2002 c 0
 146.9 -50.2002 140.3 -43.5996 140.3 -37 c 0
 140.3 -33.7002 141.4 -31.5 143.6 -29.2998 c 2
 197.5 38.9004 l 1
 186.5 52.0996 l 1
 108.4 -44.7002 l 2
 105.1 -49.0996 99.5996 -50.2002 98.5 -50.2002 c 0
 91.9004 -50.2002 85.2998 -43.5996 85.2998 -37 c 0
 85.2998 -33.7002 86.4004 -31.5 88.5996 -29.2998 c 2
 170 73 l 1
 88.5996 175.3 l 2
 86.4004 177.5 85.2998 179.7 85.2998 183 c 0
214 58.7002 m 1
 225 73 l 1
 214 87.2998 l 1
 203 73 l 1
 214 58.7002 l 1
EndSplineSet
EndChar

StartChar: SharpParen.modern
Encoding: 242 -1 242
Width: 332
Flags: HW
VStem: 0 18<11.9414 123.487> 123.5 25.667<-193.491 -47.9297 9.49219 116.571 173.699 319.097> 183 25.5<-182.085 -38.8672 18.4727 125.112 182.473 330.499> 314 18<11.9414 123.487>
LayerCount: 2
Fore
SplineSet
254 -101.569 m 1
 254 -101.569 314 -17.333 314 67.71 c 0
 314 152.765 254.001 237.021 254.001 237.021 c 1
 254.001 237.021 255.476 239.568 257 240.521 c 24
 258.727 241.601 262.001 242.021 262.001 242.021 c 1
 262.001 242.021 332 155.968 332 67.71 c 0
 332 -20.5371 262 -106.569 262 -106.569 c 1
 262 -106.569 258.727 -106.148 257 -105.069 c 24
 255.476 -104.116 254 -101.569 254 -101.569 c 1
78 -101.569 m 5
 78 -101.569 76.5244 -104.116 75 -105.069 c 28
 73.2734 -106.148 70 -106.569 70 -106.569 c 5
 70 -106.569 0 -20.5371 0 67.71 c 4
 0 155.968 69.999 242.021 69.999 242.021 c 5
 69.999 242.021 73.2734 241.601 75 240.521 c 28
 76.5244 239.568 77.999 237.021 77.999 237.021 c 5
 77.999 237.021 18 152.765 18 67.71 c 4
 18 -17.333 78 -101.569 78 -101.569 c 5
183 179.006 m 0
 183.3 307.7 l 1
 183.3 328.101 l 1
 187.3 329.7 191.499 330.5 195.899 330.5 c 0
 200.3 330.5 204.5 329.7 208.5 328.101 c 1
 208.5 182.473 l 0
 237 186.301 l 1
 242 182.25 245.5 181.69 247 174.19 c 1
 248 159.19 243.5 143.69 237.5 132.434 c 1
 208.5 128.192 l 0
 208.5 18.4727 l 0
 237 23.0508 l 1
 242 19 245.5 18.9404 247 11.4404 c 1
 248 -3.55957 243.5 -19.5596 237.5 -30.8164 c 1
 208.5 -34.8076 l 0
 208.501 -179.7 l 1
 204.501 -181.3 199.301 -182.1 194.9 -182.1 c 0
 190.5 -182.1 187.301 -181.3 183.301 -179.7 c 1
 183.301 -159.3 l 1
 183.5 -38.8672 l 0
 148.5 -43.8506 l 0
 148.2 -107.3 l 1
 148.2 -191.101 l 1
 144.2 -192.7 140 -193.5 135.6 -193.5 c 0
 131.199 -193.5 127 -192.7 123 -191.101 c 1
 123.5 -47.9297 l 0
 95 -53.0078 l 1
 90 -48.957 86.5 -47.3975 85 -39.8975 c 1
 84 -24.8975 88.5 -9.39746 94.5 1.85938 c 1
 123.5 5.85059 l 0
 123.5 116.571 l 0
 95 111.992 l 1
 90 116.043 86.5 116.603 85 124.103 c 1
 84 139.103 88.5 154.603 94.5 165.859 c 1
 123.5 169.851 l 0
 124 316.7 l 1
 128 318.3 132.199 319.1 136.6 319.1 c 0
 141 319.1 145.2 318.3 149.2 316.7 c 1
 149.2 232.899 l 1
 149 173.699 l 1
 183 179.006 l 0
123.5 5.85059 m 0
149.167 9.49219 m 0
 183.167 14.6846 l 0
 183.167 125.112 l 0
 149.25 119.892 l 0
 149.167 9.49219 l 0
EndSplineSet
EndChar

StartChar: SharpParenHole
Encoding: 243 -1 243
Width: 428
VWidth: 2048
Flags: W
HStem: 57.2705 31.459
VStem: 201.9 24.1992
LayerCount: 2
Fore
SplineSet
214 57.2705 m 1
 201.9 73 l 1
 214 88.7295 l 1
 226.1 73 l 1
 214 57.2705 l 1
EndSplineSet
EndChar

StartChar: SharpParenHole.modern
Encoding: 244 -1 244
Width: 332
Flags: W
HStem: 9.49219 115.62
VStem: 149.167 34<14.6846 119.892>
LayerCount: 2
Fore
SplineSet
149.167 9.49219 m 0
 149.25 119.892 l 0
 183.167 125.112 l 0
 183.167 14.6846 l 0
 149.167 9.49219 l 0
EndSplineSet
EndChar

StartChar: StansPunctumInclinatum
Encoding: 245 -1 245
Width: 185
VWidth: 2612
Flags: HW
HStem: -59.373 255.694
VStem: -0.0930023 185.306
LayerCount: 2
Fore
SplineSet
185.568 68 m 1
 93 -59.918 l 1
 -0.31543 68 l 1
 93 196.93 l 1
 185.568 68 l 1
EndSplineSet
EndChar

StartChar: StansPunctumInclinatum#Cavum
Encoding: 246 -1 246
Width: 185
VWidth: 2612
Flags: HW
HStem: -21.0186 178.986
VStem: 27.7031 129.714
LayerCount: 2
Fore
SplineSet
157.664 68 m 5
 93 -21.3965 l 1
 27.5449 68 l 5
 93 158.397 l 1
 157.664 68 l 5
EndSplineSet
EndChar

StartChar: Stropha
Encoding: 247 -1 247
Width: 172
VWidth: 2048
Flags: HW
HStem: -66 266
VStem: -0 170
LayerCount: 2
Fore
SplineSet
70 -62 m 4
 79.8649 -53.4222 88.9512 -29.3285 85 -13 c 0
 81 -1 78 11 68 23 c 0
 41 54 -0 75 -0 75 c 1
 82 200 l 1
 82 200 160 148 170 95 c 24
 179 42 138.837 -22.7 124 -36 c 0
 107.669 -50.639 84.5958 -64.269 76 -66 c 0
 71.2531 -66.9559 71 -67 69 -67 c 0
 67 -67 65 -67 65 -66 c 0
 65 -65 68.1093 -63.644 70 -62 c 4
EndSplineSet
EndChar

StartChar: Stropha#Cavum
Encoding: 248 -1 248
Width: 172
VWidth: 2048
Flags: HW
HStem: -66 266
VStem: -0 170
LayerCount: 2
Fore
SplineSet
105.501 -20.4502 m 1
 109.667 -9.7002 103.526 0.874791 99 12.8496 c 0
 96.012 20.7554 87.0996 31.6504 80.0996 40.0498 c 0
 61.6766 62.1559 29.5 80.4502 29.5 80.4502 c 1
 86.9004 167.95 l 1
 86.9004 167.95 140.466 130.978 148.5 94.4502 c 0
 157.519 53.4394 130.66 6.91429 122.3 -4.25 c 0
 119.868 -7.49707 113.333 -16.7002 105.501 -20.4502 c 1
EndSplineSet
EndChar

StartChar: Stropha#Cavum.caeciliae
Encoding: 249 -1 249
Width: 151
VWidth: 2686
Flags: HW
HStem: -49.1729 234.545
VStem: 0 151
LayerCount: 2
Fore
SplineSet
69.2061 -13.9912 m 1
 69.2061 -1.40039 53.166 24.1768 42.7432 40.1709 c 2
 22.6504 71.0049 l 1
 73.748 148.19 l 1
 77.2617 137.085 89.1484 120.963 101.983 104.491 c 2
 128.35 70.6553 l 1
 112.14 41.0186 l 2
 95.2803 10.1963 87.3369 1.21484 69.2061 -13.9912 c 1
EndSplineSet
EndChar

StartChar: Stropha.caeciliae
Encoding: 250 -1 250
Width: 151
VWidth: 2686
Flags: W
HStem: -49.1729 234.545
VStem: 0 151
LayerCount: 2
Fore
SplineSet
75.8545 185.372 m 5
 82.3018 165.222 94.9971 143.619 113.334 120.087 c 6
 151 71.75 l 5
 127.842 29.4121 l 6
 103.758 -14.6191 73.8389 -40.3076 40.7939 -49.1729 c 5
 48.0479 -43.5312 51.6748 -35.874 51.6748 -26.2031 c 4
 51.6748 -12.501 43.5947 5.35254 28.7041 28.2021 c 6
 0 72.25 l 5
 75.8545 185.372 l 5
EndSplineSet
Validated: 1
EndChar

StartChar: StrophaAucta
Encoding: 251 -1 251
Width: 172
VWidth: 2048
Flags: HW
VStem: -0 170
LayerCount: 2
Fore
SplineSet
70 -129 m 0
 77.859 -116.525 80 -112 89 -87 c 0
 102 -37 81 2 69 18 c 0
 45 50 -0 75 -0 75 c 1
 82 200 l 1
 82 200 164.069 132.007 170 71 c 0
 177 -1 159.557 -51.4773 128 -93 c 0
 109 -118 88.859 -126.15 76 -133 c 0
 74.0265 -134.051 70.859 -135.9 69 -134 c 0
 67.8376 -132.812 68.9399 -130.683 70 -129 c 0
EndSplineSet
EndChar

StartChar: StrophaAucta#Cavum
Encoding: 252 -1 252
Width: 172
VWidth: 2048
Flags: HW
HStem: -66 266
VStem: -0 170
LayerCount: 2
Fore
SplineSet
109.501 -83.4502 m 1
 120.667 -40.7002 108.526 -11.125 104 0.849609 c 0
 101.012 8.75586 87.0996 28.6504 80.0996 37.0498 c 0
 61.6768 59.1562 29.5 80.4502 29.5 80.4502 c 1
 85.9004 166.95 l 1
 85.9004 166.95 139.602 123.697 149.5 64.4502 c 0
 155.115 30.8359 144.66 -25.0859 127.3 -58.25 c 0
 125.419 -61.8438 115.333 -79.7002 109.501 -83.4502 c 1
EndSplineSet
EndChar

StartChar: StrophaAucta#Cavum.caeciliae
Encoding: 253 -1 253
Width: 151
VWidth: 2686
Flags: HW
HStem: -49.1729 234.545
VStem: 0 151
LayerCount: 2
Fore
SplineSet
81.2061 3.00879 m 1
 81.2061 16.5303 80.7715 14.7539 79.7783 19.1631 c 0
 77 31.5029 68.1015 39.0978 66.7432 40.1709 c 2
 22.6504 75.0049 l 1
 73.748 152.19 l 1
 77.2617 141.085 89.1797 124.987 101.983 108.491 c 2
 131.35 70.6553 l 1
 117.14 45.0186 l 2
 103.287 20.0256 97.3369 18.2148 81.2061 3.00879 c 1
EndSplineSet
EndChar

StartChar: StrophaAucta.caeciliae
Encoding: 254 -1 254
Width: 151
VWidth: 2686
Flags: W
HStem: -50.5 235.872
VStem: 0 151
LayerCount: 2
Fore
SplineSet
75.8545 185.372 m 1
 82.3018 165.222 94.9971 143.619 113.334 120.087 c 2
 151 71.75 l 1
 127.842 29.4121 l 2
 103.758 -14.6191 52.5449 -41.6348 19.5 -50.5 c 1
 26.7539 -44.8584 45.5 -29 53 -20 c 0
 61.7427 -9.50878 70.8906 5.15039 56 28 c 2
 0 72.25 l 1
 75.8545 185.372 l 1
EndSplineSet
Validated: 33
EndChar

StartChar: StrophaAuctaLongtail
Encoding: 255 -1 255
Width: 172
VWidth: 2048
Flags: HW
VStem: -0 170
LayerCount: 2
Fore
SplineSet
41 -150 m 0
 48.8594 -137.525 66 -123 76 -98 c 0
 95.1869 -50.0327 82.1807 -17.6719 68 9 c 0
 48.4961 45.6842 -0 75 -0 75 c 1
 82 200 l 1
 82 200 163.231 130.92 170 70 c 0
 178 -2 145 -66 117 -99 c 0
 94.5793 -125.424 60.8594 -145.15 48 -152 c 0
 46.0264 -153.051 41.8594 -156.9 40 -155 c 0
 38.8379 -153.812 39.9395 -151.683 41 -150 c 0
EndSplineSet
EndChar

StartChar: StrophaAuctaLongtail#Cavum
Encoding: 256 -1 256
Width: 172
VWidth: 2048
Flags: HW
HStem: -66 266
VStem: -0 170
LayerCount: 2
Fore
SplineSet
97.501 -91.4502 m 1
 109.667 -48.7002 103.526 -19.125 99 -7.15039 c 0
 96.0117 0.755859 84.0996 25.6504 77.0996 34.0498 c 0
 58.6768 56.1562 29.5 80.4502 29.5 80.4502 c 1
 84.9004 167.95 l 1
 84.9004 167.95 143.888 116.153 150.5 61.4502 c 0
 153.351 37.8633 149.66 -10.0859 123.3 -54.25 c 0
 121.221 -57.7334 103.333 -87.7002 97.501 -91.4502 c 1
EndSplineSet
EndChar

StartChar: UpperPesOneNothing
Encoding: 258 -1 258
Width: 166
VWidth: 2613
Flags: W
HStem: -26.5137 150.124<30.059 79.2998 107.668 147.556> 185.8 157.7<20.8252 142.108>
VStem: 0 18<-63 -43.2308> 148 18<125.692 141 141.199 168.397>
LayerCount: 2
Fore
SplineSet
79.2998 -26.2998 m 0
 51.467 -26.3018 30.9537 -31.9418 30 -41 c 0
 22 -46 18 -53 18 -63 c 0
 0 -63 l 25
 0 116 l 2
 0 122.067 2.16699 125.101 6.5 125.101 c 2
 10.4004 125.101 l 2
 14.7334 124.233 35.5332 123.8 75.4004 123.8 c 0
 87.8047 123.8 98.5234 123.61 107.668 123.61 c 0
 137.756 123.61 148 123.366 148 141 c 2
 148 141.199 l 2
 148 169 130.521 185.8 89.3994 185.8 c 0
 59.0674 185.8 30.9326 178.867 11 165 c 1
 11 294.1 l 2
 11 327.032 39.1328 343.5 89.3994 343.5 c 0
 122.55 343.5 166 333.619 166 294.1 c 2
 166 -17.2002 l 2
 166 -25.3105 157.757 -26.5137 128.375 -26.5137 c 0
 115.999 -26.5137 99.9414 -26.2998 79.2998 -26.2998 c 0
EndSplineSet
EndChar

StartChar: UpperPesOneNothing#Cavum
Encoding: 259 -1 259
Width: 166
VWidth: 2613
Flags: W
HStem: -12.2998 164.401<0 147.706>
VStem: 0 166<-8.23266 145.622> 148 18<157.262 185>
LayerCount: 2
Fore
SplineSet
147.74 111.844 m 1
 147.74 0.367188 l 2
 147.74 -5.95898 136.931 -6 122.013 -6 c 0
 112.359 -6 98.3145 -6 82.2139 -6 c 0xc0
 64.3154 -6 46.4336 -6.20893 39.3203 -6 c 0
 32.0391 -5.78613 18.2598 -6.05664 18.2598 -0.646484 c 2
 18.2598 98.084 l 2xc0
 18.2598 102.815 19.9502 105.183 23.3301 105.183 c 2
 26.3721 105.183 l 2
 29.752 104.505 41.2959 104.268 72.3926 104.268 c 0
 82.0674 104.268 96.4648 104.193 102.561 104.899 c 0
 113.999 106.224 140.74 103.09 147.74 111.844 c 1
87.6934 321.78 m 0
 117.96 321.78 147.558 313.64 147.545 296.278 c 2
 147.468 190.26 l 1
 140.092 197.222 108.132 207.106 90.0449 207.049 c 0
 76.1221 207.005 33.5596 202.835 29.5322 198.034 c 1
 29.4551 296.278 l 2
 29.4414 313.64 57.4258 321.78 87.6934 321.78 c 0
EndSplineSet
EndChar

StartChar: VEpisema
Encoding: 260 -1 260
Width: 34
VWidth: 2048
Flags: W
HStem: -18.0996 109.199
VStem: 0 34<-17.9249 91.0972>
LayerCount: 2
Fore
SplineSet
0 84.9375 m 21
 2.125 88.2314 5.62695 91.0996 17 91.0996 c 4
 27.7314 91.0996 31.875 87.8066 34 84.9375 c 13
 34 -11.8311 l 17
 31.3438 -15.7627 27.0928 -17.9932 17 -18.0996 c 0
 7.0127 -18.2061 3.29395 -16.0811 0 -11.8311 c 9
 0 84.9375 l 21
EndSplineSet
Validated: 1
EndChar

StartChar: VEpisema.circumflexus
Encoding: 261 -1 261
Width: 108
VWidth: 2048
Flags: W
HStem: -409 15 -94 15 221 15 536 15
LayerCount: 2
Fore
SplineSet
0 -14 m 9
 37 76 l 17
 40.6667 82.3333 45.2422 87.001 54.0029 87 c 0
 63 86.999 68 82 71 76 c 13
 108 -16 l 17
 108 -21.1426 103.333 -22.333 99.002 -23.5 c 0
 90.8721 -25.6895 82.8571 -23.1429 80 -18 c 9
 54 40.999 l 25
 54 40.999 30.6667 -12 28 -18 c 1
 23.166 -24.5 16.5 -25.5 9 -23.5 c 0
 4.59668 -22.3252 0 -18.6667 0 -14 c 9
EndSplineSet
Validated: 33
EndChar

StartChar: virgabase
Encoding: 262 -1 262
Width: 166
VWidth: 2637
Flags: HW
HStem: 13.6123 129.375<20.1646 146.928>
VStem: 18.6152 129.77<13.6123 136.556>
LayerCount: 2
Fore
SplineSet
148.2 -65 m 1
 148.2 -28.4004 l 1xa0
 131.733 -13.667 110.067 -6.2998 83.2002 -6.2998 c 0
 44.2002 -6.2998 17.333 -14.9668 0 -32.2998 c 1
 0 125 l 2
 0 157.067 26.6504 173.1 82.5498 173.1 c 0
 138.45 173.1 166.4 157.067 166.4 125 c 2xc0
 166.4 -65 l 1
 148.2 -65 l 1
EndSplineSet
EndChar

StartChar: virgabase#Cavum
Encoding: 263 -1 263
Width: 166
VWidth: 2637
Flags: HW
HStem: 13.6123 129.375<20.1646 146.928>
VStem: 18.6152 129.77<13.6123 136.556>
LayerCount: 2
Fore
SplineSet
82.6133 147.987 m 0
 115.874 147.987 148.401 139.042 148.385 119.963 c 2
 148.3 5.05273 l 1
 134.7 12.7031 99.5791 15.6758 83 15.6123 c 0
 67.7002 15.5527 24.2246 12.2783 18.7002 5.90332 c 1
 18.6152 119.963 l 2
 18.5986 139.042 49.3525 147.987 82.6133 147.987 c 0
EndSplineSet
EndChar

StartChar: VirgaBaseLineBL
Encoding: 264 -1 264
Width: 166
VWidth: 2637
Flags: HW
HStem: -10.2998 179.4<18.8626 147.448>
VStem: 0 18<-53 -24.3222> 147.8 18.2<-372.149 -26.327>
LayerCount: 2
Fore
SplineSet
147.8 -59 m 1
 147.8 -32.4004 l 1
 140.667 -25.334 109.658 -9.60254 82.7998 -10.2998 c 0
 54.9365 -11.0234 34 -18.916 18 -29.5322 c 1
 18 -49.667 18.0107 -40.0137 18 -53 c 1
 8.01074 -53.0137 15.667 -53 0 -53 c 1
 0 121 l 2
 0 153.067 26.25 169.1 82.1494 169.1 c 0
 138.05 169.1 166 153.067 166 121 c 2
 166 -59 l 1
 147.8 -59 l 1
EndSplineSet
EndChar

StartChar: VirgaBaseLineBL#Cavum
Encoding: 265 -1 265
Width: 166
VWidth: 2637
Flags: HW
HStem: 13.6123 129.375<20.1646 146.928>
VStem: 18.6152 129.77<13.6123 136.556>
LayerCount: 2
Fore
SplineSet
82.6133 147.987 m 0
 115.874 147.987 148.397 139.042 148.385 119.963 c 2
 148.3 -4.94727 l 1
 134.7 2.70312 114.579 11.6449 83 11.6123 c 0
 52.7001 11.581 24.2246 2.27832 18.7002 -4.09668 c 1
 18.6152 119.963 l 2
 18.6025 139.042 49.3525 147.987 82.6133 147.987 c 0
EndSplineSet
EndChar

StartChar: VirgaReversaAscendens_op
Encoding: 266 -1 266
Width: 166
VWidth: 2684
Flags: HW
HStem: -57.25 189.801<18.0685 128.646>
VStem: 0 17.75<133.625 379.308> 148.004 17.997<161.551 301.849>
LayerCount: 2
Fore
SplineSet
166 0 m 1
 139.165 -55.9062 46.9414 -57.252 35.9141 -57.252 c 2
 34.9004 -57.25 l 2
 11.5 -57.25 0 -47.7324 0 -25.1992 c 2
 0.5 360.668 l 2
 0.5 371.935 5 378.7 12.7998 381.3 c 1
 18 381.3 18 379.74 18 334.5 c 6
 18 135.573 l 1
 24.7697 133.448 32.8238 132.551 42.7002 132.551 c 0
 65.8945 132.551 120.304 137.428 148.004 170.001 c 1
 147.801 256 l 2
 147.801 301.24 149.101 302.8 154.301 302.8 c 1
 162.101 301.067 166.001 294.133 166.001 282 c 2
 166 0 l 1
EndSplineSet
EndChar

StartChar: VirgaReversaAscendens_op#Cavum
Encoding: 267 -1 267
Width: 166
VWidth: 2684
Flags: W
HStem: -57.25 189.801<1.02232 128.646>
VStem: 0 166<-26.0436 132.551> 148.004 17.996<161.551 193.993>
LayerCount: 2
Fore
SplineSet
147.74 10.501 m 1
 126.81 -33.1064 55.0303 -35.1172 46.4287 -35.1172 c 2
 45.6387 -35.1152 l 2
 25.3857 -35.0654 18.2598 -29.3262 18.2598 -8.75098 c 2
 18.2598 115.125 l 1
 26.668 112.661 33.8223 111.93 50.7227 111.93 c 1
 49.5205 112.077 107.854 113.941 147.74 142.615 c 1
 147.74 10.501 l 1
EndSplineSet
EndChar

StartChar: VirgaReversaDescendens_op
Encoding: 268 -1 268
Width: 168
VWidth: 2048
Flags: HW
HStem: -1 188<18.0735 133.663>
VStem: 0 18<-249.775 -3.80309> 149.8 18.2<-171.849 -19.7646>
LayerCount: 2
Fore
SplineSet
168 -152 m 2
 168 -164.133 164.1 -171.067 156.3 -172.8 c 1
 151.1 -172.8 149.8 -171.24 149.8 -126 c 2
 150 -39.999 l 0
 149.5 -29.5 145.623 -21.0762 137.875 -18.25 c 0
 112.741 -9.08105 59.3867 -1 35.25 -1 c 0
 29.25 -1 19.5 -7 17.9971 -16.5 c 0
 18 -204.5 l 2
 18 -249.74 17.5 -251.3 12.2998 -251.3 c 1
 4.5 -248.7 0 -241.935 0 -230.668 c 2
 0.000976562 173.002 l 1
 0.5 177.5 -2.00488 187.206 20 187 c 0
 73.5 186.5 124.375 168.858 154.375 158.375 c 1
 156.938 157.5 167.999 154.004 168 147.341 c 9
 168 -152 l 2
EndSplineSet
EndChar

StartChar: VirgaReversaDescendens_op#Cavum
Encoding: 269 -1 269
Width: 168
VWidth: 2048
Flags: HW
HStem: -1 188<18.0735 133.663>
VStem: 0 18<-39 -3.80309> 150 18<-39.999 -19.9713>
LayerCount: 2
Fore
SplineSet
149.536 -0.03125 m 17
 129.932 7.12012 57.7432 18.8398 32.916 18.8398 c 0
 28.2363 18.8398 23.6318 18.1602 18.459 15.75 c 9
 18.4805 154.111 l 1
 18.8701 156.84 16.916 165.19 34.0801 165.03 c 0
 75.8096 164.64 115.492 150.879 138.893 141.702 c 1
 140.892 141.021 149.52 138.293 149.52 133.096 c 9
 149.536 -0.03125 l 17
EndSplineSet
EndChar

StartChar: VirgaReversaLongqueueAscendens_op
Encoding: 270 -1 270
Width: 166
VWidth: 2684
Flags: HW
HStem: -57.25 189.801<18.0685 128.646>
VStem: 0 17.75<133.625 319.576> 148.004 17.997<161.551 301.849>
LayerCount: 2
Fore
SplineSet
0 314.668 m 2
 0 325.935 4.5 332.7 12.2998 335.3 c 1
 17.8086 335.3 18.0352 333.831 18 288.5 c 2
 17.75 135.573 l 1
 24.5197 133.448 32.8238 132.551 42.7002 132.551 c 0
 65.8945 132.551 120.304 137.428 148.004 170.001 c 1
 147.801 256 l 2
 147.801 301.24 149.101 302.8 154.301 302.8 c 1
 162.101 301.067 166.001 294.133 166.001 282 c 2
 166 0 l 1
 139.165 -55.9062 46.9414 -57.252 35.9141 -57.252 c 2
 34.9004 -57.25 l 2
 11.5 -57.25 0 -47.7324 0 -25.1992 c 2
 0 314.668 l 2
EndSplineSet
EndChar

StartChar: VirgaReversaLongqueueDescendens_op
Encoding: 271 -1 271
Width: 168
VWidth: 2048
Flags: HW
HStem: -1 188<18.0735 133.663>
VStem: 0 18<-189.775 -3.80309> 149.794 18.2<-172.185 -19.7646>
LayerCount: 2
Fore
SplineSet
167.994 -152.336 m 2
 167.994 -164.469 164.094 -171.402 156.294 -173.136 c 1
 151.094 -173.136 149.794 -171.575 149.794 -126.336 c 2
 150 -39.999 l 0
 149.5 -29.5 145.623 -21.0762 137.875 -18.25 c 0
 112.741 -9.08105 59.3867 -1 35.25 -1 c 0
 29.25 -1 19.5 -7 17.9971 -16.5 c 0
 18 -39 l 1
 18 -158.5 l 2
 18.1201 -203.74 17.8096 -205.3 12.2998 -205.3 c 1
 4.5 -202.7 0 -195.935 0 -184.668 c 2
 0.000976562 173.002 l 1
 0.5 177.5 -2.00488 187.206 20 187 c 0
 73.5 186.5 124.375 168.858 154.375 158.375 c 1
 156.938 157.5 167.999 154.004 168 147.341 c 9
 167.994 -152.336 l 2
EndSplineSet
EndChar

StartChar: VirgaReversaOpenqueueAscendens_op
Encoding: 272 -1 272
Width: 166
VWidth: 2684
Flags: HW
HStem: -57.25 189.801<18.0685 128.646>
VStem: 0 17.75<133.625 319.576> 148.004 17.997<161.551 301.849>
LayerCount: 2
Fore
SplineSet
0 314.668 m 2
 0 325.935 4.5 332.7 12.2998 335.3 c 1
 17.8086 335.3 18.0352 333.831 18 288.5 c 2
 18 135.573 l 1
 24.7697 133.448 32.8238 132.551 42.7002 132.551 c 0
 65.8945 132.551 120.304 137.428 148.004 170.001 c 1
 147.801 256 l 2
 147.801 301.24 149.101 302.8 154.301 302.8 c 1
 162.101 301.067 166.001 294.133 166.001 282 c 2
 166 0 l 1
 139.165 -55.9062 46.9414 -57.252 35.9141 -57.252 c 2
 34.9004 -57.25 l 2
 11.5 -57.25 0 -47.7324 0 -25.1992 c 2
 0 314.668 l 2
EndSplineSet
EndChar

StartChar: VirgaReversaOpenqueueDescendens_op
Encoding: 273 -1 273
Width: 168
VWidth: 2048
Flags: W
HStem: -1 188<18.0735 133.663>
VStem: 0 18<-189.775 -3.80309> 149.794 18.2<-172.185 -19.7646>
LayerCount: 2
Fore
SplineSet
167.994 -152.336 m 2
 167.994 -164.469 164.094 -171.402 156.294 -173.136 c 1
 151.094 -173.136 149.794 -171.575 149.794 -126.336 c 2
 150 -39.999 l 0
 149.5 -29.5 145.623 -21.0762 137.875 -18.25 c 0
 112.741 -9.08105 59.3867 -1 35.25 -1 c 0
 29.25 -1 19.5 -7 17.9971 -16.5 c 0
 18 -39 l 1
 18 -158.5 l 2
 18.1201 -203.74 17.8096 -205.3 12.2998 -205.3 c 1
 4.5 -202.7 0 -195.935 0 -184.668 c 2
 0.000976562 173.002 l 1
 0.5 177.5 -2.00488 187.206 20 187 c 0
 73.5 186.5 124.375 168.858 154.375 158.375 c 1
 156.938 157.5 167.999 154.004 168 147.341 c 9
 167.994 -152.336 l 2
EndSplineSet
EndChar

StartChar: VirgulaTwo
Encoding: 274 -1 274
Width: 143
VWidth: 1788
Flags: HW
HStem: -63.45 84.5<2.23911 67.6846>
VStem: 87.1504 55.8996<-187.09 -83.284>
LayerCount: 2
Fore
SplineSet
-6.4502 -34.8496 m 4
 -6.4502 9.87012 22.1826 21.0498 54.6504 21.0498 c 4
 81.2305 21.0498 143.05 -2.5332 143.05 -102.45 c 4
 143.05 -192.583 89.75 -249.783 -16.8496 -274.05 c 5
 -19.1338 -271.766 -22.0498 -261.704 -22.0498 -258.45 c 4
 -22.0498 -256.717 -21.6172 -255.417 -20.75 -254.55 c 5
 51.1826 -222.482 87.1504 -184.35 87.1504 -140.15 c 4
 87.1504 -78.79 49.4326 -69.1816 16.9502 -63.4502 c 4
 1.34961 -61.7168 -6.4502 -52.1826 -6.4502 -34.8496 c 4
EndSplineSet
EndChar

StartChar: VirgulaThree
Encoding: 275 -1 275
Width: 143
VWidth: 2103
Flags: HW
HStem: 251.55 84.5<2.23911 67.6846>
VStem: 87.1504 55.8996<127.91 231.716>
LayerCount: 2
Fore
SplineSet
-6.4502 280.15 m 4
 -6.4502 324.87 22.1826 336.05 54.6504 336.05 c 4
 81.2305 336.05 143.05 312.467 143.05 212.55 c 4
 143.05 122.417 89.75 65.2168 -16.8496 40.9502 c 5
 -19.1338 43.2344 -22.0498 53.2959 -22.0498 56.5498 c 4
 -22.0498 58.2832 -21.6172 59.583 -20.75 60.4502 c 5
 51.1826 92.5176 87.1504 130.65 87.1504 174.85 c 4
 87.1504 236.21 49.4326 245.818 16.9502 251.55 c 4
 1.34961 253.283 -6.4502 262.817 -6.4502 280.15 c 4
EndSplineSet
EndChar

StartChar: VirgulaFour
Encoding: 276 -1 276
Width: 143
VWidth: 2418
Flags: W
HStem: 566.55 84.5<2.23911 67.6846>
VStem: 87.1504 55.8996<442.91 546.716>
LayerCount: 2
Fore
SplineSet
-6.4502 595.15 m 4
 -6.4502 639.87 22.1826 651.05 54.6504 651.05 c 4
 81.2305 651.05 143.05 627.467 143.05 527.55 c 4
 143.05 437.417 89.75 380.217 -16.8496 355.95 c 5
 -19.1338 358.234 -22.0498 368.296 -22.0498 371.55 c 4
 -22.0498 373.283 -21.6172 374.583 -20.75 375.45 c 5
 51.1826 407.518 87.1504 445.65 87.1504 489.85 c 4
 87.1504 551.21 49.4326 560.818 16.9502 566.55 c 4
 1.34961 568.283 -6.4502 577.817 -6.4502 595.15 c 4
EndSplineSet
Validated: 1
EndChar

StartChar: VirgulaFive
Encoding: 277 -1 277
Width: 143
VWidth: 2733
Flags: HW
HStem: 881.55 84.5<2.23911 67.6846>
VStem: 87.1504 55.8996<757.91 861.716>
LayerCount: 2
Fore
SplineSet
-6.4502 910.15 m 4
 -6.4502 954.87 22.1826 966.05 54.6504 966.05 c 4
 81.2305 966.05 143.05 942.467 143.05 842.55 c 4
 143.05 752.417 89.75 695.217 -16.8496 670.95 c 5
 -19.1338 673.234 -22.0498 683.296 -22.0498 686.55 c 4
 -22.0498 688.283 -21.6172 689.583 -20.75 690.45 c 5
 51.1826 722.518 87.1504 760.65 87.1504 804.85 c 4
 87.1504 866.21 49.4326 875.818 16.9502 881.55 c 4
 1.34961 883.283 -6.4502 892.817 -6.4502 910.15 c 4
EndSplineSet
EndChar

StartChar: VirgulaSix
Encoding: 278 -1 278
Width: 143
VWidth: 3048
Flags: HW
HStem: 1196.55 84.5<2.23911 67.6846>
VStem: 87.1504 55.8996<1072.91 1176.72>
LayerCount: 2
Fore
SplineSet
-6.4502 1225.15 m 4
 -6.4502 1269.87 22.1826 1281.05 54.6504 1281.05 c 4
 81.2305 1281.05 143.05 1257.47 143.05 1157.55 c 4
 143.05 1067.42 89.75 1010.22 -16.8496 985.95 c 5
 -19.1338 988.234 -22.0498 998.296 -22.0498 1001.55 c 4
 -22.0498 1003.28 -21.6172 1004.58 -20.75 1005.45 c 5
 51.1826 1037.52 87.1504 1075.65 87.1504 1119.85 c 4
 87.1504 1181.21 49.4326 1190.82 16.9502 1196.55 c 4
 1.34961 1198.28 -6.4502 1207.82 -6.4502 1225.15 c 4
EndSplineSet
EndChar

StartChar: VirgulaParenTwo
Encoding: 279 -1 279
Width: 340
VWidth: 1788
Flags: HW
HStem: -63.45 84.5<116.239 181.685>
VStem: 201.15 55.8996<-187.09 -83.284>
LayerCount: 2
Fore
SplineSet
107.55 -34.8496 m 4
 107.55 9.87012 136.183 21.0498 168.65 21.0498 c 4
 195.23 21.0498 257.05 -2.5332 257.05 -102.45 c 4
 257.05 -192.583 203.75 -249.783 97.1504 -274.05 c 5
 94.8662 -271.766 91.9502 -261.704 91.9502 -258.45 c 4
 91.9502 -256.717 92.3828 -255.417 93.25 -254.55 c 5
 165.183 -222.482 201.15 -184.35 201.15 -140.15 c 4
 201.15 -78.79 163.433 -69.1816 130.95 -63.4502 c 4
 115.35 -61.7168 107.55 -52.1826 107.55 -34.8496 c 4
262 -275.569 m 1
 262 -275.569 322 -191.333 322 -106.29 c 0
 322 -21.2354 262.001 63.0215 262.001 63.0215 c 1
 262.001 63.0215 263.476 65.5684 265 66.5215 c 24
 266.727 67.6006 270.001 68.0215 270.001 68.0215 c 1
 270.001 68.0215 340 -18.0322 340 -106.29 c 0
 340 -194.537 270 -280.569 270 -280.569 c 1
 270 -280.569 266.727 -280.148 265 -279.069 c 24
 263.476 -278.116 262 -275.569 262 -275.569 c 1
78 -275.569 m 1
 78 -275.569 76.5244 -278.116 75 -279.069 c 24
 73.2734 -280.148 70 -280.569 70 -280.569 c 1
 70 -280.569 0 -194.537 0 -106.29 c 0
 0 -18.0322 69.999 68.0215 69.999 68.0215 c 1
 69.999 68.0215 73.2734 67.6006 75 66.5215 c 24
 76.5244 65.5684 77.999 63.0215 77.999 63.0215 c 1
 77.999 63.0215 18 -21.2354 18 -106.29 c 0
 18 -191.333 78 -275.569 78 -275.569 c 1
EndSplineSet
EndChar

StartChar: VirgulaParenThree
Encoding: 280 -1 280
Width: 340
VWidth: 2103
Flags: HW
HStem: -63.45 84.5<116.239 181.685>
VStem: 201.15 55.8996<-187.09 -83.284>
LayerCount: 2
Fore
SplineSet
262 39.4307 m 1
 262 39.4307 322 123.667 322 208.71 c 0
 322 293.765 262.001 378.021 262.001 378.021 c 1
 262.001 378.021 263.476 380.568 265 381.521 c 24
 266.727 382.601 270.001 383.021 270.001 383.021 c 1
 270.001 383.021 340 296.968 340 208.71 c 0
 340 120.463 270 34.4307 270 34.4307 c 1
 270 34.4307 266.727 34.8516 265 35.9307 c 24
 263.476 36.8838 262 39.4307 262 39.4307 c 1
78 39.4307 m 1
 78 39.4307 76.5244 36.8838 75 35.9307 c 24
 73.2734 34.8516 70 34.4307 70 34.4307 c 1
 70 34.4307 0 120.463 0 208.71 c 0
 0 296.968 69.999 383.021 69.999 383.021 c 1
 69.999 383.021 73.2734 382.601 75 381.521 c 24
 76.5244 380.568 77.999 378.021 77.999 378.021 c 1
 77.999 378.021 18 293.765 18 208.71 c 0
 18 123.667 78 39.4307 78 39.4307 c 1
107.55 280.15 m 4
 107.55 324.87 136.183 336.05 168.65 336.05 c 0
 195.23 336.05 257.05 312.467 257.05 212.55 c 0
 257.05 122.417 203.75 65.2168 97.1504 40.9502 c 1
 94.8662 43.2344 91.9502 53.2959 91.9502 56.5498 c 0
 91.9502 58.2832 92.3828 59.583 93.25 60.4502 c 1
 165.183 92.5176 201.15 130.65 201.15 174.85 c 0
 201.15 236.21 163.433 245.818 130.95 251.55 c 0
 115.35 253.283 107.55 262.817 107.55 280.15 c 4
EndSplineSet
EndChar

StartChar: VirgulaParenFour
Encoding: 281 -1 281
Width: 340
VWidth: 2418
Flags: HW
HStem: -63.45 84.5<116.239 181.685>
VStem: 201.15 55.8996<-187.09 -83.284>
LayerCount: 2
Fore
SplineSet
262 354.431 m 1
 262 354.431 322 438.667 322 523.71 c 0
 322 608.765 262.001 693.021 262.001 693.021 c 1
 262.001 693.021 263.476 695.568 265 696.521 c 24
 266.727 697.601 270.001 698.021 270.001 698.021 c 1
 270.001 698.021 340 611.968 340 523.71 c 0
 340 435.463 270 349.431 270 349.431 c 1
 270 349.431 266.727 349.852 265 350.931 c 24
 263.476 351.884 262 354.431 262 354.431 c 1
78 354.431 m 1
 78 354.431 76.5244 351.884 75 350.931 c 24
 73.2734 349.852 70 349.431 70 349.431 c 1
 70 349.431 0 435.463 0 523.71 c 0
 0 611.968 69.999 698.021 69.999 698.021 c 1
 69.999 698.021 73.2734 697.601 75 696.521 c 24
 76.5244 695.568 77.999 693.021 77.999 693.021 c 1
 77.999 693.021 18 608.765 18 523.71 c 0
 18 438.667 78 354.431 78 354.431 c 1
107.55 595.15 m 4
 107.55 639.87 136.183 651.05 168.65 651.05 c 0
 195.23 651.05 257.05 627.467 257.05 527.55 c 0
 257.05 437.417 203.75 380.217 97.1504 355.95 c 1
 94.8662 358.234 91.9502 368.296 91.9502 371.55 c 0
 91.9502 373.283 92.3828 374.583 93.25 375.45 c 1
 165.183 407.518 201.15 445.65 201.15 489.85 c 0
 201.15 551.21 163.433 560.818 130.95 566.55 c 4
 115.35 568.283 107.55 577.817 107.55 595.15 c 4
EndSplineSet
EndChar

StartChar: VirgulaParenFive
Encoding: 282 -1 282
Width: 340
VWidth: 2733
Flags: HW
HStem: -63.45 84.5<116.239 181.685>
VStem: 201.15 55.8996<-187.09 -83.284>
LayerCount: 2
Fore
SplineSet
262 669.431 m 1
 262 669.431 322 753.667 322 838.71 c 0
 322 923.765 262.001 1008.02 262.001 1008.02 c 1
 262.001 1008.02 263.476 1010.57 265 1011.52 c 24
 266.727 1012.6 270.001 1013.02 270.001 1013.02 c 1
 270.001 1013.02 340 926.968 340 838.71 c 0
 340 750.463 270 664.431 270 664.431 c 1
 270 664.431 266.727 664.852 265 665.931 c 24
 263.476 666.884 262 669.431 262 669.431 c 1
78 669.431 m 1
 78 669.431 76.5244 666.884 75 665.931 c 24
 73.2734 664.852 70 664.431 70 664.431 c 1
 70 664.431 0 750.463 0 838.71 c 0
 0 926.968 69.999 1013.02 69.999 1013.02 c 1
 69.999 1013.02 73.2734 1012.6 75 1011.52 c 24
 76.5244 1010.57 77.999 1008.02 77.999 1008.02 c 1
 77.999 1008.02 18 923.765 18 838.71 c 0
 18 753.667 78 669.431 78 669.431 c 1
107.55 910.15 m 4
 107.55 954.87 136.183 966.05 168.65 966.05 c 0
 195.23 966.05 257.05 942.467 257.05 842.55 c 0
 257.05 752.417 203.75 695.217 97.1504 670.95 c 1
 94.8662 673.234 91.9502 683.296 91.9502 686.55 c 0
 91.9502 688.283 92.3828 689.583 93.25 690.45 c 1
 165.183 722.518 201.15 760.65 201.15 804.85 c 0
 201.15 866.21 163.433 875.818 130.95 881.55 c 0
 115.35 883.283 107.55 892.817 107.55 910.15 c 4
EndSplineSet
EndChar

StartChar: VirgulaParenSix
Encoding: 283 -1 283
Width: 340
VWidth: 3048
Flags: HW
HStem: -63.45 84.5<116.239 181.685>
VStem: 201.15 55.8996<-187.09 -83.284>
LayerCount: 2
Fore
SplineSet
262 984.431 m 1
 262 984.431 322 1068.67 322 1153.71 c 0
 322 1238.76 262.001 1323.02 262.001 1323.02 c 1
 262.001 1323.02 263.476 1325.57 265 1326.52 c 24
 266.727 1327.6 270.001 1328.02 270.001 1328.02 c 1
 270.001 1328.02 340 1241.97 340 1153.71 c 0
 340 1065.46 270 979.431 270 979.431 c 1
 270 979.431 266.727 979.852 265 980.931 c 24
 263.476 981.884 262 984.431 262 984.431 c 1
78 984.431 m 1
 78 984.431 76.5244 981.884 75 980.931 c 24
 73.2734 979.852 70 979.431 70 979.431 c 1
 70 979.431 0 1065.46 0 1153.71 c 0
 0 1241.97 69.999 1328.02 69.999 1328.02 c 1
 69.999 1328.02 73.2734 1327.6 75 1326.52 c 24
 76.5244 1325.57 77.999 1323.02 77.999 1323.02 c 1
 77.999 1323.02 18 1238.76 18 1153.71 c 0
 18 1068.67 78 984.431 78 984.431 c 1
107.55 1225.15 m 4
 107.55 1269.87 136.183 1281.05 168.65 1281.05 c 0
 195.23 1281.05 257.05 1257.47 257.05 1157.55 c 0
 257.05 1067.42 203.75 1010.22 97.1504 985.95 c 1
 94.8662 988.234 91.9502 998.296 91.9502 1001.55 c 0
 91.9502 1003.28 92.3828 1004.58 93.25 1005.45 c 1
 165.183 1037.52 201.15 1075.65 201.15 1119.85 c 0
 201.15 1181.21 163.433 1190.82 130.95 1196.55 c 0
 115.35 1198.28 107.55 1207.82 107.55 1225.15 c 4
EndSplineSet
EndChar
